{
.appVersion = "1230";
DisplayStrings = (
TEXTING,
"8",
"OOOO\012HHHH\012OOBOO\012HHBHH\012HAP\012DYNASTY\012HOE\012"
);
customParameters = (
{
name = Axes;
value = (
{
Name = Weight;
Tag = wght;
},
{
Name = Width;
Tag = wdth;
}
);
}
);
date = "2018-06-13 01:37:59 +0000";
familyName = KRS.PY;
fontMaster = (
{
ascender = 750;
capHeight = 750;
custom = "Black Wide";
customValue = 679;
customParameters = (
{
name = "Master Icon Glyph Name";
value = A;
}
);
descender = -250;
id = "41E2CF60-9A62-485C-A680-66BBCCBE3685";
weightValue = 1000;
widthValue = 1000;
xHeight = 500;
},
{
ascender = 750;
capHeight = 750;
custom = Wide;
customValue = 816;
customParameters = (
{
name = "Master Icon Glyph Name";
value = A;
}
);
descender = -250;
id = "C9BA7AB2-4C39-4898-B0E1-23BE521DA8C1";
weight = Light;
weightValue = 0;
widthValue = 1000;
xHeight = 500;
},
{
ascender = 750;
capHeight = 750;
custom = Narrow;
customParameters = (
{
name = "Master Icon Glyph Name";
value = A;
}
);
descender = -250;
id = "1577B97C-DCC5-4AA4-842F-E9BB22E99E3C";
userData = {
GSCornerRadius = 15;
};
weight = Light;
weightValue = 0;
widthValue = 0;
xHeight = 500;
},
{
ascender = 750;
capHeight = 750;
custom = "Black Narrow";
customValue = 26;
customParameters = (
{
name = "Master Icon Glyph Name";
value = A;
}
);
descender = -250;
guideLines = (
{
position = "{277, 386}";
},
{
name = "topserif-narrow";
position = "{185, 557}";
},
{
name = numberstopserif;
position = "{73, 539}";
}
);
id = "628C7BDB-7DBE-4EE3-879C-693AF95326D4";
weightValue = 1000;
widthValue = 0;
xHeight = 500;
}
);
glyphs = (
{
glyphname = A;
lastChange = "2019-09-07 06:31:58 +0000";
layers = (
{
layerId = "41E2CF60-9A62-485C-A680-66BBCCBE3685";
paths = (
{
closed = 1;
nodes = (
"499 0 LINE",
"499 236 LINE",
"1387 236 LINE",
"1387 0 LINE",
"1827 0 LINE",
"1827 750 LINE",
"249 750 LINE",
"59 477 LINE",
"59 0 LINE"
);
},
{
closed = 1;
nodes = (
"499 475 LINE",
"584 601 LINE",
"1387 601 LINE",
"1387 397 LINE",
"499 397 LINE"
);
}
);
width = 1891;
},
{
layerId = "C9BA7AB2-4C39-4898-B0E1-23BE521DA8C1";
paths = (
{
closed = 1;
nodes = (
"86 0 LINE",
"86 355 LINE",
"1142 355 LINE",
"1142 0 LINE",
"1183 0 LINE",
"1183 750 LINE",
"158 750 LINE",
"45 478 LINE",
"45 0 LINE"
);
},
{
closed = 1;
nodes = (
"86 475 LINE",
"187 719 LINE",
"1142 719 LINE",
"1142 386 LINE",
"86 386 LINE"
);
}
);
width = 1229;
},
{
layerId = "1577B97C-DCC5-4AA4-842F-E9BB22E99E3C";
paths = (
{
closed = 1;
nodes = (
"44 0 LINE",
"44 364 LINE",
"101 364 LINE",
"101 0 LINE",
"132 0 LINE",
"132 750 LINE",
"54 750 LINE",
"13 467 LINE",
"13 0 LINE"
);
},
{
closed = 1;
nodes = (
"44 463 LINE",
"82 728 LINE",
"101 728 LINE",
"101 386 LINE",
"44 386 LINE"
);
}
);
userData = {
com.schriftgestaltung.Glyphs.lastChange = "2019-04-28 05:35:59 +0000";
com.typemytype.robofont.pointLabels = {
FsYtJ2vFnp = (
crossbar,
shiftstem,
crossbar,
shiftdown,
crossbar,
crossbar,
shiftdown,
crossbar
);
IIRC9Wy7kQ = (
crossbar
);
OBZ5Ayed7M = (
crossbar,
shiftstem,
crossbar,
shiftdown,
crossbar,
crossbar,
shiftdown,
crossbar
);
QVexAlbAcl = (
crossbar,
shiftstem,
crossbar,
shiftdown,
crossbar,
crossbar,
shiftdown,
crossbar
);
VufvPdJ075 = (
crossbar,
shiftstem,
crossbar,
shiftdown,
crossbar,
crossbar,
shiftdown,
crossbar
);
ZgsCdxNJRW = (
crossbar,
shiftstem,
crossbar,
shiftdown,
crossbar,
crossbar,
shiftdown,
crossbar
);
iDT0uyhKrn = (
crossbar,
crossbar,
shiftdown
);
kpn4Kw9J0C = (
crossbar,
shiftstem,
crossbar,
shiftdown,
crossbar,
crossbar,
shiftdown,
crossbar
);
tUsW8L7b0y = (
crossbar,
crossbar,
shiftdown
);
};
};
width = 152;
},
{
layerId = "628C7BDB-7DBE-4EE3-879C-693AF95326D4";
paths = (
{
closed = 1;
nodes = (
"365 0 LINE",
"365 269 LINE",
"454 269 LINE",
"454 0 LINE",
"793 0 LINE",
"793 750 LINE",
"111 750 LINE",
"26 470 LINE",
"26 0 LINE"
);
},
{
closed = 1;
nodes = (
"365 463 LINE",
"401 658 LINE",
"454 658 LINE",
"454 405 LINE",
"365 405 LINE"
);
}
);
width = 824;
}
);
unicode = 0041;
},
{
glyphname = B;
lastChange = "2019-09-07 14:49:59 +0000";
layers = (
{
layerId = "41E2CF60-9A62-485C-A680-66BBCCBE3685";
paths = (
{
closed = 1;
nodes = (
"1831 0 LINE",
"1831 271 LINE",
"1535 358 LINE",
"1535 387 LINE",
"1805 468 LINE",
"1805 750 LINE",
"64 750 LINE",
"64 0 LINE"
);
},
{
closed = 1;
nodes = (
"504 313 LINE",
"1273 313 LINE",
"1392 281 LINE",
"1392 156 LINE",
"504 156 LINE"
);
},
{
closed = 1;
nodes = (
"504 594 LINE",
"1365 594 LINE",
"1365 456 LINE",
"1275 432 LINE",
"504 432 LINE"
);
}
);
width = 1862;
},
{
layerId = "C9BA7AB2-4C39-4898-B0E1-23BE521DA8C1";
paths = (
{
closed = 1;
nodes = (
"1184 0 LINE",
"1184 305 LINE",
"982 373 LINE",
"982 372 LINE",
"1148 440 LINE",
"1148 750 LINE",
"46 750 LINE",
"46 0 LINE"
);
},
{
closed = 1;
nodes = (
"87 358 LINE",
"943 358 LINE",
"1143 289 LINE",
"1143 32 LINE",
"87 32 LINE"
);
},
{
closed = 1;
nodes = (
"87 718 LINE",
"1107 718 LINE",
"1107 455 LINE",
"945 387 LINE",
"87 387 LINE"
);
}
);
width = 1210;
},
{
layerId = "1577B97C-DCC5-4AA4-842F-E9BB22E99E3C";
paths = (
{
closed = 1;
nodes = (
"139 0 LINE",
"139 325 LINE",
"79 388 LINE",
"79 360 LINE",
"136 427 LINE",
"136 750 LINE",
"20 750 LINE",
"20 0 LINE"
);
},
{
closed = 1;
nodes = (
"51 361 LINE",
"67 361 LINE",
"108 317 LINE",
"108 22 LINE",
"51 22 LINE"
);
},
{
closed = 1;
nodes = (
"51 728 LINE",
"105 728 LINE",
"105 432 LINE",
"67 386 LINE",
"51 386 LINE"
);
}
);
userData = {
com.schriftgestaltung.Glyphs.lastChange = "2019-04-28 05:35:59 +0000";
com.typemytype.robofont.pointLabels = {
1p5hKrurVy = (
leftside,
shiftstem,
leftside,
crossbar,
crossbar,
crossbar,
shiftdown,
crossbar,
crossbar,
crossbar,
shiftdown,
crossbar,
crossbar,
crossbar,
crossbar,
shiftdown
);
543PerILpr = (
crossbar,
rightside,
crossbar,
crossbar,
crossbar
);
9QFpw7nfq7 = (
crossbar,
rightside,
crossbar,
crossbar,
crossbar
);
9lW01gQyU2 = (
crossbar
);
By7dfMihfe = (
leftside,
shiftstem,
leftside,
crossbar,
crossbar,
crossbar,
shiftdown,
crossbar,
crossbar,
crossbar,
shiftdown,
crossbar,
crossbar,
crossbar,
crossbar,
shiftdown
);
CFLmER0nAJ = (
crossbar,
rightside,
crossbar,
crossbar,
crossbar
);
FaP204GrdB = (
crossbar,
rightside,
crossbar,
crossbar,
crossbar
);
JEev70GAj6 = (
leftside,
shiftstem,
leftside,
crossbar,
crossbar,
crossbar,
shiftdown,
crossbar,
crossbar,
crossbar,
shiftdown,
crossbar,
crossbar,
crossbar,
crossbar,
shiftdown
);
Qby8aMtF2X = (
crossbar,
crossbar,
crossbar,
shiftdown
);
VyYlzRh5nq = (
crossbar,
crossbar,
crossbar,
shiftdown
);
XSrxNd2axx = (
leftside,
shiftstem,
leftside,
crossbar,
crossbar,
crossbar,
shiftdown,
crossbar,
crossbar,
crossbar,
shiftdown,
crossbar,
crossbar,
crossbar,
crossbar,
shiftdown
);
eGKH52Jgnk = (
crossbar,
rightside,
crossbar,
crossbar,
crossbar
);
hvY9r8RmLr = (
leftside,
shiftstem,
leftside,
crossbar,
crossbar,
crossbar,
shiftdown,
crossbar,
crossbar,
crossbar,
shiftdown,
crossbar,
crossbar,
crossbar,
crossbar,
shiftdown
);
jaMSiLrCua = (
leftside,
shiftstem,
leftside,
crossbar,
crossbar,
crossbar,
shiftdown,
crossbar,
crossbar,
crossbar,
shiftdown,
crossbar,
crossbar,
crossbar,
crossbar,
shiftdown
);
lsRGatjQja = (
crossbar,
crossbar,
crossbar,
shiftdown
);
tTFhqGqWV0 = (
crossbar,
rightside,
crossbar,
crossbar,
crossbar
);
xhlDJ3CjD5 = (
crossbar,
crossbar,
crossbar,
shiftdown
);
xpxyvIzPoc = (
crossbar
);
};
};
width = 154;
},
{
layerId = "628C7BDB-7DBE-4EE3-879C-693AF95326D4";
paths = (
{
closed = 1;
nodes = (
"800 0 LINE",
"800 310 LINE",
"670 367 LINE",
"670 380 LINE",
"789 432 LINE",
"789 750 LINE",
"31 750 LINE",
"31 0 LINE"
);
},
{
closed = 1;
nodes = (
"370 342 LINE",
"407 342 LINE",
"461 319 LINE",
"461 97 LINE",
"370 97 LINE"
);
},
{
closed = 1;
nodes = (
"370 653 LINE",
"450 653 LINE",
"450 432 LINE",
"407 408 LINE",
"370 408 LINE"
);
}
);
width = 811;
}
);
unicode = 0042;
},
{
glyphname = C;
lastChange = "2019-09-07 06:34:44 +0000";
layers = (
{
layerId = "41E2CF60-9A62-485C-A680-66BBCCBE3685";
paths = (
{
closed = 1;
nodes = (
"1827 0 LINE",
"1827 263 LINE",
"1387 263 LINE",
"1387 139 LINE",
"499 139 LINE",
"499 348 LINE",
"683 612 LINE",
"1386 612 LINE",
"1386 431 LINE",
"1826 431 LINE",
"1826 751 LINE",
"318 751 LINE",
"59 373 LINE",
"59 0 LINE"
);
}
);
width = 1885;
},
{
layerId = "C9BA7AB2-4C39-4898-B0E1-23BE521DA8C1";
paths = (
{
closed = 1;
nodes = (
"1178 0 LINE",
"1178 167 LINE",
"1137 167 LINE",
"1137 29 LINE",
"81 29 LINE",
"81 548 LINE",
"204 721 LINE",
"1136 721 LINE",
"1136 488 LINE",
"1177 488 LINE",
"1177 751 LINE",
"181 751 LINE",
"40 553 LINE",
"40 0 LINE"
);
}
);
width = 1215;
},
{
layerId = "1577B97C-DCC5-4AA4-842F-E9BB22E99E3C";
paths = (
{
closed = 1;
nodes = (
"133 0 LINE",
"133 160 LINE",
"102 160 LINE",
"102 22 LINE",
"45 22 LINE",
"45 650 LINE",
"81 729 LINE",
"101 729 LINE",
"101 492 LINE",
"132 492 LINE",
"132 751 LINE",
"61 751 LINE",
"14 651 LINE",
"14 0 LINE"
);
}
);
userData = {
com.schriftgestaltung.Glyphs.lastChange = "2019-04-28 11:49:41 +0000";
com.typemytype.robofont.pointLabels = {
5BjRbcud80 = (
rightside,
shiftstem,
rightside,
shiftdown,
shiftdown,
rightside,
rightside
);
7lPhzTnk2Z = (
leftside
);
9eJelv8BOw = (
rightside,
shiftstem,
rightside,
shiftdown,
shiftdown,
rightside,
rightside
);
L2LsGnXiZ2 = (
shiftdown
);
QX1V08aTu0 = (
rightside,
shiftstem,
rightside,
shiftdown,
shiftdown,
rightside,
rightside
);
QjTd5GXXER = (
rightside
);
V1EWIdPahq = (
leftside
);
Y750RHTvDj = (
rightside,
shiftstem,
rightside,
shiftdown,
shiftdown,
rightside,
rightside
);
dbOUe6OhxL = (
shiftdown
);
fNVDqwQo2o = (
rightside,
shiftstem,
rightside,
shiftdown,
shiftdown,
rightside,
rightside
);
lfZev3ICaC = (
leftside
);
nDnDHzAMXL = (
rightside,
shiftstem,
rightside,
shiftdown,
shiftdown,
rightside,
rightside
);
o9Cec4GtsE = (
rightside
);
qJVLZGnkwh = (
rightside,
shiftstem,
rightside,
shiftdown,
shiftdown,
rightside,
rightside
);
sUWsr03vF4 = (
shiftdown
);
wLqQQx7QVN = (
rightside,
shiftstem,
rightside,
shiftdown,
shiftdown,
rightside,
rightside
);
};
};
width = 144;
},
{
layerId = "628C7BDB-7DBE-4EE3-879C-693AF95326D4";
paths = (
{
closed = 1;
nodes = (
"793 0 LINE",
"793 265 LINE",
"454 265 LINE",
"454 96 LINE",
"365 96 LINE",
"365 570 LINE",
"398 654 LINE",
"453 654 LINE",
"453 447 LINE",
"792 447 LINE",
"792 751 LINE",
"93 751 LINE",
"26 567 LINE",
"26 0 LINE"
);
}
);
width = 815;
}
);
unicode = 0043;
},
{
glyphname = D;
lastChange = "2019-09-07 06:35:13 +0000";
layers = (
{
layerId = "41E2CF60-9A62-485C-A680-66BBCCBE3685";
paths = (
{
closed = 1;
nodes = (
"1832 0 LINE",
"1832 425 LINE",
"1453 750 LINE",
"64 750 LINE",
"64 0 LINE"
);
},
{
closed = 1;
nodes = (
"504 594 LINE",
"1111 594 LINE",
"1392 368 LINE",
"1392 156 LINE",
"504 156 LINE"
);
}
);
width = 1891;
},
{
layerId = "C9BA7AB2-4C39-4898-B0E1-23BE521DA8C1";
paths = (
{
closed = 1;
nodes = (
"1184 0 LINE",
"1184 570 LINE",
"1031 750 LINE",
"46 750 LINE",
"46 0 LINE"
);
},
{
closed = 1;
nodes = (
"87 718 LINE",
"1007 718 LINE",
"1143 558 LINE",
"1143 31 LINE",
"87 32 LINE"
);
}
);
width = 1229;
},
{
layerId = "1577B97C-DCC5-4AA4-842F-E9BB22E99E3C";
paths = (
{
closed = 1;
nodes = (
"140 0 LINE",
"140 664 LINE",
"96 750 LINE",
"20 750 LINE",
"20 0 LINE"
);
},
{
closed = 1;
nodes = (
"51 728 LINE",
"74 728 LINE",
"109 658 LINE",
"109 22 LINE",
"51 22 LINE"
);
}
);
userData = {
com.schriftgestaltung.Glyphs.lastChange = "2019-04-28 05:35:59 +0000";
com.typemytype.robofont.pointLabels = {
4w8cXO1HlF = (
leftside,
shiftstem,
leftside,
shiftstem,
shiftdown
);
5OFemp6E2Y = (
leftside,
shiftstem,
leftside,
shiftstem,
shiftdown
);
DhFNkdKcfj = (
leftside
);
DiLdvAK6bW = (
leftside,
shiftstem,
leftside,
shiftstem,
shiftdown
);
IF8msvcgce = (
rightside
);
OGdfzPVlic = (
leftside,
shiftstem,
leftside,
shiftstem,
shiftdown
);
YShvMHvurg = (
leftside,
shiftstem,
leftside,
shiftstem,
shiftdown
);
gh4oopoKIn = (
leftside,
shiftstem
);
hTYdJwlqIh = (
leftside,
shiftstem
);
ydeACnPZN4 = (
rightside
);
yunTqSzRcA = (
rightside
);
};
};
width = 157;
},
{
layerId = "628C7BDB-7DBE-4EE3-879C-693AF95326D4";
paths = (
{
closed = 1;
nodes = (
"799 0 LINE",
"799 557 LINE",
"693 750 LINE",
"31 750 LINE",
"31 0 LINE"
);
},
{
closed = 1;
nodes = (
"370 653 LINE",
"412 653 LINE",
"460 543 LINE",
"460 97 LINE",
"370 97 LINE"
);
}
);
width = 825;
}
);
unicode = 0044;
},
{
glyphname = E;
lastChange = "2019-09-07 06:36:12 +0000";
layers = (
{
layerId = "41E2CF60-9A62-485C-A680-66BBCCBE3685";
paths = (
{
closed = 1;
nodes = (
"1616 0 LINE",
"1616 172 LINE",
"1266 172 LINE",
"1266 172 LINE",
"504 172 LINE",
"504 296 LINE",
"1439 296 LINE",
"1439 448 LINE",
"504 448 LINE",
"504 574 LINE",
"1265 574 LINE",
"1265 574 LINE",
"1615 574 LINE",
"1615 750 LINE",
"64 750 LINE",
"64 0 LINE"
);
}
);
width = 1660;
},
{
layerId = "C9BA7AB2-4C39-4898-B0E1-23BE521DA8C1";
paths = (
{
closed = 1;
nodes = (
"1177 0 LINE",
"1177 136 LINE",
"1136 136 LINE",
"1136 32 LINE",
"87 32 LINE",
"87 359 LINE",
"1004 359 LINE",
"1004 390 LINE",
"87 390 LINE",
"87 718 LINE",
"1135 718 LINE",
"1135 558 LINE",
"1176 558 LINE",
"1176 750 LINE",
"46 750 LINE",
"46 0 LINE"
);
}
);
width = 1218;
},
{
layerId = "1577B97C-DCC5-4AA4-842F-E9BB22E99E3C";
paths = (
{
closed = 1;
nodes = (
"137 0 LINE",
"137 133 LINE",
"106 133 LINE",
"106 22 LINE",
"51 22 LINE",
"51 363 LINE",
"119 363 LINE",
"119 385 LINE",
"51 385 LINE",
"51 728 LINE",
"105 728 LINE",
"105 557 LINE",
"136 557 LINE",
"136 750 LINE",
"20 750 LINE",
"20 0 LINE"
);
}
);
userData = {
com.schriftgestaltung.Glyphs.lastChange = "2019-04-28 05:35:59 +0000";
com.typemytype.robofont.pointLabels = {
32aoCNw8Jt = (
rightside
);
5cgTYOhATF = (
leftside,
shiftdown,
crossbar,
shiftstem,
crossbar,
leftside,
leftside,
crossbar,
shiftstem,
crossbar,
leftside,
crossbar,
leftside,
crossbar,
shiftstem,
crossbar,
leftside
);
8WuC5p8Ax5 = (
crossbar
);
FAQNpgUPxV = (
rightside
);
HmJIcnLWfC = (
leftside,
crossbar,
shiftstem,
crossbar,
leftside
);
NnvFkLKjyD = (
rightside
);
PpbsFdHAnS = (
leftside,
shiftdown,
crossbar,
shiftstem,
crossbar,
leftside,
leftside,
crossbar,
shiftstem,
crossbar,
leftside,
crossbar,
leftside,
crossbar,
shiftstem,
crossbar,
leftside
);
S91n4lNRRk = (
rightside
);
VtD2aADJmn = (
leftside,
shiftdown,
crossbar,
shiftstem,
crossbar,
leftside,
leftside,
crossbar,
shiftstem,
crossbar,
leftside,
crossbar,
leftside,
crossbar,
shiftstem,
crossbar,
leftside
);
XMbDdjq7aS = (
rightside
);
bWs42DaCgU = (
leftside,
shiftdown,
crossbar,
shiftstem,
crossbar,
leftside,
leftside,
crossbar,
shiftstem,
crossbar,
leftside,
crossbar,
leftside,
crossbar,
shiftstem,
crossbar,
leftside
);
e79n7CoPy1 = (
rightside
);
eqNb2VTwYs = (
leftside,
shiftdown,
crossbar,
shiftstem,
crossbar,
leftside,
leftside,
crossbar,
shiftstem,
crossbar,
leftside,
crossbar,
leftside,
crossbar,
shiftstem,
crossbar,
leftside
);
fZynkQ4XHB = (
leftside,
crossbar,
shiftstem,
crossbar,
leftside
);
gHI0YjrPxR = (
rightside
);
gQ21I4SHQg = (
leftside,
shiftdown,
crossbar,
shiftstem,
crossbar,
leftside,
leftside,
crossbar,
shiftstem,
crossbar,
leftside,
crossbar,
leftside,
crossbar,
shiftstem,
crossbar,
leftside
);
m39IWn9ntA = (
leftside,
crossbar,
shiftstem,
crossbar,
leftside
);
qYRmo14Il5 = (
rightside
);
};
};
width = 147;
},
{
layerId = "628C7BDB-7DBE-4EE3-879C-693AF95326D4";
paths = (
{
closed = 1;
nodes = (
"720 0 LINE",
"721 140 LINE",
"434 140 LINE",
"433 140 LINE",
"370 140 LINE",
"370 292 LINE",
"663 292 LINE",
"663 455 LINE",
"370 455 LINE",
"370 604 LINE",
"432 604 LINE",
"432 604 LINE",
"719 604 LINE",
"719 750 LINE",
"31 750 LINE",
"31 0 LINE"
);
}
);
width = 734;
}
);
unicode = 0045;
},
{
glyphname = F;
lastChange = "2019-09-07 06:39:17 +0000";
layers = (
{
layerId = "41E2CF60-9A62-485C-A680-66BBCCBE3685";
paths = (
{
closed = 1;
nodes = (
"519 0 LINE",
"519 249 LINE",
"1294 249 LINE",
"1294 386 LINE",
"519 386 LINE",
"519 594 LINE",
"1366 594 LINE",
"1366 594 LINE",
"1602 594 LINE",
"1602 750 LINE",
"79 750 LINE",
"79 0 LINE"
);
}
);
width = 1618;
},
{
layerId = "C9BA7AB2-4C39-4898-B0E1-23BE521DA8C1";
paths = (
{
closed = 1;
nodes = (
"87 0 LINE",
"87 355 LINE",
"926 355 LINE",
"926 386 LINE",
"87 386 LINE",
"87 718 LINE",
"1139 718 LINE",
"1139 561 LINE",
"1180 561 LINE",
"1180 750 LINE",
"46 750 LINE",
"46 0 LINE"
);
}
);
width = 1227;
},
{
layerId = "1577B97C-DCC5-4AA4-842F-E9BB22E99E3C";
paths = (
{
closed = 1;
nodes = (
"51 0 LINE",
"51 364 LINE",
"123 364 LINE",
"123 386 LINE",
"51 386 LINE",
"51 728 LINE",
"107 728 LINE",
"107 557 LINE",
"138 557 LINE",
"138 750 LINE",
"20 750 LINE",
"20 0 LINE"
);
}
);
userData = {
com.schriftgestaltung.Glyphs.lastChange = "2019-04-28 05:35:59 +0000";
com.typemytype.robofont.pointLabels = {
0tk7G4orz6 = (
rightside
);
4cFHKQfHDt = (
leftside,
crossbar,
crossbar,
shiftstem,
leftside
);
F6QQD702pX = (
rightside
);
NUrIjqOB7J = (
rightside
);
NmB7yyQuio = (
crossbar
);
TBAYuCfUFX = (
leftside,
crossbar,
crossbar,
shiftstem,
leftside
);
ZvzwyrcwpS = (
leftside,
crossbar,
crossbar,
shiftstem,
leftside
);
bL0wwzlx16 = (
rightside
);
oAgH2tA6DJ = (
leftside,
crossbar,
crossbar,
shiftstem,
leftside
);
wQk2C8zPHh = (
crossbar
);
yHYqkMd7LI = (
leftside,
crossbar,
crossbar,
shiftstem,
leftside
);
zCZyMcW5ho = (
leftside,
crossbar,
crossbar,
shiftstem,
leftside
);
};
};
width = 148;
},
{
layerId = "628C7BDB-7DBE-4EE3-879C-693AF95326D4";
paths = (
{
closed = 1;
nodes = (
"370 0 LINE",
"370 253 LINE",
"632 253 LINE",
"632 386 LINE",
"370 386 LINE",
"370 653 LINE",
"446 653 LINE",
"446 490 LINE",
"785 490 LINE",
"785 750 LINE",
"31 750 LINE",
"31 0 LINE"
);
}
);
width = 788;
}
);
unicode = 0046;
},
{
glyphname = G;
lastChange = "2019-09-07 06:39:52 +0000";
layers = (
{
layerId = "41E2CF60-9A62-485C-A680-66BBCCBE3685";
paths = (
{
closed = 1;
nodes = (
"1820 0 LINE",
"1820 424 LINE",
"929 424 LINE",
"929 310 LINE",
"1380 310 LINE",
"1380 156 LINE",
"489 156 LINE",
"489 359 LINE",
"678 594 LINE",
"1380 594 LINE",
"1380 594 LINE",
"1810 594 LINE",
"1810 750 LINE",
"281 750 LINE",
"49 459 LINE",
"49 0 LINE"
);
}
);
width = 1876;
},
{
layerId = "C9BA7AB2-4C39-4898-B0E1-23BE521DA8C1";
paths = (
{
closed = 1;
nodes = (
"1181 0 LINE",
"1181 369 LINE",
"607 369 LINE",
"607 341 LINE",
"1140 341 LINE",
"1140 32 LINE",
"87 32 LINE",
"87 547 LINE",
"206 718 LINE",
"1142 718 LINE",
"1142 561 LINE",
"1183 561 LINE",
"1183 750 LINE",
"177 750 LINE",
"46 559 LINE",
"46 0 LINE"
);
}
);
width = 1224;
},
{
layerId = "1577B97C-DCC5-4AA4-842F-E9BB22E99E3C";
paths = (
{
closed = 1;
nodes = (
"136 0 LINE",
"136 365 LINE",
"71 365 LINE",
"71 343 LINE",
"105 343 LINE",
"105 22 LINE",
"51 22 LINE",
"51 649 LINE",
"79 728 LINE",
"107 728 LINE",
"107 557 LINE",
"138 557 LINE",
"138 750 LINE",
"59 750 LINE",
"20 650 LINE",
"20 0 LINE"
);
}
);
userData = {
com.schriftgestaltung.Glyphs.lastChange = "2019-04-28 11:53:33 +0000";
com.typemytype.robofont.pointLabels = {
03XIRquU5H = (
rightside,
crossbar,
shiftstem,
rightside,
rightside,
shiftdown,
rightside,
rightside,
rightside,
rightside,
rightside,
rightside,
rightside,
rightside,
rightside,
rightside,
rightside,
rightside,
rightside,
rightside,
rightside,
rightside,
rightside,
rightside,
crossbar,
rightside,
rightside,
rightside,
rightside,
rightside,
rightside,
rightside,
rightside,
rightside,
rightside,
rightside,
rightside,
rightside,
rightside,
rightside,
rightside,
rightside,
rightside,
rightside,
rightside,
crossbar,
rightside,
rightside,
shiftdown,
rightside,
rightside,
rightside,
rightside,
rightside,
rightside,
rightside,
rightside,
rightside,
rightside,
rightside,
rightside,
rightside,
rightside,
rightside,
rightside,
rightside,
rightside,
crossbar,
rightside,
rightside,
rightside,
rightside,
rightside,
rightside,
rightside,
rightside,
rightside,
rightside,
rightside,
rightside,
rightside,
rightside,
rightside,
rightside,
rightside,
rightside,
rightside,
leftside,
leftside,
leftside,
rightside,
crossbar,
rightside,
rightside,
shiftdown,
rightside,
rightside,
rightside,
rightside,
rightside,
rightside,
rightside,
rightside,
rightside,
rightside,
rightside,
rightside,
rightside,
rightside,
rightside,
rightside,
rightside,
rightside,
crossbar,
rightside,
rightside,
rightside,
rightside,
rightside,
rightside,
rightside,
rightside,
rightside,
rightside,
rightside,
rightside,
rightside,
rightside,
rightside,
rightside,
rightside,
rightside,
rightside
);
0C3ytxLmQy = (
rightside,
rightside,
rightside,
rightside,
rightside,
rightside,
rightside,
rightside
);
3nCTj46eZY = (
rightside,
crossbar,
rightside,
rightside,
shiftdown,
rightside,
rightside,
rightside,
rightside,
rightside,
rightside,
rightside,
rightside,
rightside,
rightside,
rightside,
rightside,
rightside,
rightside,
rightside,
rightside,
rightside,
rightside,
crossbar,
rightside,
rightside,
rightside,
rightside,
rightside,
rightside,
rightside,
rightside,
rightside,
rightside,
rightside,
rightside,
rightside,
rightside,
rightside,
rightside,
rightside,
rightside,
rightside
);
8B2JVN8ZLJ = (
rightside,
rightside,
rightside,
rightside,
rightside,
rightside,
rightside,
rightside
);
8rex52NyWa = (
rightside,
crossbar,
rightside,
rightside,
rightside,
rightside,
rightside,
rightside,
rightside,
rightside,
rightside,
rightside,
rightside,
rightside,
rightside,
rightside,
rightside,
rightside,
rightside,
rightside,
rightside
);
BK8t8NwvTJ = (
rightside,
crossbar,
shiftstem,
rightside,
rightside,
shiftdown,
rightside,
rightside,
rightside,
rightside,
rightside,
rightside,
rightside,
rightside,
rightside,
rightside,
rightside,
rightside,
rightside,
rightside,
rightside,
rightside,
rightside,
rightside,
crossbar,
rightside,
rightside,
rightside,
rightside,
rightside,
rightside,
rightside,
rightside,
rightside,
rightside,
rightside,
rightside,
rightside,
rightside,
rightside,
rightside,
rightside,
rightside,
rightside,
rightside,
crossbar,
rightside,
rightside,
shiftdown,
rightside,
rightside,
rightside,
rightside,
rightside,
rightside,
rightside,
rightside,
rightside,
rightside,
rightside,
rightside,
rightside,
rightside,
rightside,
rightside,
rightside,
rightside,
crossbar,
rightside,
rightside,
rightside,
rightside,
rightside,
rightside,
rightside,
rightside,
rightside,
rightside,
rightside,
rightside,
rightside,
rightside,
rightside,
rightside,
rightside,
rightside,
rightside,
leftside,
leftside,
leftside,
rightside,
crossbar,
rightside,
rightside,
shiftdown,
rightside,
rightside,
rightside,
rightside,
rightside,
rightside,
rightside,
rightside,
rightside,
rightside,
rightside,
rightside,
rightside,
rightside,
rightside,
rightside,
rightside,
rightside,
crossbar,
rightside,
rightside,
rightside,
rightside,
rightside,
rightside,
rightside,
rightside,
rightside,
rightside,
rightside,
rightside,
rightside,
rightside,
rightside,
rightside,
rightside,
rightside,
rightside
);
CxPWfAz72K = (
rightside,
crossbar,
rightside,
rightside,
shiftdown,
rightside,
rightside,
rightside,
rightside,
rightside,
rightside,
rightside,
rightside,
rightside,
rightside,
rightside,
rightside,
rightside,
rightside,
rightside,
rightside,
rightside,
rightside,
crossbar,
rightside,
rightside,
rightside,
rightside,
rightside,
rightside,
rightside,
rightside,
rightside,
rightside,
rightside,
rightside,
rightside,
rightside,
rightside,
rightside,
rightside,
rightside,
rightside
);
DkNGLrNVA4 = (
rightside,
crossbar,
rightside,
rightside,
rightside,
rightside,
rightside,
rightside,
rightside,
rightside,
rightside,
rightside,
rightside,
rightside,
rightside,
rightside,
rightside,
rightside,
rightside,
rightside,
rightside
);
HNKsGz9B03 = (
rightside,
crossbar,
rightside,
rightside,
shiftdown,
rightside,
rightside,
rightside,
rightside,
rightside,
rightside,
rightside,
rightside,
rightside,
rightside,
rightside,
rightside,
rightside,
rightside,
rightside,
rightside,
rightside,
rightside,
crossbar,
rightside,
rightside,
rightside,
rightside,
rightside,
rightside,
rightside,
rightside,
rightside,
rightside,
rightside,
rightside,
rightside,
rightside,
rightside,
rightside,
rightside,
rightside,
rightside
);
Mtb7ldvxRR = (
rightside,
rightside,
rightside,
rightside,
rightside,
rightside,
rightside,
rightside
);
PhwuN5iOza = (
rightside,
crossbar,
rightside,
rightside,
shiftdown,
rightside,
rightside,
rightside,
rightside,
rightside,
rightside,
rightside,
rightside,
rightside,
rightside,
rightside,
rightside,
rightside,
rightside,
rightside,
rightside,
rightside,
rightside,
crossbar,
rightside,
rightside,
rightside,
rightside,
rightside,
rightside,
rightside,
rightside,
rightside,
rightside,
rightside,
rightside,
rightside,
rightside,
rightside,
rightside,
rightside,
rightside,
rightside
);
gruPC0rm4E = (
rightside,
crossbar,
shiftstem,
rightside,
rightside,
shiftdown,
rightside,
rightside,
rightside,
rightside,
rightside,
rightside,
rightside,
rightside,
rightside,
rightside,
rightside,
rightside,
rightside,
rightside,
rightside,
rightside,
rightside,
rightside,
crossbar,
rightside,
rightside,
rightside,
rightside,
rightside,
rightside,
rightside,
rightside,
rightside,
rightside,
rightside,
rightside,
rightside,
rightside,
rightside,
rightside,
rightside,
rightside,
rightside,
rightside,
crossbar,
rightside,
rightside,
shiftdown,
rightside,
rightside,
rightside,
rightside,
rightside,
rightside,
rightside,
rightside,
rightside,
rightside,
rightside,
rightside,
rightside,
rightside,
rightside,
rightside,
rightside,
rightside,
crossbar,
rightside,
rightside,
rightside,
rightside,
rightside,
rightside,
rightside,
rightside,
rightside,
rightside,
rightside,
rightside,
rightside,
rightside,
rightside,
rightside,
rightside,
rightside,
rightside,
leftside,
leftside,
leftside,
rightside,
crossbar,
rightside,
rightside,
shiftdown,
rightside,
rightside,
rightside,
rightside,
rightside,
rightside,
rightside,
rightside,
rightside,
rightside,
rightside,
rightside,
rightside,
rightside,
rightside,
rightside,
rightside,
rightside,
crossbar,
rightside,
rightside,
rightside,
rightside,
rightside,
rightside,
rightside,
rightside,
rightside,
rightside,
rightside,
rightside,
rightside,
rightside,
rightside,
rightside,
rightside,
rightside,
rightside
);
gyWZd1V7bg = (
rightside,
rightside,
rightside,
rightside,
rightside,
rightside,
rightside,
rightside
);
oP4AYTo8BD = (
rightside,
rightside,
rightside,
rightside,
rightside,
rightside,
rightside,
rightside
);
p5qGxSYyHQ = (
rightside,
crossbar,
shiftstem,
rightside,
rightside,
shiftdown,
rightside,
rightside,
rightside,
rightside,
rightside,
rightside,
rightside,
rightside,
rightside,
rightside,
rightside,
rightside,
rightside,
rightside,
rightside,
rightside,
rightside,
rightside,
crossbar,
rightside,
rightside,
rightside,
rightside,
rightside,
rightside,
rightside,
rightside,
rightside,
rightside,
rightside,
rightside,
rightside,
rightside,
rightside,
rightside,
rightside,
rightside,
rightside,
rightside,
crossbar,
rightside,
rightside,
shiftdown,
rightside,
rightside,
rightside,
rightside,
rightside,
rightside,
rightside,
rightside,
rightside,
rightside,
rightside,
rightside,
rightside,
rightside,
rightside,
rightside,
rightside,
rightside,
crossbar,
rightside,
rightside,
rightside,
rightside,
rightside,
rightside,
rightside,
rightside,
rightside,
rightside,
rightside,
rightside,
rightside,
rightside,
rightside,
rightside,
rightside,
rightside,
rightside,
leftside,
leftside,
leftside,
rightside,
crossbar,
rightside,
rightside,
shiftdown,
rightside,
rightside,
rightside,
rightside,
rightside,
rightside,
rightside,
rightside,
rightside,
rightside,
rightside,
rightside,
rightside,
rightside,
rightside,
rightside,
rightside,
rightside,
crossbar,
rightside,
rightside,
rightside,
rightside,
rightside,
rightside,
rightside,
rightside,
rightside,
rightside,
rightside,
rightside,
rightside,
rightside,
rightside,
rightside,
rightside,
rightside,
rightside
);
q5MpLm6pYB = (
rightside,
crossbar,
shiftstem,
rightside,
rightside,
shiftdown,
rightside,
rightside,
rightside,
rightside,
rightside,
rightside,
rightside,
rightside,
rightside,
rightside,
rightside,
rightside,
rightside,
rightside,
rightside,
rightside,
rightside,
rightside,
crossbar,
rightside,
rightside,
rightside,
rightside,
rightside,
rightside,
rightside,
rightside,
rightside,
rightside,
rightside,
rightside,
rightside,
rightside,
rightside,
rightside,
rightside,
rightside,
rightside,
rightside,
crossbar,
rightside,
rightside,
shiftdown,
rightside,
rightside,
rightside,
rightside,
rightside,
rightside,
rightside,
rightside,
rightside,
rightside,
rightside,
rightside,
rightside,
rightside,
rightside,
rightside,
rightside,
rightside,
crossbar,
rightside,
rightside,
rightside,
rightside,
rightside,
rightside,
rightside,
rightside,
rightside,
rightside,
rightside,
rightside,
rightside,
rightside,
rightside,
rightside,
rightside,
rightside,
rightside,
leftside,
leftside,
leftside,
rightside,
crossbar,
rightside,
rightside,
shiftdown,
rightside,
rightside,
rightside,
rightside,
rightside,
rightside,
rightside,
rightside,
rightside,
rightside,
rightside,
rightside,
rightside,
rightside,
rightside,
rightside,
rightside,
rightside,
crossbar,
rightside,
rightside,
rightside,
rightside,
rightside,
rightside,
rightside,
rightside,
rightside,
rightside,
rightside,
rightside,
rightside,
rightside,
rightside,
rightside,
rightside,
rightside,
rightside
);
sayqGOMtzs = (
rightside,
crossbar,
shiftstem,
rightside,
rightside,
shiftdown,
rightside,
rightside,
rightside,
rightside,
rightside,
rightside,
rightside,
rightside,
rightside,
rightside,
rightside,
rightside,
rightside,
rightside,
rightside,
rightside,
rightside,
rightside,
crossbar,
rightside,
rightside,
rightside,
rightside,
rightside,
rightside,
rightside,
rightside,
rightside,
rightside,
rightside,
rightside,
rightside,
rightside,
rightside,
rightside,
rightside,
rightside,
rightside,
rightside,
crossbar,
rightside,
rightside,
shiftdown,
rightside,
rightside,
rightside,
rightside,
rightside,
rightside,
rightside,
rightside,
rightside,
rightside,
rightside,
rightside,
rightside,
rightside,
rightside,
rightside,
rightside,
rightside,
crossbar,
rightside,
rightside,
rightside,
rightside,
rightside,
rightside,
rightside,
rightside,
rightside,
rightside,
rightside,
rightside,
rightside,
rightside,
rightside,
rightside,
rightside,
rightside,
rightside,
leftside,
leftside,
leftside,
rightside,
crossbar,
rightside,
rightside,
shiftdown,
rightside,
rightside,
rightside,
rightside,
rightside,
rightside,
rightside,
rightside,
rightside,
rightside,
rightside,
rightside,
rightside,
rightside,
rightside,
rightside,
rightside,
rightside,
crossbar,
rightside,
rightside,
rightside,
rightside,
rightside,
rightside,
rightside,
rightside,
rightside,
rightside,
rightside,
rightside,
rightside,
rightside,
rightside,
rightside,
rightside,
rightside,
rightside
);
};
};
width = 153;
},
{
layerId = "628C7BDB-7DBE-4EE3-879C-693AF95326D4";
paths = (
{
closed = 1;
nodes = (
"805 0 LINE",
"805 401 LINE",
"411 401 LINE",
"411 284 LINE",
"466 284 LINE",
"466 97 LINE",
"365 97 LINE",
"365 579 LINE",
"394 653 LINE",
"462 653 LINE",
"462 492 LINE",
"801 492 LINE",
"801 750 LINE",
"89 750 LINE",
"26 587 LINE",
"26 0 LINE"
);
}
);
width = 831;
}
);
unicode = 0047;
},
{
glyphname = H;
lastChange = "2019-09-07 06:29:20 +0000";
layers = (
{
layerId = "41E2CF60-9A62-485C-A680-66BBCCBE3685";
paths = (
{
closed = 1;
nodes = (
"519 0 LINE",
"519 448 LINE",
"1407 448 LINE",
"1407 0 LINE",
"1846 0 LINE",
"1846 750 LINE",
"1407 750 LINE",
"1407 288 LINE",
"519 288 LINE",
"519 750 LINE",
"79 750 LINE",
"79 0 LINE"
);
}
);
width = 1895;
},
{
layerId = "C9BA7AB2-4C39-4898-B0E1-23BE521DA8C1";
paths = (
{
closed = 1;
nodes = (
"87 0 LINE",
"87 369 LINE",
"1143 369 LINE",
"1143 0 LINE",
"1184 0 LINE",
"1184 750 LINE",
"1143 750 LINE",
"1143 404 LINE",
"87 404 LINE",
"87 750 LINE",
"46 750 LINE",
"46 0 LINE"
);
}
);
width = 1230;
},
{
layerId = "1577B97C-DCC5-4AA4-842F-E9BB22E99E3C";
paths = (
{
closed = 1;
nodes = (
"51 0 LINE",
"51 364 LINE",
"108 364 LINE",
"108 0 LINE",
"139 0 LINE",
"139 750 LINE",
"108 750 LINE",
"108 386 LINE",
"51 386 LINE",
"51 750 LINE",
"20 750 LINE",
"20 0 LINE"
);
}
);
userData = {
com.schriftgestaltung.Glyphs.lastChange = "2019-04-28 05:35:59 +0000";
com.typemytype.robofont.pointLabels = {
7JgTtdb0jg = (
crossbar,
crossbar,
shiftdown
);
8OglXgblhr = (
rightside
);
MTAeavIVWY = (
crossbar
);
QjywsYY2yB = (
leftside,
crossbar,
shiftstem,
crossbar,
shiftdown,
crossbar,
leftside
);
UPaHY3UudR = (
leftside,
crossbar,
shiftstem,
crossbar,
shiftdown,
crossbar,
leftside
);
WUaPOcaxKT = (
leftside,
crossbar,
shiftstem,
crossbar,
shiftdown,
crossbar,
leftside
);
ZnCDQVdtyD = (
leftside,
crossbar,
shiftstem,
crossbar,
shiftdown,
crossbar,
leftside
);
lggLiivmLt = (
leftside,
crossbar,
shiftstem,
crossbar,
shiftdown,
crossbar,
leftside
);
oOtn61SmRY = (
rightside
);
uqAJBjDIOT = (
leftside,
crossbar,
shiftstem,
crossbar,
shiftdown,
crossbar,
leftside
);
};
};
width = 159;
},
{
layerId = "628C7BDB-7DBE-4EE3-879C-693AF95326D4";
paths = (
{
closed = 1;
nodes = (
"370 0 LINE",
"370 439 LINE",
"459 439 LINE",
"459 0 LINE",
"798 0 LINE",
"798 750 LINE",
"459 750 LINE",
"459 295 LINE",
"370 295 LINE",
"370 750 LINE",
"31 750 LINE",
"31 0 LINE"
);
}
);
width = 829;
}
);
unicode = 0048;
},
{
glyphname = I;
lastChange = "2019-09-07 06:40:26 +0000";
layers = (
{
layerId = "41E2CF60-9A62-485C-A680-66BBCCBE3685";
paths = (
{
closed = 1;
nodes = (
"506 0 LINE",
"506 750 LINE",
"66 750 LINE",
"66 0 LINE"
);
}
);
width = 572;
},
{
layerId = "C9BA7AB2-4C39-4898-B0E1-23BE521DA8C1";
paths = (
{
closed = 1;
nodes = (
"62 0 LINE",
"62 750 LINE",
"21 750 LINE",
"21 0 LINE"
);
}
);
width = 83;
},
{
layerId = "1577B97C-DCC5-4AA4-842F-E9BB22E99E3C";
paths = (
{
closed = 1;
nodes = (
"51 0 LINE",
"51 750 LINE",
"20 750 LINE",
"20 0 LINE"
);
}
);
userData = {
com.schriftgestaltung.Glyphs.lastChange = "2019-04-28 05:35:59 +0000";
com.typemytype.robofont.pointLabels = {
G11nOl1a96 = (
ri
);
LJaww9hqQY = (
leftside
);
jRE4QRN7r7 = (
ri
);
rhZOX8XKiW = (
leftside
);
};
};
width = 71;
},
{
layerId = "628C7BDB-7DBE-4EE3-879C-693AF95326D4";
paths = (
{
closed = 1;
nodes = (
"375 0 LINE",
"375 750 LINE",
"36 750 LINE",
"36 0 LINE"
);
}
);
width = 411;
}
);
unicode = 0049;
},
{
glyphname = J;
lastChange = "2019-09-07 14:15:34 +0000";
layers = (
{
layerId = "41E2CF60-9A62-485C-A680-66BBCCBE3685";
paths = (
{
closed = 1;
nodes = (
"1729 0 LINE",
"1729 750 LINE",
"111 750 LINE",
"111 594 LINE",
"1289 594 LINE",
"1289 156 LINE",
"581 156 LINE",
"486 379 LINE",
"36 379 LINE",
"211 0 LINE"
);
}
);
width = 1793;
},
{
layerId = "C9BA7AB2-4C39-4898-B0E1-23BE521DA8C1";
paths = (
{
closed = 1;
nodes = (
"1172 0 LINE",
"1172 750 LINE",
"51 750 LINE",
"51 718 LINE",
"1130 718 LINE",
"1130 32 LINE",
"106 32 LINE",
"70 275 LINE",
"28 275 LINE",
"71 0 LINE"
);
}
);
width = 1219;
},
{
layerId = "1577B97C-DCC5-4AA4-842F-E9BB22E99E3C";
paths = (
{
closed = 1;
nodes = (
"125 0 LINE",
"125 750 LINE",
"17 750 LINE",
"17 728 LINE",
"94 728 LINE",
"94 22 LINE",
"62 22 LINE",
"34 157 LINE",
"3 157 LINE",
"37 0 LINE"
);
}
);
userData = {
com.schriftgestaltung.Glyphs.lastChange = "2019-04-28 12:46:30 +0000";
com.typemytype.robofont.pointLabels = {
46RrD1WET2 = (
rightside,
rightside,
shiftstem,
leftside,
rightside,
rightside,
shiftdown,
shiftstem
);
7exNZv1XSc = (
leftside
);
AdYfGKx8QJ = (
rightside,
rightside,
shiftstem,
leftside,
rightside,
rightside,
shiftdown,
shiftstem
);
NQmE31PUns = (
rightside,
rightside,
shiftstem,
leftside,
rightside,
rightside,
shiftdown,
shiftstem
);
TbrXnCyMEi = (
leftside
);
d5Di3vNzni = (
rightside,
rightside,
shiftstem
);
jiO9eX9U07 = (
leftside
);
wgpFs1yguc = (
rightside,
rightside,
shiftstem
);
zFXsE8BUYG = (
rightside,
rightside,
shiftstem,
leftside,
rightside,
rightside,
shiftdown,
shiftstem
);
};
};
width = 145;
},
{
layerId = "628C7BDB-7DBE-4EE3-879C-693AF95326D4";
paths = (
{
closed = 1;
nodes = (
"778 0 LINE",
"778 750 LINE",
"34 750 LINE",
"34 653 LINE",
"439 653 LINE",
"439 97 LINE",
"397 97 LINE",
"359 317 LINE",
"18 317 LINE",
"80 0 LINE"
);
}
);
width = 809;
}
);
unicode = 004A;
},
{
glyphname = K;
lastChange = "2019-09-07 14:17:05 +0000";
layers = (
{
layerId = "41E2CF60-9A62-485C-A680-66BBCCBE3685";
paths = (
{
closed = 1;
nodes = (
"504 0 LINE",
"504 293 LINE",
"1201 295 LINE",
"1394 249 LINE",
"1394 0 LINE",
"1834 0 LINE",
"1834 314 LINE",
"1405 372 LINE",
"1405 400 LINE",
"1809 492 LINE",
"1809 750 LINE",
"1369 750 LINE",
"1369 518 LINE",
"1189 462 LINE",
"504 462 LINE",
"504 750 LINE",
"64 750 LINE",
"64 0 LINE"
);
}
);
width = 1865;
},
{
layerId = "C9BA7AB2-4C39-4898-B0E1-23BE521DA8C1";
paths = (
{
closed = 1;
nodes = (
"89 0 LINE",
"89 363 LINE",
"761 365 LINE",
"1146 293 LINE",
"1146 0 LINE",
"1188 0 LINE",
"1188 314 LINE",
"812 382 LINE",
"812 383 LINE",
"1172 460 LINE",
"1172 750 LINE",
"1131 750 LINE",
"1131 478 LINE",
"761 395 LINE",
"89 395 LINE",
"89 750 LINE",
"47 750 LINE",
"47 0 LINE"
);
}
);
width = 1231;
},
{
layerId = "1577B97C-DCC5-4AA4-842F-E9BB22E99E3C";
paths = (
{
closed = 1;
nodes = (
"51 0 LINE",
"51 367 LINE",
"61 375 LINE",
"110 318 LINE",
"110 0 LINE",
"141 0 LINE",
"141 325 LINE",
"77 399 LINE",
"77 388 LINE",
"134 432 LINE",
"134 750 LINE",
"103 750 LINE",
"103 442 LINE",
"55 401 LINE",
"51 401 LINE",
"51 750 LINE",
"20 750 LINE",
"20 0 LINE"
);
}
);
userData = {
com.schriftgestaltung.Glyphs.lastChange = "2019-04-28 05:35:59 +0000";
com.typemytype.robofont.pointLabels = {
0mqLpz5vAU = (
leftside,
rightside,
shiftdown,
rightside,
crossbar,
shiftstem,
rightside,
rightside,
crossbar,
rightside,
rightside,
crossbar,
leftside
);
8uJIZj54GB = (
rightside,
rightside,
crossbar
);
AJFybwtISS = (
leftside,
rightside,
shiftdown,
rightside,
crossbar,
shiftstem,
rightside,
rightside,
crossbar,
rightside,
rightside,
crossbar,
leftside
);
I87sAwdtGu = (
leftside,
rightside,
shiftdown,
rightside,
crossbar,
shiftstem,
rightside,
rightside,
crossbar,
rightside,
rightside,
crossbar,
leftside
);
RNULHVAYqp = (
rightside
);
UTjU3L1PPB = (
leftside,
rightside,
shiftdown,
rightside,
crossbar,
shiftstem,
rightside,
rightside,
crossbar,
rightside,
rightside,
crossbar,
leftside
);
e8AHcRxH3I = (
rightside,
rightside,
crossbar
);
eNRdyfM1oC = (
rightside
);
nN62QTbZwT = (
rightside,
shiftdown,
rightside,
crossbar,
rightside,
rightside,
crossbar
);
nj0bO2yqxJ = (
rightside,
rightside,
crossbar
);
qeJQMGx6zx = (
rightside,
rightside,
crossbar
);
tRv54mralF = (
leftside,
rightside,
shiftdown,
rightside,
crossbar,
shiftstem,
rightside,
rightside,
crossbar,
rightside,
rightside,
crossbar,
leftside
);
up9uIbzma1 = (
rightside,
rightside,
crossbar
);
xRsK7LwvCP = (
rightside,
shiftdown,
rightside,
crossbar,
rightside,
rightside,
crossbar
);
xj8qIf4v8s = (
leftside,
rightside,
shiftdown,
rightside,
crossbar,
shiftstem,
rightside,
rightside,
crossbar,
rightside,
rightside,
crossbar,
leftside
);
};
};
width = 157;
},
{
layerId = "628C7BDB-7DBE-4EE3-879C-693AF95326D4";
paths = (
{
closed = 1;
nodes = (
"370 0 LINE",
"370 332 LINE",
"414 340 LINE",
"461 327 LINE",
"461 0 LINE",
"800 0 LINE",
"800 319 LINE",
"581 387 LINE",
"581 402 LINE",
"793 451 LINE",
"793 750 LINE",
"454 750 LINE",
"454 446 LINE",
"409 425 LINE",
"370 425 LINE",
"370 750 LINE",
"31 750 LINE",
"31 0 LINE"
);
}
);
width = 821;
}
);
unicode = 004B;
},
{
glyphname = L;
lastChange = "2019-09-07 14:17:22 +0000";
layers = (
{
layerId = "41E2CF60-9A62-485C-A680-66BBCCBE3685";
paths = (
{
closed = 1;
nodes = (
"1698 0 LINE",
"1698 358 LINE",
"1258 358 LINE",
"1258 156 LINE",
"563 156 LINE",
"563 750 LINE",
"123 750 LINE",
"123 0 LINE"
);
}
);
width = 1718;
},
{
layerId = "C9BA7AB2-4C39-4898-B0E1-23BE521DA8C1";
paths = (
{
closed = 1;
nodes = (
"1163 0 LINE",
"1163 267 LINE",
"1122 267 LINE",
"1122 32 LINE",
"89 32 LINE",
"89 750 LINE",
"47 750 LINE",
"47 0 LINE"
);
}
);
width = 1216;
},
{
layerId = "1577B97C-DCC5-4AA4-842F-E9BB22E99E3C";
paths = (
{
closed = 1;
nodes = (
"127 0 LINE",
"127 184 LINE",
"96 184 LINE",
"96 22 LINE",
"51 22 LINE",
"51 750 LINE",
"20 750 LINE",
"20 0 LINE"
);
}
);
userData = {
com.schriftgestaltung.Glyphs.lastChange = "2019-04-28 11:50:14 +0000";
com.typemytype.robofont.pointLabels = {
82EXZEgt46 = (
rightside
);
FWtbMMY8Ck = (
rightside
);
MbxRZRd8vz = (
leftside,
shiftdown,
leftside,
shiftstem
);
VYRt9kHZtP = (
rightside
);
XFf4mMUzYo = (
leftside,
shiftdown,
leftside,
shiftstem
);
XkJNfQlnnt = (
leftside,
shiftdown,
leftside,
shiftstem
);
cqpSxwFiM3 = (
shiftdown
);
lYiaKSKITt = (
leftside,
shiftdown,
leftside,
shiftstem
);
scG1IXtWvJ = (
rightside
);
};
};
width = 142;
},
{
layerId = "628C7BDB-7DBE-4EE3-879C-693AF95326D4";
paths = (
{
closed = 1;
nodes = (
"781 0 LINE",
"781 289 LINE",
"442 289 LINE",
"442 97 LINE",
"370 97 LINE",
"370 750 LINE",
"31 750 LINE",
"31 0 LINE"
);
}
);
width = 804;
}
);
unicode = 004C;
},
{
glyphname = M;
lastChange = "2019-09-07 14:18:15 +0000";
layers = (
{
layerId = "41E2CF60-9A62-485C-A680-66BBCCBE3685";
paths = (
{
closed = 1;
nodes = (
"504 0 LINE",
"504 583 LINE",
"549 583 LINE",
"789 96 LINE",
"1319 96 LINE",
"1556 584 LINE",
"1601 584 LINE",
"1601 0 LINE",
"2041 0 LINE",
"2041 750 LINE",
"1266 750 LINE",
"1067 272 LINE",
"1038 272 LINE",
"839 750 LINE",
"64 750 LINE",
"64 0 LINE"
);
}
);
width = 2105;
},
{
layerId = "C9BA7AB2-4C39-4898-B0E1-23BE521DA8C1";
paths = (
{
closed = 1;
nodes = (
"87 0 LINE",
"87 718 LINE",
"101 718 LINE",
"638 103 LINE",
"683 103 LINE",
"1217 719 LINE",
"1234 719 LINE",
"1234 0 LINE",
"1275 0 LINE",
"1275 750 LINE",
"1185 750 LINE",
"663 142 LINE",
"657 142 LINE",
"135 750 LINE",
"46 750 LINE",
"46 0 LINE"
);
}
);
width = 1321;
},
{
layerId = "1577B97C-DCC5-4AA4-842F-E9BB22E99E3C";
paths = (
{
closed = 1;
nodes = (
"51 0 LINE",
"51 728 LINE",
"64 728 LINE",
"93 110 LINE",
"153 110 LINE",
"181 729 LINE",
"197 729 LINE",
"197 0 LINE",
"228 0 LINE",
"228 750 LINE",
"151 750 LINE",
"126 132 LINE",
"120 132 LINE",
"94 750 LINE",
"20 750 LINE",
"20 0 LINE"
);
}
);
userData = {
com.schriftgestaltung.Glyphs.lastChange = "2019-04-28 05:35:59 +0000";
com.typemytype.robofont.pointLabels = {
0IVF7y8NCN = (
leftside,
leftside,
rightside,
rightside,
shiftstem,
leftside,
shiftdown,
leftside,
rightside,
rightside,
shiftstem,
leftside,
leftside,
rightside,
rightside,
shiftstem,
leftside,
leftside,
rightside,
rightside,
shiftstem
);
4t8tj5JGI4 = (
leftside,
leftside,
rightside,
rightside,
shiftstem
);
5TFRebmDRK = (
leftside,
leftside,
rightside,
rightside,
shiftstem
);
GaMk5bB7DR = (
leftside,
leftside,
rightside,
rightside,
shiftstem,
leftside,
shiftdown,
leftside,
rightside,
rightside,
shiftstem,
leftside,
leftside,
rightside,
rightside,
shiftstem,
leftside,
leftside,
rightside,
rightside,
shiftstem
);
N3Yjzxbj88 = (
leftside,
leftside,
rightside,
rightside,
shiftstem,
leftside,
shiftdown,
leftside,
rightside,
rightside,
shiftstem,
leftside,
leftside,
rightside,
rightside,
shiftstem,
leftside,
leftside,
rightside,
rightside,
shiftstem
);
O3YubNnacO = (
leftside,
leftside,
rightside,
rightside,
shiftstem
);
cR3kL9Ehcu = (
leftside,
leftside,
rightside,
rightside,
shiftstem,
leftside,
shiftdown,
leftside,
rightside,
rightside,
shiftstem,
leftside,
leftside,
rightside,
rightside,
shiftstem,
leftside,
leftside,
rightside,
rightside,
shiftstem
);
ceFvMk9BBo = (
leftside,
leftside,
rightside,
rightside,
shiftstem
);
czpj5jP2o1 = (
leftside,
leftside,
rightside,
rightside,
shiftstem
);
fB69TbcHQR = (
leftside,
leftside,
rightside,
rightside,
shiftstem,
leftside,
shiftdown,
leftside,
rightside,
rightside,
shiftstem,
leftside,
leftside,
rightside,
rightside,
shiftstem,
leftside,
leftside,
rightside,
rightside,
shiftstem
);
hvBQuBUzS5 = (
leftside,
leftside,
rightside,
rightside,
shiftstem
);
l3jugDCgZp = (
leftside,
leftside,
rightside,
rightside,
shiftstem
);
q5rffo9NOb = (
leftside,
leftside,
rightside,
rightside,
shiftstem,
leftside,
shiftdown,
leftside,
rightside,
rightside,
shiftstem,
leftside,
leftside,
rightside,
rightside,
shiftstem,
leftside,
leftside,
rightside,
rightside,
shiftstem
);
rc1RBgs7MK = (
leftside,
leftside,
rightside,
rightside,
shiftstem
);
rfY4yi4WM7 = (
leftside,
leftside,
rightside,
rightside,
shiftstem
);
s8LitYzs32 = (
leftside,
leftside,
rightside,
rightside,
shiftstem
);
};
};
width = 248;
},
{
layerId = "628C7BDB-7DBE-4EE3-879C-693AF95326D4";
paths = (
{
closed = 1;
nodes = (
"350 0 LINE",
"350 619 LINE",
"370 619 LINE",
"444 45 LINE",
"775 45 LINE",
"856 620 LINE",
"878 620 LINE",
"878 0 LINE",
"1207 0 LINE",
"1207 750 LINE",
"686 750 LINE",
"628 160 LINE",
"610 160 LINE",
"551 750 LINE",
"31 750 LINE",
"31 0 LINE"
);
}
);
width = 1238;
}
);
unicode = 004D;
},
{
glyphname = N;
lastChange = "2019-09-07 14:23:10 +0000";
layers = (
{
layerId = "41E2CF60-9A62-485C-A680-66BBCCBE3685";
paths = (
{
closed = 1;
nodes = (
"504 0 LINE",
"504 588 LINE",
"484 588 LINE",
"1282 0 LINE",
"1928 0 LINE",
"1928 750 LINE",
"1488 750 LINE",
"1488 163 LINE",
"1509 163 LINE",
"703 750 LINE",
"64 750 LINE",
"64 0 LINE"
);
}
);
width = 1992;
},
{
layerId = "C9BA7AB2-4C39-4898-B0E1-23BE521DA8C1";
paths = (
{
closed = 1;
nodes = (
"87 0 LINE",
"87 718 LINE",
"113 718 LINE",
"1124 0 LINE",
"1218 0 LINE",
"1218 750 LINE",
"1177 750 LINE",
"1177 34 LINE",
"1151 34 LINE",
"139 750 LINE",
"45 750 LINE",
"45 0 LINE"
);
}
);
width = 1267;
},
{
layerId = "1577B97C-DCC5-4AA4-842F-E9BB22E99E3C";
paths = (
{
closed = 1;
nodes = (
"51 0 LINE",
"51 728 LINE",
"62 728 LINE",
"106 0 LINE",
"172 0 LINE",
"172 750 LINE",
"141 750 LINE",
"141 24 LINE",
"133 24 LINE",
"88 750 LINE",
"20 750 LINE",
"20 0 LINE"
);
}
);
userData = {
com.schriftgestaltung.Glyphs.lastChange = "2019-04-28 05:35:59 +0000";
com.typemytype.robofont.pointLabels = {
1omi5wQQzW = (
shiftstem
);
7wBal5jvPQ = (
shiftstem,
shiftstem,
shiftdown
);
DYg9JHyygg = (
shiftstem,
shiftstem,
shiftdown
);
HgG4gyE7AV = (
shiftstem,
shiftstem,
shiftdown
);
Icsrkoeq5r = (
leftside
);
MWbbTwGkbG = (
leftside
);
Mm9MihPC9S = (
shiftstem,
shiftstem,
rightside
);
RZjfuiFaWd = (
shiftstem,
shiftstem,
shiftdown
);
ZsB4bFWMAS = (
shiftstem,
shiftstem,
rightside
);
j2qkgH7CJF = (
shiftstem
);
};
};
width = 192;
},
{
layerId = "628C7BDB-7DBE-4EE3-879C-693AF95326D4";
paths = (
{
closed = 1;
nodes = (
"328 0 LINE",
"328 599 LINE",
"336 599 LINE",
"414 0 LINE",
"925 0 LINE",
"925 750 LINE",
"636 750 LINE",
"636 178 LINE",
"625 178 LINE",
"553 750 LINE",
"31 750 LINE",
"31 0 LINE"
);
}
);
width = 956;
}
);
unicode = 004E;
},
{
glyphname = O;
lastChange = "2019-09-07 06:29:46 +0000";
layers = (
{
layerId = "41E2CF60-9A62-485C-A680-66BBCCBE3685";
paths = (
{
closed = 1;
nodes = (
"1627 0 LINE",
"1851 238 LINE",
"1851 750 LINE",
"306 750 LINE",
"75 501 LINE",
"75 0 LINE"
);
},
{
closed = 1;
nodes = (
"515 386 LINE",
"706 594 LINE",
"1411 594 LINE",
"1411 355 LINE",
"1217 156 LINE",
"515 156 LINE"
);
}
);
width = 1921;
},
{
layerId = "C9BA7AB2-4C39-4898-B0E1-23BE521DA8C1";
paths = (
{
closed = 1;
nodes = (
"1064 0 LINE",
"1187 152 LINE",
"1187 750 LINE",
"169 750 LINE",
"46 596 LINE",
"46 0 LINE"
);
},
{
closed = 1;
nodes = (
"87 584 LINE",
"196 718 LINE",
"1146 718 LINE",
"1146 166 LINE",
"1036 32 LINE",
"87 32 LINE"
);
}
);
width = 1233;
},
{
layerId = "1577B97C-DCC5-4AA4-842F-E9BB22E99E3C";
paths = (
{
closed = 1;
nodes = (
"111 0 LINE",
"142 62 LINE",
"142 750 LINE",
"51 750 LINE",
"20 688 LINE",
"20 0 LINE"
);
},
{
closed = 1;
nodes = (
"51 684 LINE",
"73 728 LINE",
"111 728 LINE",
"111 66 LINE",
"89 22 LINE",
"51 22 LINE"
);
}
);
userData = {
com.schriftgestaltung.Glyphs.lastChange = "2019-08-12 16:07:16 +0000";
com.typemytype.robofont.pointLabels = {
SnrsQD5TLy = (
rightside,
rightside,
rightside,
shiftstem,
leftside,
leftside,
shiftstem,
leftside,
leftside,
shiftdown,
leftside,
shiftstem,
leftside,
leftside,
leftside,
shiftstem,
leftside,
leftside,
leftside,
shiftstem,
leftside,
leftside,
shiftdown,
leftside,
shiftstem,
leftside,
leftside,
leftside,
shiftstem,
leftside,
leftside,
leftside,
shiftstem,
leftside,
leftside,
shiftdown,
leftside,
shiftstem,
leftside,
leftside,
leftside,
shiftstem,
leftside
);
U6WibAQAUl = (
leftside,
leftside,
leftside
);
YbQKHpAtYn = (
shiftstem,
shiftdown,
shiftstem,
leftside,
leftside,
leftside,
shiftstem,
leftside,
leftside,
leftside,
shiftstem,
leftside,
leftside,
shiftdown,
leftside,
shiftstem,
leftside,
leftside,
leftside,
shiftstem,
leftside
);
a4Ql951bxG = (
leftside,
leftside,
leftside
);
c9brEFyXXA = (
rightside,
rightside,
rightside,
shiftstem,
leftside,
leftside,
shiftstem,
leftside,
leftside,
shiftdown,
leftside,
shiftstem,
leftside,
leftside,
leftside,
shiftstem,
leftside,
leftside,
leftside,
shiftstem,
leftside,
leftside,
shiftdown,
leftside,
shiftstem,
leftside,
leftside,
leftside,
shiftstem,
leftside,
leftside,
leftside,
shiftstem,
leftside,
leftside,
shiftdown,
leftside,
shiftstem,
leftside,
leftside,
leftside,
shiftstem,
leftside
);
dfgNHTgBfR = (
rightside,
rightside,
rightside,
shiftstem,
leftside,
leftside,
shiftstem,
leftside,
leftside,
shiftdown,
leftside,
shiftstem,
leftside,
leftside,
leftside,
shiftstem,
leftside,
leftside,
leftside,
shiftstem,
leftside,
leftside,
shiftdown,
leftside,
shiftstem,
leftside,
leftside,
leftside,
shiftstem,
leftside,
leftside,
leftside,
shiftstem,
leftside,
leftside,
shiftdown,
leftside,
shiftstem,
leftside,
leftside,
leftside,
shiftstem,
leftside
);
g70r2r6DwY = (
rightside,
rightside,
rightside,
shiftstem,
leftside,
leftside,
shiftstem,
leftside,
leftside,
shiftdown,
leftside,
shiftstem,
leftside,
leftside,
leftside,
shiftstem,
leftside,
leftside,
leftside,
shiftstem,
leftside,
leftside,
shiftdown,
leftside,
shiftstem,
leftside,
leftside,
leftside,
shiftstem,
leftside,
leftside,
leftside,
shiftstem,
leftside,
leftside,
shiftdown,
leftside,
shiftstem,
leftside,
leftside,
leftside,
shiftstem,
leftside
);
jjd5iRDXWT = (
rightside,
rightside,
rightside,
shiftstem,
leftside,
leftside,
shiftstem,
leftside,
leftside,
shiftdown,
leftside,
shiftstem,
leftside,
leftside,
leftside,
shiftstem,
leftside,
leftside,
leftside,
shiftstem,
leftside,
leftside,
shiftdown,
leftside,
shiftstem,
leftside,
leftside,
leftside,
shiftstem,
leftside,
leftside,
leftside,
shiftstem,
leftside,
leftside,
shiftdown,
leftside,
shiftstem,
leftside,
leftside,
leftside,
shiftstem,
leftside
);
kbL68Qh2zr = (
leftside,
leftside,
leftside
);
ob8US3C311 = (
rightside,
rightside,
rightside,
shiftstem,
leftside,
leftside,
shiftstem,
leftside,
leftside,
shiftdown,
leftside,
shiftstem,
leftside,
leftside,
leftside,
shiftstem,
leftside,
leftside,
leftside,
shiftstem,
leftside,
leftside,
shiftdown,
leftside,
shiftstem,
leftside,
leftside,
leftside,
shiftstem,
leftside,
leftside,
leftside,
shiftstem,
leftside,
leftside,
shiftdown,
leftside,
shiftstem,
leftside,
leftside,
leftside,
shiftstem,
leftside
);
qXlVxK5ShE = (
leftside,
leftside,
shiftstem,
leftside,
leftside,
shiftdown,
leftside,
shiftstem,
leftside,
leftside,
leftside,
shiftstem,
leftside
);
vdfGLkskOQ = (
shiftstem,
shiftdown,
shiftstem,
leftside,
leftside,
leftside,
shiftstem,
leftside,
leftside,
leftside,
shiftstem,
leftside,
leftside,
shiftdown,
leftside,
shiftstem,
leftside,
leftside,
leftside,
shiftstem,
leftside
);
};
};
width = 162;
},
{
layerId = "628C7BDB-7DBE-4EE3-879C-693AF95326D4";
paths = (
{
closed = 1;
nodes = (
"747 0 LINE",
"808 162 LINE",
"808 750 LINE",
"104 750 LINE",
"26 564 LINE",
"26 0 LINE"
);
},
{
closed = 1;
nodes = (
"365 485 LINE",
"419 653 LINE",
"469 653 LINE",
"469 241 LINE",
"414 97 LINE",
"365 97 LINE"
);
}
);
width = 834;
}
);
unicode = 004F;
},
{
glyphname = P;
lastChange = "2019-09-07 14:25:09 +0000";
layers = (
{
layerId = "41E2CF60-9A62-485C-A680-66BBCCBE3685";
paths = (
{
closed = 1;
nodes = (
"563 0 LINE",
"563 244 LINE",
"1836 338 LINE",
"1836 750 LINE",
"123 750 LINE",
"123 0 LINE"
);
},
{
closed = 1;
nodes = (
"563 594 LINE",
"1396 594 LINE",
"1396 426 LINE",
"563 382 LINE"
);
}
);
width = 1890;
},
{
layerId = "C9BA7AB2-4C39-4898-B0E1-23BE521DA8C1";
paths = (
{
closed = 1;
nodes = (
"89 0 LINE",
"89 325 LINE",
"1181 370 LINE",
"1181 750 LINE",
"47 750 LINE",
"47 0 LINE"
);
},
{
closed = 1;
nodes = (
"89 718 LINE",
"1139 718 LINE",
"1139 397 LINE",
"89 359 LINE"
);
}
);
width = 1196;
},
{
layerId = "1577B97C-DCC5-4AA4-842F-E9BB22E99E3C";
paths = (
{
closed = 1;
nodes = (
"51 0 LINE",
"51 331 LINE",
"134 372 LINE",
"134 750 LINE",
"20 750 LINE",
"20 0 LINE"
);
},
{
closed = 1;
nodes = (
"51 728 LINE",
"103 728 LINE",
"103 385 LINE",
"51 361 LINE"
);
}
);
userData = {
com.schriftgestaltung.Glyphs.lastChange = "2019-04-28 05:35:59 +0000";
com.typemytype.robofont.pointLabels = {
1WCnzth1GX = (
rightside,
rightside,
shiftstem,
shiftdown,
rightside,
shiftstem
);
2c4LCF1E1R = (
rightside,
rightside,
shiftstem,
shiftdown,
rightside,
shiftstem
);
6xW04auDFu = (
rightside,
rightside,
shiftstem
);
EG08jqU5fb = (
leftside
);
IZIZQr2gYJ = (
rightside,
rightside,
shiftstem,
shiftdown,
rightside,
shiftstem
);
PIBVN1PGv1 = (
rightside,
rightside,
shiftstem,
shiftdown,
rightside,
shiftstem
);
Tt6D8zYZmU = (
rightside,
rightside,
shiftstem
);
eETO5GBD5v = (
leftside
);
};
};
width = 147;
},
{
layerId = "628C7BDB-7DBE-4EE3-879C-693AF95326D4";
paths = (
{
closed = 1;
nodes = (
"370 0 LINE",
"370 288 LINE",
"793 348 LINE",
"793 750 LINE",
"31 750 LINE",
"31 0 LINE"
);
},
{
closed = 1;
nodes = (
"370 653 LINE",
"454 653 LINE",
"454 420 LINE",
"370 411 LINE"
);
}
);
width = 804;
}
);
unicode = 0050;
},
{
glyphname = Q;
lastChange = "2019-09-07 14:25:50 +0000";
layers = (
{
layerId = "41E2CF60-9A62-485C-A680-66BBCCBE3685";
paths = (
{
closed = 1;
nodes = (
"1829 0 LINE",
"1829 750 LINE",
"281 750 LINE",
"59 406 LINE",
"59 0 LINE"
);
},
{
closed = 1;
nodes = (
"1288 -213 LINE",
"1179 60 LINE",
"773 60 LINE",
"880 -213 LINE"
);
},
{
closed = 1;
nodes = (
"499 353 LINE",
"659 594 LINE",
"1390 594 LINE",
"1390 156 LINE",
"499 156 LINE"
);
}
);
width = 1893;
},
{
layerId = "C9BA7AB2-4C39-4898-B0E1-23BE521DA8C1";
paths = (
{
closed = 1;
nodes = (
"1671 0 LINE",
"1671 750 LINE",
"653 750 LINE",
"530 591 LINE",
"530 0 LINE"
);
},
{
closed = 1;
nodes = (
"1214 -180 LINE",
"1120 10 LINE",
"1083 10 LINE",
"1174 -180 LINE"
);
},
{
closed = 1;
nodes = (
"572 582 LINE",
"680 718 LINE",
"1630 718 LINE",
"1630 32 LINE",
"572 32 LINE"
);
}
);
width = 2201;
},
{
layerId = "1577B97C-DCC5-4AA4-842F-E9BB22E99E3C";
paths = (
{
closed = 1;
nodes = (
"142 0 LINE",
"142 750 LINE",
"51 750 LINE",
"20 688 LINE",
"20 0 LINE"
);
},
{
closed = 1;
nodes = (
"131 -111 LINE",
"96 10 LINE",
"68 10 LINE",
"100 -111 LINE"
);
},
{
closed = 1;
nodes = (
"51 684 LINE",
"73 728 LINE",
"111 728 LINE",
"111 22 LINE",
"51 22 LINE"
);
}
);
userData = {
com.schriftgestaltung.Glyphs.lastChange = "2019-04-28 05:35:59 +0000";
com.typemytype.robofont.pointLabels = {
2q9VlGka1x = (
rightside,
rightside,
shiftstem,
shiftdown,
shiftdown
);
8lRHbc76vf = (
shiftdown
);
QaOuzaR5Nc = (
shiftdown
);
U6WibAQAUl = (
leftside
);
a4Ql951bxG = (
leftside
);
b9GvAVdrlf = (
shiftdown
);
bEeLKF9K0J = (
rightside,
rightside,
shiftstem,
shiftdown,
shiftdown
);
c9brEFyXXA = (
rightside,
rightside,
shiftstem,
shiftdown,
shiftdown
);
dfgNHTgBfR = (
rightside,
rightside,
shiftstem,
shiftdown,
shiftdown
);
gOQWswYvKT = (
leftside
);
ivebcmARlA = (
leftside
);
kbL68Qh2zr = (
leftside
);
};
};
width = 162;
},
{
layerId = "628C7BDB-7DBE-4EE3-879C-693AF95326D4";
paths = (
{
closed = 1;
nodes = (
"798 0 LINE",
"798 750 LINE",
"91 750 LINE",
"28 545 LINE",
"28 0 LINE"
);
},
{
closed = 1;
nodes = (
"548 -138 LINE",
"504 10 LINE",
"320 10 LINE",
"362 -138 LINE"
);
},
{
closed = 1;
nodes = (
"367 467 LINE",
"403 653 LINE",
"459 653 LINE",
"459 117 LINE",
"367 117 LINE"
);
}
);
width = 829;
}
);
unicode = 0051;
},
{
glyphname = R;
lastChange = "2019-09-07 14:28:31 +0000";
layers = (
{
layerId = "41E2CF60-9A62-485C-A680-66BBCCBE3685";
paths = (
{
closed = 1;
nodes = (
"504 0 LINE",
"504 291 LINE",
"1160 293 LINE",
"1391 245 LINE",
"1391 0 LINE",
"1830 0 LINE",
"1830 300 LINE",
"1412 357 LINE",
"1412 371 LINE",
"1805 443 LINE",
"1805 750 LINE",
"64 750 LINE",
"64 0 LINE"
);
},
{
closed = 1;
nodes = (
"504 594 LINE",
"1366 594 LINE",
"1366 451 LINE",
"1192 417 LINE",
"504 417 LINE"
);
}
);
width = 1861;
},
{
layerId = "C9BA7AB2-4C39-4898-B0E1-23BE521DA8C1";
paths = (
{
closed = 1;
nodes = (
"86 0 LINE",
"86 362 LINE",
"897 362 LINE",
"1141 264 LINE",
"1141 0 LINE",
"1182 0 LINE",
"1182 282 LINE",
"936 375 LINE",
"936 379 LINE",
"1153 461 LINE",
"1153 750 LINE",
"45 750 LINE",
"45 0 LINE"
);
},
{
closed = 1;
nodes = (
"86 718 LINE",
"1112 718 LINE",
"1112 474 LINE",
"901 392 LINE",
"86 392 LINE"
);
}
);
width = 1228;
},
{
layerId = "1577B97C-DCC5-4AA4-842F-E9BB22E99E3C";
paths = (
{
closed = 1;
nodes = (
"51 0 LINE",
"51 363 LINE",
"59 367 LINE",
"107 317 LINE",
"107 0 LINE",
"137 0 LINE",
"136 325 LINE",
"83 376 LINE",
"83 380 LINE",
"134 401 LINE",
"134 750 LINE",
"20 750 LINE",
"20 0 LINE"
);
},
{
closed = 1;
nodes = (
"51 728 LINE",
"103 728 LINE",
"103 413 LINE",
"54 390 LINE",
"51 390 LINE"
);
}
);
userData = {
com.schriftgestaltung.Glyphs.lastChange = "2019-04-28 05:35:59 +0000";
com.typemytype.robofont.pointLabels = {
2AKhSOaavW = (
crossbar
);
7iGA9EjrJP = (
crossbar
);
9fBpwr0c5A = (
leftside,
crossbar,
leftside,
crossbar,
crossbar,
shiftstem,
shiftdown,
crossbar,
crossbar,
shiftdown
);
CHVOARGKU2 = (
leftside,
crossbar,
leftside,
crossbar,
crossbar,
shiftstem,
shiftdown,
crossbar,
crossbar,
shiftdown
);
FKSRxBbMyE = (
crossbar
);
JkNiARIXMp = (
crossbar,
crossbar,
shiftdown
);
V9Ywxgiq2G = (
crossbar,
crossbar,
rightside
);
gNqIOGc9HF = (
crossbar,
crossbar,
rightside
);
itimCqoufa = (
leftside,
crossbar,
leftside,
crossbar,
crossbar,
shiftstem,
shiftdown,
crossbar,
crossbar,
shiftdown
);
j4s86nnkOj = (
crossbar,
crossbar,
shiftdown
);
jqqb8BKfoQ = (
leftside,
crossbar,
leftside,
crossbar,
crossbar,
shiftstem,
shiftdown,
crossbar,
crossbar,
shiftdown
);
nPfCo47fuL = (
crossbar,
crossbar,
rightside
);
pOaU6sS7pE = (
leftside,
crossbar,
leftside,
crossbar,
crossbar,
shiftstem,
shiftdown,
crossbar,
crossbar,
shiftdown
);
s4rDE72DYf = (
leftside,
crossbar,
leftside,
crossbar,
crossbar,
shiftstem,
shiftdown,
crossbar,
crossbar,
shiftdown
);
xAUivuY8OU = (
crossbar,
crossbar,
rightside
);
};
};
width = 154;
},
{
layerId = "628C7BDB-7DBE-4EE3-879C-693AF95326D4";
paths = (
{
closed = 1;
nodes = (
"370 0 LINE",
"370 328 LINE",
"406 328 LINE",
"458 304 LINE",
"458 0 LINE",
"796 0 LINE",
"795 324 LINE",
"538 371 LINE",
"538 383 LINE",
"792 404 LINE",
"792 750 LINE",
"31 750 LINE",
"31 0 LINE"
);
},
{
closed = 1;
nodes = (
"370 653 LINE",
"453 653 LINE",
"453 430 LINE",
"409 414 LINE",
"370 414 LINE"
);
}
);
width = 819;
}
);
unicode = 0052;
},
{
glyphname = S;
lastChange = "2019-09-07 14:34:07 +0000";
layers = (
{
layerId = "41E2CF60-9A62-485C-A680-66BBCCBE3685";
paths = (
{
closed = 1;
nodes = (
"1552 0 LINE",
"1552 431 LINE",
"481 431 LINE",
"481 431 LINE",
"637 608 LINE",
"1095 608 LINE",
"1095 608 LINE",
"1535 608 LINE",
"1535 750 LINE",
"265 750 LINE",
"41 472 LINE",
"41 285 LINE",
"1112 285 LINE",
"1112 153 LINE",
"483 153 LINE",
"483 153 LINE",
"43 153 LINE",
"43 0 LINE"
);
}
);
width = 1592;
},
{
layerId = "C9BA7AB2-4C39-4898-B0E1-23BE521DA8C1";
paths = (
{
closed = 1;
nodes = (
"1157 0 LINE",
"1157 388 LINE",
"84 388 LINE",
"84 589 LINE",
"186 720 LINE",
"1114 720 LINE",
"1114 538 LINE",
"1156 538 LINE",
"1156 750 LINE",
"162 750 LINE",
"43 598 LINE",
"43 358 LINE",
"1115 358 LINE",
"1115 31 LINE",
"86 31 LINE",
"86 174 LINE",
"45 174 LINE",
"44.997 0 LINE"
);
}
);
width = 1200;
},
{
layerId = "1577B97C-DCC5-4AA4-842F-E9BB22E99E3C";
paths = (
{
closed = 1;
nodes = (
"129 0 LINE",
"129 386 LINE",
"48 386 LINE",
"48 685 LINE",
"69 728 LINE",
"98 728 LINE",
"98 557 LINE",
"129 557 LINE",
"129 750 LINE",
"47 750 LINE",
"17 686 LINE",
"17 364 LINE",
"98 364 LINE",
"98 22 LINE",
"50 22 LINE",
"50 157 LINE",
"19 157 LINE",
"19 0 LINE"
);
}
);
userData = {
com.schriftgestaltung.Glyphs.lastChange = "2019-04-28 05:35:59 +0000";
com.typemytype.robofont.pointLabels = {
09VlJ0BjUX = (
leftside,
leftside,
leftside,
leftside,
leftside,
shiftstem
);
3ZUkG35meB = (
leftside,
leftside,
leftside,
leftside,
shiftdown,
leftside,
shiftstem,
leftside,
leftside,
leftside,
leftside,
leftside,
shiftstem,
leftside,
leftside,
leftside,
leftside,
leftside,
shiftstem,
leftside,
leftside,
leftside,
leftside,
leftside,
shiftstem
);
3sQ8t8BZ6b = (
leftside,
leftside,
leftside,
leftside,
shiftdown,
leftside,
shiftstem,
leftside,
leftside,
leftside,
leftside,
leftside,
shiftstem,
leftside,
leftside,
leftside,
leftside,
leftside,
shiftstem,
leftside,
leftside,
leftside,
leftside,
leftside,
shiftstem
);
9KDcrfQ5Ui = (
rightside
);
9kdl9SYsn8 = (
leftside,
leftside,
leftside,
leftside,
shiftdown,
leftside,
shiftstem,
leftside,
leftside,
leftside,
leftside,
leftside,
shiftstem,
leftside,
leftside,
leftside,
leftside,
leftside,
shiftstem,
leftside,
leftside,
leftside,
leftside,
leftside,
shiftstem
);
At364YZFEy = (
leftside,
leftside,
leftside,
leftside,
leftside,
shiftstem
);
BcuLfvaQKC = (
leftside,
leftside,
leftside,
leftside,
shiftdown,
leftside,
shiftstem,
leftside,
leftside,
leftside,
leftside,
leftside,
shiftstem,
leftside,
leftside,
leftside,
leftside,
leftside,
shiftstem,
leftside,
leftside,
leftside,
leftside,
leftside,
shiftstem
);
EagWihqFM8 = (
rightside
);
F4sQEYelA8 = (
leftside,
leftside,
leftside,
leftside,
leftside,
shiftstem
);
KfNuQA7eZe = (
rightside
);
SaF9ojRFrW = (
rightside
);
WkcxKHKSWy = (
leftside,
leftside,
leftside,
leftside,
shiftdown,
leftside,
shiftstem,
leftside,
leftside,
leftside,
leftside,
leftside,
shiftstem,
leftside,
leftside,
leftside,
leftside,
leftside,
shiftstem,
leftside,
leftside,
leftside,
leftside,
leftside,
shiftstem
);
ho4DrS0rdW = (
leftside,
leftside,
leftside,
leftside,
leftside,
shiftstem
);
jYb9001DTm = (
leftside,
leftside,
leftside,
leftside,
leftside,
shiftstem
);
yQOPz5AOt8 = (
leftside,
leftside,
leftside,
leftside,
leftside,
shiftstem
);
yZDWuX8LLe = (
leftside,
leftside,
leftside,
leftside,
shiftdown,
leftside,
shiftstem,
leftside,
leftside,
leftside,
leftside,
leftside,
shiftstem,
leftside,
leftside,
leftside,
leftside,
leftside,
shiftstem,
leftside,
leftside,
leftside,
leftside,
leftside,
shiftstem
);
yiV6OCBLHg = (
leftside,
leftside,
leftside,
leftside,
shiftdown,
leftside,
shiftstem,
leftside,
leftside,
leftside,
leftside,
leftside,
shiftstem,
leftside,
leftside,
leftside,
leftside,
leftside,
shiftstem,
leftside,
leftside,
leftside,
leftside,
leftside,
shiftstem
);
};
};
width = 146;
},
{
layerId = "628C7BDB-7DBE-4EE3-879C-693AF95326D4";
paths = (
{
closed = 1;
nodes = (
"769 0 LINE",
"769 421 LINE",
"360 421 LINE",
"360 487 LINE",
"386 654 LINE",
"434 654 LINE",
"434 518 LINE",
"763 518 LINE",
"763 750 LINE",
"106 750 LINE",
"21 533 LINE",
"21 299 LINE",
"430 299 LINE",
"430 97 LINE",
"362 97 LINE",
"362 199 LINE",
"23 199 LINE",
"23 0 LINE"
);
}
);
width = 790;
}
);
unicode = 0053;
},
{
glyphname = T;
lastChange = "2019-09-07 14:29:58 +0000";
layers = (
{
layerId = "41E2CF60-9A62-485C-A680-66BBCCBE3685";
paths = (
{
closed = 1;
nodes = (
"1179 0 LINE",
"1179 603 LINE",
"1467 603 LINE",
"1467 377 LINE",
"1849 377 LINE",
"1849 750 LINE",
"70 750 LINE",
"70 377 LINE",
"451 377 LINE",
"451 603 LINE",
"739 603 LINE",
"739 0 LINE"
);
}
);
width = 1919;
},
{
layerId = "C9BA7AB2-4C39-4898-B0E1-23BE521DA8C1";
paths = (
{
closed = 1;
nodes = (
"659 0 LINE",
"659 719 LINE",
"1194 719 LINE",
"1194 518 LINE",
"1233 518 LINE",
"1233 750 LINE",
"43 750 LINE",
"43 518 LINE",
"82 518 LINE",
"82 719 LINE",
"618 719 LINE",
"618 0 LINE"
);
}
);
width = 1276;
},
{
layerId = "1577B97C-DCC5-4AA4-842F-E9BB22E99E3C";
paths = (
{
closed = 1;
nodes = (
"99 0 LINE",
"99 728 LINE",
"139 728 LINE",
"139 642 LINE",
"168 642 LINE",
"168 750 LINE",
"-2 750 LINE",
"-2 642 LINE",
"27 642 LINE",
"27 728 LINE",
"68 728 LINE",
"68 0 LINE"
);
}
);
userData = {
com.schriftgestaltung.Glyphs.lastChange = "2019-04-28 05:35:59 +0000";
com.typemytype.robofont.pointLabels = {
1xm0mHc9eh = (
rightside,
leftside,
leftside,
rightside,
shiftdown
);
8oS81nStJX = (
rightside,
leftside,
leftside,
shiftstem,
rightside,
shiftdown,
rightside,
rightside,
leftside,
leftside,
rightside,
shiftdown,
rightside,
leftside,
leftside,
rightside,
shiftdown,
rightside,
leftside,
rightside,
leftside,
leftside,
rightside,
shiftdown,
rightside,
leftside,
leftside,
rightside,
shiftdown,
rightside,
leftside,
leftside,
rightside,
shiftdown,
leftside
);
ABe8abv3LE = (
rightside,
leftside,
leftside,
shiftstem,
rightside,
shiftdown,
rightside,
rightside,
leftside,
leftside,
rightside,
shiftdown,
rightside,
leftside,
leftside,
rightside,
shiftdown,
rightside,
leftside,
rightside,
leftside,
leftside,
rightside,
shiftdown,
rightside,
leftside,
leftside,
rightside,
shiftdown,
rightside,
leftside,
leftside,
rightside,
shiftdown,
leftside
);
DJQ7u43twI = (
rightside,
leftside,
leftside,
shiftstem,
rightside,
shiftdown,
rightside,
rightside,
leftside,
leftside,
rightside,
shiftdown,
rightside,
leftside,
leftside,
rightside,
shiftdown,
rightside,
leftside,
rightside,
leftside,
leftside,
rightside,
shiftdown,
rightside,
leftside,
leftside,
rightside,
shiftdown,
rightside,
leftside,
leftside,
rightside,
shiftdown,
leftside
);
J3fH9EFg0z = (
rightside,
leftside,
leftside,
shiftstem,
rightside,
shiftdown,
rightside,
rightside,
leftside,
leftside,
rightside,
shiftdown,
rightside,
leftside,
leftside,
rightside,
shiftdown,
rightside,
leftside,
rightside,
leftside,
leftside,
rightside,
shiftdown,
rightside,
leftside,
leftside,
rightside,
shiftdown,
rightside,
leftside,
leftside,
rightside,
shiftdown,
leftside
);
KjT4D91qvu = (
rightside,
leftside,
leftside,
shiftstem,
rightside,
shiftdown,
rightside,
rightside,
leftside,
leftside,
rightside,
shiftdown,
rightside,
leftside,
leftside,
rightside,
shiftdown,
rightside,
leftside,
rightside,
leftside,
leftside,
rightside,
shiftdown,
rightside,
leftside,
leftside,
rightside,
shiftdown,
rightside,
leftside,
leftside,
rightside,
shiftdown,
leftside
);
PAcKW7vhev = (
rightside,
leftside,
leftside,
shiftstem,
rightside,
shiftdown,
rightside,
rightside,
leftside,
leftside,
rightside,
shiftdown,
rightside,
leftside,
leftside,
rightside,
shiftdown,
rightside,
leftside,
rightside,
leftside,
leftside,
rightside,
shiftdown,
rightside,
leftside,
leftside,
rightside,
shiftdown,
rightside,
leftside,
leftside,
rightside,
shiftdown,
leftside
);
asx7RUXZ8K = (
rightside,
leftside,
leftside,
shiftstem,
rightside,
shiftdown,
rightside,
rightside,
leftside,
leftside,
rightside,
shiftdown,
rightside,
leftside,
leftside,
rightside,
shiftdown,
rightside,
leftside,
rightside,
leftside,
leftside,
rightside,
shiftdown,
rightside,
leftside,
leftside,
rightside,
shiftdown,
rightside,
leftside,
leftside,
rightside,
shiftdown,
leftside
);
jHGwg0m2Tu = (
rightside,
leftside,
leftside,
shiftstem,
rightside,
shiftdown,
rightside,
rightside,
leftside,
leftside,
rightside,
shiftdown,
rightside,
leftside,
leftside,
rightside,
shiftdown,
rightside,
leftside,
rightside,
leftside,
leftside,
rightside,
shiftdown,
rightside,
leftside,
leftside,
rightside,
shiftdown,
rightside,
leftside,
leftside,
rightside,
shiftdown,
leftside
);
je7pQw9mYt = (
rightside,
leftside,
leftside,
shiftstem,
rightside,
shiftdown,
rightside,
rightside,
leftside,
leftside,
rightside,
shiftdown,
rightside,
leftside,
leftside,
rightside,
shiftdown,
rightside,
leftside,
rightside,
leftside,
leftside,
rightside,
shiftdown,
rightside,
leftside,
leftside,
rightside,
shiftdown,
rightside,
leftside,
leftside,
rightside,
shiftdown,
leftside
);
l8jRaw0YkY = (
rightside,
leftside,
leftside,
shiftstem,
rightside,
shiftdown,
rightside,
rightside,
leftside,
leftside,
rightside,
shiftdown,
rightside,
leftside,
leftside,
rightside,
shiftdown,
rightside,
leftside,
rightside,
leftside,
leftside,
rightside,
shiftdown,
rightside,
leftside,
leftside,
rightside,
shiftdown,
rightside,
leftside,
leftside,
rightside,
shiftdown,
leftside
);
rf7pecy6mC = (
rightside,
leftside,
leftside,
shiftstem,
rightside,
shiftdown,
rightside,
rightside,
leftside,
leftside,
rightside,
shiftdown,
rightside,
leftside,
leftside,
rightside,
shiftdown,
rightside,
leftside,
rightside,
leftside,
leftside,
rightside,
shiftdown,
rightside,
leftside,
leftside,
rightside,
shiftdown,
rightside,
leftside,
leftside,
rightside,
shiftdown,
leftside
);
ysnLVYacKr = (
rightside,
leftside,
leftside,
shiftstem,
rightside,
shiftdown,
rightside,
rightside,
leftside,
leftside,
rightside,
shiftdown,
rightside,
leftside,
leftside,
rightside,
shiftdown,
rightside,
leftside,
rightside,
leftside,
leftside,
rightside,
shiftdown,
rightside,
leftside,
leftside,
rightside,
shiftdown,
rightside,
leftside,
leftside,
rightside,
shiftdown,
leftside
);
zTICSjBOe7 = (
rightside,
leftside,
leftside,
rightside,
shiftdown
);
};
};
width = 166;
},
{
layerId = "628C7BDB-7DBE-4EE3-879C-693AF95326D4";
paths = (
{
closed = 1;
nodes = (
"589 0 LINE",
"589 648 LINE",
"640 648 LINE",
"640 456 LINE",
"828 456 LINE",
"828 750 LINE",
"10 750 LINE",
"10 456 LINE",
"198 456 LINE",
"198 648 LINE",
"250 648 LINE",
"250 0 LINE"
);
}
);
width = 838;
}
);
unicode = 0054;
},
{
glyphname = U;
lastChange = "2019-09-07 14:31:11 +0000";
layers = (
{
layerId = "41E2CF60-9A62-485C-A680-66BBCCBE3685";
paths = (
{
closed = 1;
nodes = (
"1816 750 LINE",
"1376 750 LINE",
"1376 159 LINE",
"702 159 LINE",
"488 311 LINE",
"488 750 LINE",
"48 750 LINE",
"48 253 LINE",
"402 0 LINE",
"1816 0 LINE"
);
}
);
width = 1880;
},
{
layerId = "C9BA7AB2-4C39-4898-B0E1-23BE521DA8C1";
paths = (
{
closed = 1;
nodes = (
"1180 750 LINE",
"1139 750 LINE",
"1139 32 LINE",
"336.998 32.009 LINE",
"83 280 LINE",
"83 750 LINE",
"42 750 LINE",
"42 271 LINE",
"319 0 LINE",
"1180 0 LINE"
);
}
);
width = 1226;
},
{
layerId = "1577B97C-DCC5-4AA4-842F-E9BB22E99E3C";
paths = (
{
closed = 1;
nodes = (
"135 750 LINE",
"104 750 LINE",
"104 22 LINE",
"90 22 LINE",
"47 140 LINE",
"47 750 LINE",
"16 750 LINE",
"16 140 LINE",
"66 0 LINE",
"135 0 LINE"
);
}
);
userData = {
com.schriftgestaltung.Glyphs.lastChange = "2019-04-28 05:35:59 +0000";
com.typemytype.robofont.Image.Brightness = 0;
com.typemytype.robofont.Image.Contrast = 1;
com.typemytype.robofont.Image.Saturation = 1;
com.typemytype.robofont.Image.Sharpness = 0.4;
com.typemytype.robofont.pointLabels = {
0AMThVeMS0 = (
shiftdown
);
3RJ5FutEdf = (
rightside,
rightside,
shiftdown,
shiftstem
);
81x99bMb8l = (
leftside
);
AHESs8qbK6 = (
rightside,
rightside,
shiftdown,
shiftstem
);
C21sU3C9xU = (
rightside,
rightside,
shiftdown,
shiftstem
);
D26bibzcxg = (
rightside,
rightside,
shiftdown,
shiftstem
);
EobYxVYK8X = (
shiftdown
);
Vioa9H5KKP = (
leftside
);
WLWbT8rdKe = (
leftside
);
};
};
width = 155;
},
{
layerId = "628C7BDB-7DBE-4EE3-879C-693AF95326D4";
paths = (
{
closed = 1;
nodes = (
"795 750 LINE",
"456 750 LINE",
"456 102 LINE",
"408 102 LINE",
"367 256 LINE",
"367 750 LINE",
"28 750 LINE",
"28 215 LINE",
"105 0 LINE",
"795 0 LINE"
);
}
);
width = 826;
}
);
unicode = 0055;
},
{
glyphname = V;
lastChange = "2019-09-07 14:31:25 +0000";
layers = (
{
layerId = "41E2CF60-9A62-485C-A680-66BBCCBE3685";
paths = (
{
closed = 1;
nodes = (
"1487 0 LINE",
"1831 226 LINE",
"1831 750 LINE",
"1392 750 LINE",
"1392 293 LINE",
"1162 159 LINE",
"504 159 LINE",
"504 750 LINE",
"64 750 LINE",
"64 0 LINE"
);
}
);
width = 1879;
},
{
layerId = "C9BA7AB2-4C39-4898-B0E1-23BE521DA8C1";
paths = (
{
closed = 1;
nodes = (
"909 0 LINE",
"1186 270 LINE",
"1186 750 LINE",
"1144 750 LINE",
"1144 279 LINE",
"891 32 LINE",
"89 32 LINE",
"89 750 LINE",
"47 750 LINE",
"47 0 LINE"
);
}
);
width = 1229;
},
{
layerId = "1577B97C-DCC5-4AA4-842F-E9BB22E99E3C";
paths = (
{
closed = 1;
nodes = (
"89 0 LINE",
"139 140 LINE",
"139 750 LINE",
"108 750 LINE",
"108 140 LINE",
"65 22 LINE",
"51 22 LINE",
"51 750 LINE",
"20 750 LINE",
"20 0 LINE"
);
}
);
userData = {
com.schriftgestaltung.Glyphs.lastChange = "2019-04-28 05:35:59 +0000";
com.typemytype.robofont.pointLabels = {
8JVlgiKN0E = (
rightside,
rightside,
rightside,
shiftstem
);
8xHrkJVycg = (
rightside,
rightside,
shiftdown,
rightside,
shiftstem,
rightside,
rightside,
rightside,
shiftstem
);
AEzhRP9eLc = (
rightside,
rightside,
shiftdown,
rightside,
shiftstem,
rightside,
rightside,
rightside,
shiftstem
);
DS3ZS4pH1O = (
leftside
);
KWypNhzDNy = (
rightside,
rightside,
rightside,
shiftstem
);
QlTGYhLSOg = (
rightside,
rightside,
rightside,
shiftstem
);
d1tzrvftiK = (
rightside,
rightside,
rightside,
shiftstem
);
gP37W9ybnh = (
leftside
);
zRVv4zqHV4 = (
rightside,
rightside,
shiftdown,
rightside,
shiftstem,
rightside,
rightside,
rightside,
shiftstem
);
};
};
width = 155;
},
{
layerId = "628C7BDB-7DBE-4EE3-879C-693AF95326D4";
paths = (
{
closed = 1;
nodes = (
"740 0 LINE",
"798 143 LINE",
"798 750 LINE",
"459 750 LINE",
"459 202 LINE",
"419 102 LINE",
"370 102 LINE",
"370 750 LINE",
"31 750 LINE",
"31 0 LINE"
);
}
);
width = 826;
}
);
unicode = 0056;
},
{
glyphname = W;
lastChange = "2019-09-07 14:31:42 +0000";
layers = (
{
layerId = "41E2CF60-9A62-485C-A680-66BBCCBE3685";
paths = (
{
closed = 1;
nodes = (
"1135 0 LINE",
"1320 211 LINE",
"1326 211 LINE",
"1516 0 LINE",
"2375 0 LINE",
"2599 217 LINE",
"2599 750 LINE",
"2159 750 LINE",
"2159 266 LINE",
"2027 159 LINE",
"1662 159 LINE",
"1531 312 LINE",
"1531 750 LINE",
"1114 750 LINE",
"1114 312 LINE",
"989 159 LINE",
"623 159 LINE",
"488 266 LINE",
"488 750 LINE",
"48 750 LINE",
"48 217 LINE",
"275 0 LINE"
);
}
);
width = 2647;
},
{
layerId = "C9BA7AB2-4C39-4898-B0E1-23BE521DA8C1";
paths = (
{
closed = 1;
nodes = (
"567 0 LINE",
"675 123 LINE",
"670 123 LINE",
"783 0 LINE",
"1185 0 LINE",
"1301 167 LINE",
"1301 750 LINE",
"1260 750 LINE",
"1260 175 LINE",
"1158 32 LINE",
"803 32 LINE",
"692 153 LINE",
"692 750 LINE",
"651 750 LINE",
"651 153 LINE",
"546 32 LINE",
"191 32 LINE",
"86 175 LINE",
"86 750 LINE",
"45 750 LINE",
"45 167 LINE",
"165 0 LINE"
);
}
);
width = 1346;
},
{
layerId = "1577B97C-DCC5-4AA4-842F-E9BB22E99E3C";
paths = (
{
closed = 1;
nodes = (
"102 0 LINE",
"123 84 LINE",
"117 84 LINE",
"143 0 LINE",
"199 0 LINE",
"223 91 LINE",
"223 750 LINE",
"192 750 LINE",
"192 85 LINE",
"176 22 LINE",
"161 22 LINE",
"135 106 LINE",
"135 750 LINE",
"104 750 LINE",
"104 106 LINE",
"84 22 LINE",
"68 22 LINE",
"49 85 LINE",
"49 750 LINE",
"18 750 LINE",
"18 91 LINE",
"46 0 LINE"
);
}
);
userData = {
com.schriftgestaltung.Glyphs.lastChange = "2019-04-28 11:47:40 +0000";
com.typemytype.robofont.Image.Brightness = 0;
com.typemytype.robofont.Image.Contrast = 1;
com.typemytype.robofont.Image.Saturation = 1;
com.typemytype.robofont.Image.Sharpness = 0.4;
com.typemytype.robofont.pointLabels = {
2hHIzNbbGO = (
shiftdown
);
CodClRNdlc = (
shiftdown
);
FZ3OmcGf1a = (
shiftdown
);
JvYTBAOPZP = (
rightside,
rightside,
rightside,
shiftstem,
shiftdown,
shiftdown,
shiftdown,
shiftdown,
leftside,
leftside,
leftside
);
K0jsUof4uz = (
shiftdown
);
UtnYmVSa9e = (
rightside,
rightside,
rightside,
shiftstem,
shiftdown,
shiftdown,
shiftdown,
shiftdown,
leftside,
leftside,
leftside
);
btNB0eFOdk = (
rightside,
rightside,
rightside,
shiftstem,
shiftdown,
shiftdown,
shiftdown,
shiftdown,
leftside,
leftside,
leftside
);
dVsTZYNxAD = (
rightside,
rightside,
rightside,
shiftstem,
shiftdown,
shiftdown,
shiftdown,
shiftdown,
leftside,
leftside,
leftside
);
il0UzAz6xX = (
rightside,
rightside,
rightside,
shiftstem,
shiftdown,
shiftdown,
shiftdown,
shiftdown,
leftside,
leftside,
leftside
);
l7kU354nQi = (
rightside,
rightside,
rightside,
shiftstem,
shiftdown,
shiftdown,
shiftdown,
shiftdown,
leftside,
leftside,
leftside
);
lwgAcRFjz3 = (
rightside,
rightside,
rightside,
shiftstem,
shiftdown,
shiftdown,
shiftdown,
shiftdown,
leftside,
leftside,
leftside
);
qTN6MaeebC = (
rightside,
rightside,
rightside,
shiftstem,
shiftdown,
shiftdown,
shiftdown,
shiftdown,
leftside,
leftside,
leftside
);
tG1gTEtDdI = (
rightside,
rightside,
rightside,
shiftstem,
shiftdown,
shiftdown,
shiftdown,
shiftdown,
leftside,
leftside,
leftside
);
vmHDiIUK3k = (
rightside,
rightside,
rightside,
shiftstem,
shiftdown,
shiftdown,
shiftdown,
shiftdown,
leftside,
leftside,
leftside
);
vyhN9GCvPW = (
rightside,
rightside,
rightside,
shiftstem,
shiftdown,
shiftdown,
shiftdown,
shiftdown,
leftside,
leftside,
leftside
);
xihhpvcZ90 = (
rightside,
rightside,
rightside,
shiftstem,
shiftdown,
shiftdown,
shiftdown,
shiftdown,
leftside,
leftside,
leftside
);
};
};
width = 241;
},
{
layerId = "628C7BDB-7DBE-4EE3-879C-693AF95326D4";
paths = (
{
closed = 1;
nodes = (
"440 0 LINE",
"583 164 LINE",
"579 164 LINE",
"727 0 LINE",
"1066 0 LINE",
"1136 143 LINE",
"1136 750 LINE",
"797 750 LINE",
"797 149 LINE",
"782 102 LINE",
"744 102 LINE",
"720 148 LINE",
"720 750 LINE",
"440 750 LINE",
"440 147 LINE",
"422 102 LINE",
"383 102 LINE",
"366 149 LINE",
"366 750 LINE",
"27 750 LINE",
"27 143 LINE",
"98 0 LINE"
);
}
);
width = 1163;
}
);
unicode = 0057;
},
{
glyphname = X;
lastChange = "2019-09-07 14:32:44 +0000";
layers = (
{
layerId = "41E2CF60-9A62-485C-A680-66BBCCBE3685";
paths = (
{
closed = 1;
nodes = (
"499 0 LINE",
"499 257 LINE",
"706 285 LINE",
"1196 285 LINE",
"1388 257 LINE",
"1388 0 LINE",
"1828 0 LINE",
"1828 305 LINE",
"1416 367 LINE",
"1416 383 LINE",
"1813 454 LINE",
"1813 750 LINE",
"1373 750 LINE",
"1373 495 LINE",
"1196 456 LINE",
"706 456 LINE",
"513 500 LINE",
"513 750 LINE",
"73 750 LINE",
"73 455 LINE",
"486 383 LINE",
"486 366 LINE",
"59 303 LINE",
"59 0 LINE"
);
}
);
width = 1887;
},
{
layerId = "C9BA7AB2-4C39-4898-B0E1-23BE521DA8C1";
paths = (
{
closed = 1;
nodes = (
"84 0 LINE",
"84 268 LINE",
"348 355 LINE",
"895 355 LINE",
"1140 266 LINE",
"1140 0 LINE",
"1182 0 LINE",
"1182 281 LINE",
"934 366 LINE",
"934 373 LINE",
"1164 465 LINE",
"1164 750 LINE",
"1123 750 LINE",
"1123 477 LINE",
"895 385 LINE",
"348 385 LINE",
"101 477 LINE",
"101 750 LINE",
"60 750 LINE",
"60 468 LINE",
"309 375 LINE",
"309 367 LINE",
"42 278 LINE",
"42 0 LINE"
);
}
);
width = 1224;
},
{
layerId = "1577B97C-DCC5-4AA4-842F-E9BB22E99E3C";
paths = (
{
closed = 1;
nodes = (
"46 0 LINE",
"46 306 LINE",
"74 356 LINE",
"76 356 LINE",
"104 306 LINE",
"104 0 LINE",
"135 0 LINE",
"135 313 LINE",
"93 370 LINE",
"93 372 LINE",
"134 422 LINE",
"134 750 LINE",
"103 750 LINE",
"103 431 LINE",
"76 387 LINE",
"74 387 LINE",
"47 431 LINE",
"47 750 LINE",
"16 750 LINE",
"16 422 LINE",
"57 372 LINE",
"57 370 LINE",
"15 313 LINE",
"15 0 LINE"
);
}
);
userData = {
com.schriftgestaltung.Glyphs.lastChange = "2019-04-28 05:35:59 +0000";
com.typemytype.robofont.pointLabels = {
1doCTUQTOw = (
crossbar,
crossbar,
crossbar,
shiftdown,
crossbar,
crossbar,
crossbar
);
2AoyMNBDus = (
crossbar,
crossbar,
shiftstem,
leftside,
crossbar,
crossbar,
crossbar,
shiftdown,
crossbar,
crossbar,
crossbar,
crossbar,
crossbar,
crossbar,
shiftdown,
crossbar,
crossbar,
crossbar,
crossbar,
crossbar,
leftside,
crossbar,
crossbar,
leftside,
crossbar,
crossbar,
crossbar,
leftside,
crossbar,
crossbar,
crossbar,
shiftdown,
crossbar,
crossbar,
crossbar,
crossbar,
crossbar,
crossbar,
shiftdown,
crossbar,
crossbar,
crossbar
);
3RUxnrTvXW = (
crossbar,
crossbar,
shiftstem,
leftside,
crossbar,
crossbar,
crossbar,
shiftdown,
crossbar,
crossbar,
crossbar,
crossbar,
crossbar,
crossbar,
shiftdown,
crossbar,
crossbar,
crossbar,
crossbar,
crossbar,
leftside,
crossbar,
crossbar,
leftside,
crossbar,
crossbar,
crossbar,
leftside,
crossbar,
crossbar,
crossbar,
shiftdown,
crossbar,
crossbar,
crossbar,
crossbar,
crossbar,
crossbar,
shiftdown,
crossbar,
crossbar,
crossbar
);
5E2SHdZBnl = (
crossbar
);
DhM0pRDHg5 = (
crossbar
);
EOsg2u0vR6 = (
crossbar,
crossbar,
shiftstem,
leftside,
crossbar,
crossbar,
crossbar,
shiftdown,
crossbar,
crossbar,
crossbar,
crossbar,
crossbar,
crossbar,
shiftdown,
crossbar,
crossbar,
crossbar,
crossbar,
crossbar,
leftside,
crossbar,
crossbar,
leftside,
crossbar,
crossbar,
crossbar,
leftside,
crossbar,
crossbar,
crossbar,
shiftdown,
crossbar,
crossbar,
crossbar,
crossbar,
crossbar,
crossbar,
shiftdown,
crossbar,
crossbar,
crossbar
);
HtiNjuVoMT = (
crossbar,
crossbar,
rightside
);
Hxl70cp8II = (
crossbar,
crossbar,
rightside
);
JvPOtaXHlU = (
crossbar,
crossbar,
shiftstem,
leftside,
crossbar,
crossbar,
crossbar,
shiftdown,
crossbar,
crossbar,
crossbar,
crossbar,
crossbar,
crossbar,
shiftdown,
crossbar,
crossbar,
crossbar,
crossbar,
crossbar,
leftside,
crossbar,
crossbar,
leftside,
crossbar,
crossbar,
crossbar,
leftside,
crossbar,
crossbar,
crossbar,
shiftdown,
crossbar,
crossbar,
crossbar,
crossbar,
crossbar,
crossbar,
shiftdown,
crossbar,
crossbar,
crossbar
);
L4QRW2yg68 = (
crossbar,
crossbar,
crossbar,
shiftdown,
crossbar,
crossbar,
crossbar
);
LWQMIPwJn5 = (
crossbar,
crossbar,
shiftstem,
leftside,
crossbar,
crossbar,
crossbar,
shiftdown,
crossbar,
crossbar,
crossbar,
crossbar,
crossbar,
crossbar,
shiftdown,
crossbar,
crossbar,
crossbar,
crossbar,
crossbar,
leftside,
crossbar,
crossbar,
leftside,
crossbar,
crossbar,
crossbar,
leftside,
crossbar,
crossbar,
crossbar,
shiftdown,
crossbar,
crossbar,
crossbar,
crossbar,
crossbar,
crossbar,
shiftdown,
crossbar,
crossbar,
crossbar
);
SOkkUNzV8O = (
crossbar,
crossbar,
shiftstem,
leftside,
crossbar,
crossbar,
crossbar,
shiftdown,
crossbar,
crossbar,
crossbar,
crossbar,
crossbar,
crossbar,
shiftdown,
crossbar,
crossbar,
crossbar,
crossbar,
crossbar,
leftside,
crossbar,
crossbar,
leftside,
crossbar,
crossbar,
crossbar,
leftside,
crossbar,
crossbar,
crossbar,
shiftdown,
crossbar,
crossbar,
crossbar,
crossbar,
crossbar,
crossbar,
shiftdown,
crossbar,
crossbar,
crossbar
);
TCOXywMDjP = (
crossbar,
crossbar,
rightside
);
aujrsODbNh = (
crossbar,
crossbar,
rightside
);
b14gwxJsqO = (
crossbar,
crossbar,
crossbar,
shiftdown,
crossbar,
crossbar,
crossbar
);
mdbzbOpU9s = (
crossbar
);
mzk5RCOTSG = (
crossbar,
crossbar,
shiftstem,
leftside,
crossbar,
crossbar,
crossbar,
shiftdown,
crossbar,
crossbar,
crossbar,
crossbar,
crossbar,
crossbar,
shiftdown,
crossbar,
crossbar,
crossbar,
crossbar,
crossbar,
leftside,
crossbar,
crossbar,
leftside,
crossbar,
crossbar,
crossbar,
leftside,
crossbar,
crossbar,
crossbar,
shiftdown,
crossbar,
crossbar,
crossbar,
crossbar,
crossbar,
crossbar,
shiftdown,
crossbar,
crossbar,
crossbar
);
oo2HOwJkzJ = (
crossbar,
crossbar,
shiftstem,
leftside,
crossbar,
crossbar,
crossbar,
shiftdown,
crossbar,
crossbar,
crossbar,
crossbar,
crossbar,
crossbar,
shiftdown,
crossbar,
crossbar,
crossbar,
crossbar,
crossbar,
leftside,
crossbar,
crossbar,
leftside,
crossbar,
crossbar,
crossbar,
leftside,
crossbar,
crossbar,
crossbar,
shiftdown,
crossbar,
crossbar,
crossbar,
crossbar,
crossbar,
crossbar,
shiftdown,
crossbar,
crossbar,
crossbar
);
sLI75Ua05e = (
crossbar,
crossbar,
shiftstem,
leftside,
crossbar,
crossbar,
crossbar,
shiftdown,
crossbar,
crossbar,
crossbar,
crossbar,
crossbar,
crossbar,
shiftdown,
crossbar,
crossbar,
crossbar,
crossbar,
crossbar,
leftside,
crossbar,
crossbar,
leftside,
crossbar,
crossbar,
crossbar,
leftside,
crossbar,
crossbar,
crossbar,
shiftdown,
crossbar,
crossbar,
crossbar,
crossbar,
crossbar,
crossbar,
shiftdown,
crossbar,
crossbar,
crossbar
);
v8xFWeeRJx = (
crossbar,
crossbar,
shiftstem,
leftside,
crossbar,
crossbar,
crossbar,
shiftdown,
crossbar,
crossbar,
crossbar,
crossbar,
crossbar,
crossbar,
shiftdown,
crossbar,
crossbar,
crossbar,
crossbar,
crossbar,
leftside,
crossbar,
crossbar,
leftside,
crossbar,
crossbar,
crossbar,
leftside,
crossbar,
crossbar,
crossbar,
shiftdown,
crossbar,
crossbar,
crossbar,
crossbar,
crossbar,
crossbar,
shiftdown,
crossbar,
crossbar,
crossbar
);
yfThTK6gCq = (
crossbar,
crossbar,
shiftstem,
leftside,
crossbar,
crossbar,
crossbar,
shiftdown,
crossbar,
crossbar,
crossbar,
crossbar,
crossbar,
crossbar,
shiftdown,
crossbar,
crossbar,
crossbar,
crossbar,
crossbar,
leftside,
crossbar,
crossbar,
leftside,
crossbar,
crossbar,
crossbar,
leftside,
crossbar,
crossbar,
crossbar,
shiftdown,
crossbar,
crossbar,
crossbar,
crossbar,
crossbar,
crossbar,
shiftdown,
crossbar,
crossbar,
crossbar
);
z5onK1VUCe = (
crossbar,
crossbar,
shiftstem,
leftside,
crossbar,
crossbar,
crossbar,
shiftdown,
crossbar,
crossbar,
crossbar,
crossbar,
crossbar,
crossbar,
shiftdown,
crossbar,
crossbar,
crossbar,
crossbar,
crossbar,
leftside,
crossbar,
crossbar,
leftside,
crossbar,
crossbar,
crossbar,
leftside,
crossbar,
crossbar,
crossbar,
shiftdown,
crossbar,
crossbar,
crossbar,
crossbar,
crossbar,
crossbar,
shiftdown,
crossbar,
crossbar,
crossbar
);
zMJTtBUO7o = (
crossbar,
crossbar,
crossbar,
shiftdown,
crossbar,
crossbar,
crossbar
);
};
};
width = 150;
},
{
layerId = "628C7BDB-7DBE-4EE3-879C-693AF95326D4";
paths = (
{
closed = 1;
nodes = (
"362 0 LINE",
"362 307 LINE",
"400 326 LINE",
"415 326 LINE",
"452 307 LINE",
"452 0 LINE",
"791 0 LINE",
"791 313 LINE",
"540 363 LINE",
"540 382 LINE",
"790 424 LINE",
"790 750 LINE",
"451 750 LINE",
"451 434 LINE",
"415 417 LINE",
"400 417 LINE",
"364 434 LINE",
"364 750 LINE",
"25 750 LINE",
"25 424 LINE",
"275 383 LINE",
"275 363 LINE",
"23 313 LINE",
"23 0 LINE"
);
}
);
width = 814;
}
);
unicode = 0058;
},
{
glyphname = Y;
lastChange = "2019-09-07 14:38:03 +0000";
layers = (
{
layerId = "41E2CF60-9A62-485C-A680-66BBCCBE3685";
paths = (
{
closed = 1;
nodes = (
"1145 0 LINE",
"1145 308 LINE",
"1808 391 LINE",
"1808 750 LINE",
"1368 750 LINE",
"1368 459 LINE",
"939 406 LINE",
"922 406 LINE",
"481 458 LINE",
"481 750 LINE",
"41 750 LINE",
"41 391 LINE",
"705 308 LINE",
"705 -3 LINE"
);
}
);
width = 1849;
},
{
layerId = "C9BA7AB2-4C39-4898-B0E1-23BE521DA8C1";
paths = (
{
closed = 1;
nodes = (
"634.007 0 LINE",
"634 333 LINE",
"1182 422 LINE",
"1182 750 LINE",
"1140 750 LINE",
"1140 448 LINE",
"617 363 LINE",
"610 363 LINE",
"85 447 LINE",
"85 750 LINE",
"44 750 LINE",
"44 422 LINE",
"593 333 LINE",
"593 0 LINE"
);
}
);
width = 1226;
},
{
layerId = "1577B97C-DCC5-4AA4-842F-E9BB22E99E3C";
paths = (
{
closed = 1;
nodes = (
"87 0 LINE",
"87 338 LINE",
"130 391 LINE",
"130 750 LINE",
"99 750 LINE",
"99 400 LINE",
"72 361 LINE",
"71 361 LINE",
"43 400 LINE",
"43 750 LINE",
"12 750 LINE",
"12 391 LINE",
"56 338 LINE",
"56 0 LINE"
);
}
);
userData = {
com.schriftgestaltung.Glyphs.lastChange = "2019-04-28 12:46:06 +0000";
com.typemytype.robofont.pointLabels = {
3Kveia3O9h = (
crossbar,
crossbar,
leftside
);
9ZUngKuaTA = (
crossbar,
crossbar,
rightside,
shiftstem,
crossbar,
crossbar,
rightside,
crossbar,
crossbar,
crossbar,
crossbar,
leftside,
crossbar,
crossbar,
leftside
);
CEbWhr9cCg = (
crossbar,
crossbar,
rightside,
shiftstem,
crossbar,
crossbar,
rightside,
crossbar,
crossbar,
crossbar,
crossbar,
leftside,
crossbar,
crossbar,
leftside
);
Jw55i2s2Mm = (
crossbar,
crossbar,
rightside,
shiftstem,
crossbar,
crossbar,
rightside,
crossbar,
crossbar,
crossbar,
crossbar,
leftside,
crossbar,
crossbar,
leftside
);
WihjL321cU = (
crossbar,
crossbar,
rightside
);
XKjckKJ7m9 = (
crossbar,
crossbar,
leftside
);
YbKEFhFR3q = (
crossbar,
crossbar,
rightside,
shiftstem,
crossbar,
crossbar,
rightside,
crossbar,
crossbar,
crossbar,
crossbar,
leftside,
crossbar,
crossbar,
leftside
);
fJXhpKV79E = (
crossbar,
crossbar,
rightside,
shiftstem,
crossbar,
crossbar,
rightside,
crossbar,
crossbar,
crossbar,
crossbar,
leftside,
crossbar,
crossbar,
leftside
);
k3vH9oxqcN = (
crossbar,
crossbar,
rightside,
shiftstem,
crossbar,
crossbar,
rightside,
crossbar,
crossbar,
crossbar,
crossbar,
leftside,
crossbar,
crossbar,
leftside
);
oy8ifCCtGL = (
crossbar,
crossbar,
rightside,
shiftstem,
crossbar,
crossbar,
rightside,
crossbar,
crossbar,
crossbar,
crossbar,
leftside,
crossbar,
crossbar,
leftside
);
rvzWMWl6O1 = (
crossbar,
crossbar,
rightside
);
u7HFbTQwMo = (
crossbar
);
uMA7EQCwXc = (
crossbar
);
wnC8PudY2b = (
crossbar,
crossbar,
rightside,
shiftstem,
crossbar,
crossbar,
rightside,
crossbar,
crossbar,
crossbar,
crossbar,
leftside,
crossbar,
crossbar,
leftside
);
};
};
width = 142;
},
{
layerId = "628C7BDB-7DBE-4EE3-879C-693AF95326D4";
paths = (
{
closed = 1;
nodes = (
"573 0 LINE",
"573 308 LINE",
"786 362 LINE",
"786 750 LINE",
"447 750 LINE",
"447 397 LINE",
"411 385 LINE",
"404 385 LINE",
"365 397 LINE",
"365 750 LINE",
"26 750 LINE",
"26 362 LINE",
"239 308 LINE",
"239 0 LINE"
);
}
);
width = 812;
}
);
unicode = 0059;
},
{
glyphname = Z;
lastChange = "2019-09-07 14:36:59 +0000";
layers = (
{
layerId = "41E2CF60-9A62-485C-A680-66BBCCBE3685";
paths = (
{
closed = 1;
nodes = (
"1777 0 LINE",
"1777 313 LINE",
"1337 313 LINE",
"1337 134 LINE",
"630 134 LINE",
"630 171 LINE",
"1761 549 LINE",
"1761 750 LINE",
"86 750 LINE",
"86 452 LINE",
"519 452 LINE",
"519 614 LINE",
"1191 614 LINE",
"1191 543 LINE",
"61 186 LINE",
"61 0 LINE"
);
}
);
width = 1835;
},
{
layerId = "C9BA7AB2-4C39-4898-B0E1-23BE521DA8C1";
paths = (
{
closed = 1;
nodes = (
"1146 0 LINE",
"1146 278 LINE",
"1105 278 LINE",
"1105 33 LINE",
"88 33 LINE",
"88 177 LINE",
"1141 702 LINE",
"1141 750 LINE",
"47 750 LINE",
"47 515 LINE",
"88 515 LINE",
"88 717 LINE",
"1095 717 LINE",
"1095 713 LINE",
"43 192 LINE",
"43 0 LINE"
);
}
);
width = 1188;
},
{
layerId = "1577B97C-DCC5-4AA4-842F-E9BB22E99E3C";
paths = (
{
closed = 1;
nodes = (
"134 0 LINE",
"134 192 LINE",
"103 192 LINE",
"103 25 LINE",
"46 25 LINE",
"46 190 LINE",
"129 725 LINE",
"129 750 LINE",
"19 750 LINE",
"19 578 LINE",
"50 578 LINE",
"50 725 LINE",
"98 725 LINE",
"98 723 LINE",
"15 192 LINE",
"15 0 LINE"
);
}
);
userData = {
com.schriftgestaltung.Glyphs.lastChange = "2019-04-28 05:35:59 +0000";
com.typemytype.robofont.pointLabels = {
5FogYRSgkk = (
rightside,
rightside,
rightside,
rightside,
shiftstem
);
91SxUS0iwG = (
rightside,
rightside,
rightside,
rightside,
shiftstem
);
K8A0VucOWI = (
rightside,
rightside,
rightside,
rightside,
shiftstem
);
LQ9fBsTy9K = (
leftside
);
P71JzCIWaj = (
rightside,
rightside,
rightside,
shiftdown,
rightside,
shiftstem,
rightside,
rightside,
rightside,
rightside,
shiftstem
);
cqhYFAJo1M = (
leftside
);
h29sMsiL45 = (
rightside,
rightside,
rightside,
shiftdown,
rightside,
shiftstem,
rightside,
rightside,
rightside,
rightside,
shiftstem
);
pic4xB93IK = (
rightside,
rightside,
rightside,
shiftdown,
rightside,
shiftstem,
rightside,
rightside,
rightside,
rightside,
shiftstem
);
pzdvPTirLJ = (
rightside,
rightside,
rightside,
rightside,
shiftstem
);
svlFvrau4c = (
leftside
);
teVKnpBcVb = (
leftside
);
thtiimT0ha = (
rightside,
rightside,
rightside,
shiftdown,
rightside,
shiftstem,
rightside,
rightside,
rightside,
rightside,
shiftstem
);
yyb1NCCI5w = (
rightside,
rightside,
rightside,
rightside,
shiftstem
);
};
};
width = 149;
},
{
layerId = "628C7BDB-7DBE-4EE3-879C-693AF95326D4";
paths = (
{
closed = 1;
nodes = (
"763 0 LINE",
"763 220 LINE",
"424 220 LINE",
"424 85 LINE",
"341 85 LINE",
"341 168 LINE",
"758 606 LINE",
"758 750 LINE",
"32 749 LINE",
"32 545 LINE",
"343 546 LINE",
"343 650 LINE",
"420 650 LINE",
"420 593 LINE",
"33 190 LINE",
"33 0 LINE"
);
}
);
width = 786;
}
);
unicode = 005A;
},
{
glyphname = I.alt1;
lastChange = "2019-09-07 04:51:40 +0000";
layers = (
{
layerId = "41E2CF60-9A62-485C-A680-66BBCCBE3685";
paths = (
{
closed = 1;
nodes = (
"1414 0 LINE",
"1414 148 LINE",
"960 148 LINE",
"960 602 LINE",
"1414 602 LINE",
"1414 750 LINE",
"67 750 LINE",
"67 602 LINE",
"521 602 LINE",
"521 148 LINE",
"67 148 LINE",
"67 0 LINE"
);
}
);
width = 1481;
},
{
layerId = "C9BA7AB2-4C39-4898-B0E1-23BE521DA8C1";
paths = (
{
closed = 1;
nodes = (
"1077 0 LINE",
"1077 32 LINE",
"592 32 LINE",
"592 717 LINE",
"1077 717 LINE",
"1077 750 LINE",
"65 750 LINE",
"65 717 LINE",
"551 717 LINE",
"551 32 LINE",
"65 32 LINE",
"65 0 LINE"
);
}
);
width = 1143;
},
{
layerId = "1577B97C-DCC5-4AA4-842F-E9BB22E99E3C";
paths = (
{
closed = 1;
nodes = (
"79 0 LINE",
"79 22 LINE",
"56 22 LINE",
"56 728 LINE",
"79 728 LINE",
"79 750 LINE",
"2 750 LINE",
"2 728 LINE",
"25 728 LINE",
"25 22 LINE",
"2 22 LINE",
"2 0 LINE"
);
}
);
userData = {
com.typemytype.robofont.pointLabels = {
1Ty0JfMohF = (
rightside,
rightside,
shiftstem,
rightside,
leftside,
shiftdown,
leftside,
rightside,
rightside,
leftside,
leftside,
shiftdown,
rightside,
leftside,
leftside,
rightside,
rightside,
leftside,
leftside,
shiftdown,
rightside,
rightside,
leftside,
shiftdown,
leftside
);
1m237t4hyw = (
rightside,
rightside,
leftside,
shiftdown,
leftside
);
9RiQmr3G8U = (
rightside,
rightside,
shiftstem,
rightside,
leftside,
shiftdown,
leftside,
rightside,
rightside,
leftside,
leftside,
shiftdown,
rightside,
leftside,
leftside,
rightside,
rightside,
leftside,
leftside,
shiftdown,
rightside,
rightside,
leftside,
shiftdown,
leftside
);
O5ZoWKLuW7 = (
rightside,
rightside,
shiftstem,
rightside,
leftside,
shiftdown,
leftside,
rightside,
rightside,
leftside,
leftside,
shiftdown,
rightside,
leftside,
leftside,
rightside,
rightside,
leftside,
leftside,
shiftdown,
rightside,
rightside,
leftside,
shiftdown,
leftside
);
PL3Zqx19x8 = (
rightside,
rightside,
shiftstem,
rightside,
leftside,
shiftdown,
leftside,
rightside,
rightside,
leftside,
leftside,
shiftdown,
rightside,
leftside,
leftside,
rightside,
rightside,
leftside,
leftside,
shiftdown,
rightside,
rightside,
leftside,
shiftdown,
leftside
);
S4rO5KuHiL = (
rightside,
rightside,
leftside,
shiftdown,
leftside
);
aCoxe3fSmw = (
rightside,
rightside,
shiftstem,
rightside,
leftside,
shiftdown,
leftside,
rightside,
rightside,
leftside,
leftside,
shiftdown,
rightside,
leftside,
leftside,
rightside,
rightside,
leftside,
leftside,
shiftdown,
rightside,
rightside,
leftside,
shiftdown,
leftside
);
jZjJqwR81q = (
rightside,
rightside,
shiftstem,
rightside,
leftside,
shiftdown,
leftside,
rightside,
rightside,
leftside,
leftside,
shiftdown,
rightside,
leftside,
leftside,
rightside,
rightside,
leftside,
leftside,
shiftdown,
rightside,
rightside,
leftside,
shiftdown,
leftside
);
quzaPWszgr = (
rightside,
rightside,
shiftstem,
rightside,
leftside,
shiftdown,
leftside,
rightside,
rightside,
leftside,
leftside,
shiftdown,
rightside,
leftside,
leftside,
rightside,
rightside,
leftside,
leftside,
shiftdown,
rightside,
rightside,
leftside,
shiftdown,
leftside
);
u8XZE2STzL = (
rightside,
rightside,
shiftstem,
rightside,
leftside,
shiftdown,
leftside,
rightside,
rightside,
leftside,
leftside,
shiftdown,
rightside,
leftside,
leftside,
rightside,
rightside,
leftside,
leftside,
shiftdown,
rightside,
rightside,
leftside,
shiftdown,
leftside
);
v7N4yg5XNk = (
rightside,
rightside,
leftside,
leftside,
shiftdown
);
zfocDyDTCM = (
rightside,
rightside,
leftside,
leftside,
shiftdown
);
};
};
width = 81;
},
{
layerId = "628C7BDB-7DBE-4EE3-879C-693AF95326D4";
width = 600;
}
);
},
{
glyphname = zero;
lastChange = "2019-09-07 14:36:02 +0000";
layers = (
{
layerId = "41E2CF60-9A62-485C-A680-66BBCCBE3685";
paths = (
{
closed = 1;
nodes = (
"1721 0 LINE",
"1721 750 LINE",
"64 750 LINE",
"64 0 LINE"
);
},
{
closed = 1;
nodes = (
"504 591 LINE",
"1281 591 LINE",
"1281 159 LINE",
"504 159 LINE"
);
}
);
width = 1785;
},
{
layerId = "C9BA7AB2-4C39-4898-B0E1-23BE521DA8C1";
paths = (
{
closed = 1;
nodes = (
"1052 0 LINE",
"1052 750 LINE",
"48 750 LINE",
"48 0 LINE"
);
},
{
closed = 1;
nodes = (
"89 718 LINE",
"1011.009 717.991 LINE",
"1011.009 32.009 LINE",
"89 32 LINE"
);
}
);
width = 1100;
},
{
layerId = "1577B97C-DCC5-4AA4-842F-E9BB22E99E3C";
paths = (
{
closed = 1;
nodes = (
"146 0 LINE",
"146 750 LINE",
"24 750 LINE",
"24 0 LINE"
);
},
{
closed = 1;
nodes = (
"55 728 LINE",
"115 728 LINE",
"115 22 LINE",
"55 22 LINE"
);
}
);
userData = {
com.schriftgestaltung.Glyphs.lastChange = "2019-04-28 06:00:43 +0000";
com.typemytype.robofont.pointLabels = {
4KX3b3mGg4 = (
leftside
);
JHyYoJS6si = (
rightside,
rightside,
shiftstem,
shiftdown,
rightside,
rightside,
shiftstem
);
KnsQaYOmh6 = (
rightside,
rightside,
shiftstem,
shiftdown,
rightside,
rightside,
shiftstem
);
NaxGoenf3y = (
rightside,
rightside,
shiftstem
);
V2j8wYP0nr = (
rightside,
rightside,
shiftstem
);
jxTSPamP6S = (
rightside,
rightside,
shiftstem,
shiftdown,
rightside,
rightside,
shiftstem
);
rx6fJSLiri = (
leftside
);
xGePK4FBei = (
rightside,
rightside,
shiftstem,
shiftdown,
rightside,
rightside,
shiftstem
);
};
};
width = 170;
},
{
layerId = "628C7BDB-7DBE-4EE3-879C-693AF95326D4";
paths = (
{
closed = 1;
nodes = (
"797 0 LINE",
"797 750 LINE",
"31 750 LINE",
"31 0 LINE"
);
},
{
closed = 1;
nodes = (
"370 648 LINE",
"458 648 LINE",
"458 102 LINE",
"370 102 LINE"
);
}
);
width = 828;
}
);
unicode = 0030;
},
{
glyphname = one;
lastChange = "2019-09-07 14:36:12 +0000";
layers = (
{
layerId = "41E2CF60-9A62-485C-A680-66BBCCBE3685";
paths = (
{
closed = 1;
nodes = (
"1145 0 LINE",
"1145 162 LINE",
"844 162 LINE",
"844 750 LINE",
"99 750 LINE",
"99 588 LINE",
"404 588 LINE",
"404 162 LINE",
"103 162 LINE",
"103 0 LINE"
);
}
);
width = 1174;
},
{
layerId = "C9BA7AB2-4C39-4898-B0E1-23BE521DA8C1";
paths = (
{
closed = 1;
nodes = (
"972 0 LINE",
"972 35 LINE",
"510 35 LINE",
"510 750 LINE",
"2 750 LINE",
"2 715 LINE",
"468 715 LINE",
"468 35 LINE",
"6 35 LINE",
"6 0 LINE"
);
}
);
width = 976;
},
{
layerId = "1577B97C-DCC5-4AA4-842F-E9BB22E99E3C";
paths = (
{
closed = 1;
nodes = (
"105 0 LINE",
"105 25 LINE",
"70 25 LINE",
"70 750 LINE",
"0 750 LINE",
"0 725 LINE",
"39 725 LINE",
"39 25 LINE",
"4 25 LINE",
"4 0 LINE"
);
}
);
userData = {
com.schriftgestaltung.Glyphs.lastChange = "2019-04-28 05:24:39 +0000";
com.typemytype.robofont.pointLabels = {
0DUCJo8xIi = (
rightside
);
4rjIeWbSbx = (
rightside
);
5nmxQXofSG = (
rightside
);
CURJAw79Zl = (
rightside
);
};
};
width = 107;
},
{
layerId = "628C7BDB-7DBE-4EE3-879C-693AF95326D4";
paths = (
{
closed = 1;
nodes = (
"736 0 LINE",
"736 105 LINE",
"543 105 LINE",
"543 750 LINE",
"23 750 LINE",
"23 645 LINE",
"204 645 LINE",
"204 105 LINE",
"11 105 LINE",
"11 0 LINE"
);
}
);
width = 739;
}
);
unicode = 0031;
},
{
glyphname = two;
lastChange = "2019-09-07 14:39:35 +0000";
layers = (
{
layerId = "41E2CF60-9A62-485C-A680-66BBCCBE3685";
paths = (
{
closed = 1;
nodes = (
"1570 0 LINE",
"1570 138 LINE",
"1130 138 LINE",
"1130 137 LINE",
"506 137 LINE",
"505 293 LINE",
"1560 293 LINE",
"1560 750 LINE",
"80 750 LINE",
"80 602 LINE",
"1120 602 LINE",
"1120 476 LINE",
"66 476 LINE",
"66 0 LINE"
);
}
);
width = 1609;
},
{
layerId = "C9BA7AB2-4C39-4898-B0E1-23BE521DA8C1";
paths = (
{
closed = 1;
nodes = (
"880 0 LINE",
"880 153 LINE",
"839 153 LINE",
"839 31 LINE",
"63 31 LINE",
"63 357 LINE",
"869 357 LINE",
"869 750 LINE",
"45 750 LINE",
"45 718 LINE",
"828 718 LINE",
"828 390 LINE",
"22 390 LINE",
"22 0 LINE"
);
}
);
width = 902;
},
{
layerId = "1577B97C-DCC5-4AA4-842F-E9BB22E99E3C";
paths = (
{
closed = 1;
nodes = (
"131 0 LINE",
"131 153 LINE",
"100 153 LINE",
"100 22 LINE",
"51 22 LINE",
"51 352 LINE",
"129 352 LINE",
"129 750 LINE",
"16 750 LINE",
"16 728 LINE",
"98 728 LINE",
"98 374 LINE",
"20 374 LINE",
"20 0 LINE"
);
}
);
userData = {
com.schriftgestaltung.Glyphs.lastChange = "2019-04-28 12:46:41 +0000";
com.typemytype.robofont.pointLabels = {
0Ajshqnglh = (
leftside
);
7u9Rdlg0VM = (
rightside,
rightside,
rightside,
shiftdown,
leftside,
crossbar,
shiftstem,
rightside,
rightside,
leftside,
crossbar,
rightside,
leftside,
crossbar,
rightside,
rightside,
rightside,
leftside,
crossbar,
shiftstem,
rightside,
rightside,
leftside,
crossbar,
rightside,
rightside,
rightside,
leftside,
crossbar,
shiftstem,
rightside,
rightside,
leftside,
crossbar
);
9u0ohc5kfC = (
rightside,
rightside,
rightside,
leftside,
crossbar,
shiftstem,
rightside,
rightside,
leftside,
crossbar
);
BMi3iTgbBs = (
leftside
);
FoZtLrSAm0 = (
rightside,
rightside,
rightside,
shiftdown,
leftside,
crossbar,
shiftstem,
rightside,
rightside,
leftside,
crossbar,
rightside,
leftside,
crossbar,
rightside,
rightside,
rightside,
leftside,
crossbar,
shiftstem,
rightside,
rightside,
leftside,
crossbar,
rightside,
rightside,
rightside,
leftside,
crossbar,
shiftstem,
rightside,
rightside,
leftside,
crossbar
);
IRqxeLL7pC = (
rightside,
rightside,
rightside,
shiftdown,
leftside,
crossbar,
shiftstem,
rightside,
rightside,
leftside,
crossbar,
rightside,
leftside,
crossbar,
rightside,
rightside,
rightside,
leftside,
crossbar,
shiftstem,
rightside,
rightside,
leftside,
crossbar,
rightside,
rightside,
rightside,
leftside,
crossbar,
shiftstem,
rightside,
rightside,
leftside,
crossbar
);
QzZqP70XaF = (
leftside
);
T0oGDgxW6o = (
rightside,
rightside,
rightside,
shiftdown,
leftside,
crossbar,
shiftstem,
rightside,
rightside,
leftside,
crossbar,
rightside,
leftside,
crossbar,
rightside,
rightside,
rightside,
leftside,
crossbar,
shiftstem,
rightside,
rightside,
leftside,
crossbar,
rightside,
rightside,
rightside,
leftside,
crossbar,
shiftstem,
rightside,
rightside,
leftside,
crossbar
);
YW3XpgMoeM = (
rightside,
rightside,
rightside,
shiftdown,
leftside,
crossbar,
shiftstem,
rightside,
rightside,
leftside,
crossbar,
rightside,
leftside,
crossbar,
rightside,
rightside,
rightside,
leftside,
crossbar,
shiftstem,
rightside,
rightside,
leftside,
crossbar,
rightside,
rightside,
rightside,
leftside,
crossbar,
shiftstem,
rightside,
rightside,
leftside,
crossbar
);
bZx9vXVxsz = (
leftside
);
d3YBitZOVz = (
rightside,
rightside,
rightside,
leftside,
crossbar,
shiftstem,
rightside,
rightside,
leftside,
crossbar
);
fasUGvhWy6 = (
rightside,
leftside,
crossbar
);
jhV5w3HiqB = (
rightside,
rightside,
rightside,
shiftdown,
leftside,
crossbar,
shiftstem,
rightside,
rightside,
leftside,
crossbar,
rightside,
leftside,
crossbar,
rightside,
rightside,
rightside,
leftside,
crossbar,
shiftstem,
rightside,
rightside,
leftside,
crossbar,
rightside,
rightside,
rightside,
leftside,
crossbar,
shiftstem,
rightside,
rightside,
leftside,
crossbar
);
n1wmVprBNi = (
rightside,
rightside,
rightside,
shiftdown,
leftside,
crossbar,
shiftstem,
rightside,
rightside,
leftside,
crossbar,
rightside,
leftside,
crossbar,
rightside,
rightside,
rightside,
leftside,
crossbar,
shiftstem,
rightside,
rightside,
leftside,
crossbar,
rightside,
rightside,
rightside,
leftside,
crossbar,
shiftstem,
rightside,
rightside,
leftside,
crossbar
);
tr1cNbQvAW = (
rightside,
rightside,
rightside,
leftside,
crossbar,
shiftstem,
rightside,
rightside,
leftside,
crossbar
);
upRyW44osQ = (
rightside,
rightside,
rightside,
leftside,
crossbar,
shiftstem,
rightside,
rightside,
leftside,
crossbar
);
xHiuR7oaYL = (
rightside,
rightside,
rightside,
leftside,
crossbar,
shiftstem,
rightside,
rightside,
leftside,
crossbar
);
};
};
width = 149;
},
{
layerId = "628C7BDB-7DBE-4EE3-879C-693AF95326D4";
paths = (
{
closed = 1;
nodes = (
"772 0 LINE",
"772 122 LINE",
"431 122 LINE",
"431 122 LINE",
"385 122 LINE",
"385 317 LINE",
"765 317 LINE",
"765 750 LINE",
"54 750 LINE",
"54 628 LINE",
"425 628 LINE",
"425 456 LINE",
"46 456 LINE",
"46 0 LINE"
);
}
);
width = 826;
}
);
unicode = 0032;
},
{
glyphname = three;
lastChange = "2019-09-07 14:40:54 +0000";
layers = (
{
layerId = "41E2CF60-9A62-485C-A680-66BBCCBE3685";
paths = (
{
closed = 1;
nodes = (
"1559 0 LINE",
"1559 403 LINE",
"1174 403 LINE",
"1174 420 LINE",
"1508 497 LINE",
"1508 750 LINE",
"178 750 LINE",
"178 591 LINE",
"530 591 LINE",
"530 591 LINE",
"1043 591 LINE",
"1043 449 LINE",
"845 403 LINE",
"461 403 LINE",
"461 308 LINE",
"1119 308 LINE",
"1119 159 LINE",
"510 159 LINE",
"510 160 LINE",
"158 160 LINE",
"158 0 LINE"
);
}
);
width = 1660;
},
{
layerId = "C9BA7AB2-4C39-4898-B0E1-23BE521DA8C1";
paths = (
{
closed = 1;
nodes = (
"1019 0 LINE",
"1019 374 LINE",
"712 374 LINE",
"712 379 LINE",
"986 524 LINE",
"986 750 LINE",
"28 750 LINE",
"28 543 LINE",
"69 543 LINE",
"69 718 LINE",
"941 718 LINE",
"941 533 LINE",
"662 374 LINE",
"150 374 LINE",
"150 347 LINE",
"978 347 LINE",
"978 35 LINE",
"64 35 LINE",
"64 145 LINE",
"23 145 LINE",
"23 0 LINE"
);
}
);
width = 1041;
},
{
layerId = "1577B97C-DCC5-4AA4-842F-E9BB22E99E3C";
paths = (
{
closed = 1;
nodes = (
"140 0 LINE",
"140 372 LINE",
"103 372 LINE",
"103 374 LINE",
"130 484 LINE",
"130 750 LINE",
"24 750 LINE",
"24 539 LINE",
"55 539 LINE",
"55 728 LINE",
"99 728 LINE",
"99 483 LINE",
"73 372 LINE",
"35 372 LINE",
"35 350 LINE",
"109 350 LINE",
"109 25 LINE",
"52 25 LINE",
"52 143 LINE",
"21 143 LINE",
"21 0 LINE"
);
}
);
userData = {
com.schriftgestaltung.Glyphs.lastChange = "2019-04-28 05:20:01 +0000";
com.typemytype.robofont.pointLabels = {
5lNstGRcSF = (
leftside
);
8aKgEELrVU = (
crossbar,
crossbar,
shiftdown,
rightside,
shiftstem,
crossbar,
crossbar,
rightside,
crossbar,
crossbar,
rightside,
crossbar,
crossbar,
rightside,
crossbar,
crossbar,
crossbar,
crossbar,
rightside,
shiftstem,
crossbar,
crossbar,
rightside,
crossbar,
crossbar,
rightside,
crossbar,
crossbar,
rightside,
crossbar,
crossbar,
crossbar,
rightside,
shiftstem,
crossbar,
crossbar,
rightside,
crossbar,
crossbar,
rightside,
crossbar,
crossbar,
rightside,
crossbar
);
Dm8zjmbhNr = (
crossbar,
crossbar,
shiftdown,
rightside,
shiftstem,
crossbar,
crossbar,
rightside,
crossbar,
crossbar,
rightside,
crossbar,
crossbar,
rightside,
crossbar,
crossbar,
crossbar,
crossbar,
rightside,
shiftstem,
crossbar,
crossbar,
rightside,
crossbar,
crossbar,
rightside,
crossbar,
crossbar,
rightside,
crossbar,
crossbar,
crossbar,
rightside,
shiftstem,
crossbar,
crossbar,
rightside,
crossbar,
crossbar,
rightside,
crossbar,
crossbar,
rightside,
crossbar
);
ELaotnvgYo = (
crossbar,
crossbar,
shiftdown,
rightside,
shiftstem,
crossbar,
crossbar,
rightside,
crossbar,
crossbar,
rightside,
crossbar,
crossbar,
rightside,
crossbar,
crossbar,
crossbar,
crossbar,
rightside,
shiftstem,
crossbar,
crossbar,
rightside,
crossbar,
crossbar,
rightside,
crossbar,
crossbar,
rightside,
crossbar,
crossbar,
crossbar,
rightside,
shiftstem,
crossbar,
crossbar,
rightside,
crossbar,
crossbar,
rightside,
crossbar,
crossbar,
rightside,
crossbar
);
JQaOzDQqlF = (
crossbar,
crossbar,
rightside
);
O9abUc1nmN = (
leftside
);
S91TzLL02W = (
crossbar,
crossbar,
rightside,
shiftstem,
crossbar,
crossbar,
rightside,
crossbar,
crossbar,
rightside,
crossbar,
crossbar,
rightside,
crossbar
);
Wh08I5gjza = (
crossbar,
crossbar,
shiftdown,
rightside,
shiftstem,
crossbar,
crossbar,
rightside,
crossbar,
crossbar,
rightside,
crossbar,
crossbar,
rightside,
crossbar,
crossbar,
crossbar,
crossbar,
rightside,
shiftstem,
crossbar,
crossbar,
rightside,
crossbar,
crossbar,
rightside,
crossbar,
crossbar,
rightside,
crossbar,
crossbar,
crossbar,
rightside,
shiftstem,
crossbar,
crossbar,
rightside,
crossbar,
crossbar,
rightside,
crossbar,
crossbar,
rightside,
crossbar
);
hHOUdv5GGZ = (
crossbar,
crossbar,
shiftdown,
rightside,
shiftstem,
crossbar,
crossbar,
rightside,
crossbar,
crossbar,
rightside,
crossbar,
crossbar,
rightside,
crossbar,
crossbar,
crossbar,
crossbar,
rightside,
shiftstem,
crossbar,
crossbar,
rightside,
crossbar,
crossbar,
rightside,
crossbar,
crossbar,
rightside,
crossbar,
crossbar,
crossbar,
rightside,
shiftstem,
crossbar,
crossbar,
rightside,
crossbar,
crossbar,
rightside,
crossbar,
crossbar,
rightside,
crossbar
);
hItQbJWw8q = (
crossbar,
crossbar,
shiftdown,
rightside,
shiftstem,
crossbar,
crossbar,
rightside,
crossbar,
crossbar,
rightside,
crossbar,
crossbar,
rightside,
crossbar,
crossbar,
crossbar,
crossbar,
rightside,
shiftstem,
crossbar,
crossbar,
rightside,
crossbar,
crossbar,
rightside,
crossbar,
crossbar,
rightside,
crossbar,
crossbar,
crossbar,
rightside,
shiftstem,
crossbar,
crossbar,
rightside,
crossbar,
crossbar,
rightside,
crossbar,
crossbar,
rightside,
crossbar
);
iic1IBkDqp = (
crossbar
);
kMJYMTfXCq = (
crossbar,
crossbar,
rightside,
shiftstem,
crossbar,
crossbar,
rightside,
crossbar,
crossbar,
rightside,
crossbar,
crossbar,
rightside,
crossbar
);
lRLJEhXMlO = (
crossbar
);
pE1XSRiy68 = (
leftside
);
sTkVB2KJVU = (
crossbar,
crossbar,
rightside,
shiftstem,
crossbar,
crossbar,
rightside,
crossbar,
crossbar,
rightside,
crossbar,
crossbar,
rightside,
crossbar
);
su2XmdS8e8 = (
crossbar,
crossbar,
rightside,
shiftstem,
crossbar,
crossbar,
rightside,
crossbar,
crossbar,
rightside,
crossbar,
crossbar,
rightside,
crossbar
);
tVui9PiOjA = (
leftside
);
xg8x2Ki40p = (
crossbar,
crossbar,
rightside,
shiftstem,
crossbar,
crossbar,
rightside,
crossbar,
crossbar,
rightside,
crossbar,
crossbar,
rightside,
crossbar
);
};
};
width = 160;
},
{
layerId = "628C7BDB-7DBE-4EE3-879C-693AF95326D4";
paths = (
{
closed = 1;
nodes = (
"775 0 LINE",
"775 390 LINE",
"530 390 LINE",
"530 400 LINE",
"764 486 LINE",
"764 750 LINE",
"30 750 LINE",
"30 516 LINE",
"368 516 LINE",
"368 648 LINE",
"422 648 LINE",
"422 432 LINE",
"364 407 LINE",
"155 407 LINE",
"155 325 LINE",
"436 325 LINE",
"436 100 LINE",
"365 100 LINE",
"365 191 LINE",
"26 191 LINE",
"26 0 LINE"
);
}
);
width = 808;
}
);
unicode = 0033;
},
{
glyphname = four;
lastChange = "2019-09-07 14:41:54 +0000";
layers = (
{
layerId = "41E2CF60-9A62-485C-A680-66BBCCBE3685";
paths = (
{
closed = 1;
nodes = (
"1514 0 LINE",
"1514 271 LINE",
"1680 271 LINE",
"1680 407 LINE",
"1514 407 LINE",
"1514 650 LINE",
"1075 650 LINE",
"1075 407 LINE",
"469 407 LINE",
"468 425 LINE",
"690 750 LINE",
"257 750 LINE",
"29 420 LINE",
"29 271 LINE",
"1075 271 LINE",
"1075 1 LINE"
);
}
);
width = 1714;
},
{
layerId = "C9BA7AB2-4C39-4898-B0E1-23BE521DA8C1";
paths = (
{
closed = 1;
nodes = (
"847 0 LINE",
"847 337 LINE",
"1025 337 LINE",
"1025 370 LINE",
"847 370 LINE",
"847 650 LINE",
"806 650 LINE",
"806 370 LINE",
"48 370 LINE",
"48 465 LINE",
"186 750 LINE",
"143 750 LINE",
"7 466 LINE",
"7 337 LINE",
"806 337 LINE",
"806 0 LINE"
);
}
);
width = 1030;
},
{
layerId = "1577B97C-DCC5-4AA4-842F-E9BB22E99E3C";
paths = (
{
closed = 1;
nodes = (
"118 0 LINE",
"118 342 LINE",
"141 342 LINE",
"141 367 LINE",
"118 367 LINE",
"118 650 LINE",
"87 650 LINE",
"87 367 LINE",
"36 367 LINE",
"36 469 LINE",
"83 750 LINE",
"52 750 LINE",
"5 467 LINE",
"5 342 LINE",
"87 342 LINE",
"87 0 LINE"
);
}
);
userData = {
com.schriftgestaltung.Glyphs.lastChange = "2019-04-28 05:20:24 +0000";
com.typemytype.robofont.pointLabels = {
0QXjo5xVd7 = (
leftside
);
3o8nGjwlAr = (
shiftstem,
shiftstem,
rightside,
shiftdown,
shiftstem,
shiftstem,
shiftstem,
shiftstem,
shiftstem,
shiftstem,
rightside,
shiftstem,
shiftstem,
shiftstem,
shiftstem,
leftside,
shiftstem
);
5uUyK0YOjd = (
shiftstem
);
5zy514Pjsy = (
leftside
);
87mUCPXnf7 = (
shiftstem,
shiftstem,
rightside,
shiftstem,
shiftstem,
shiftstem,
shiftstem
);
F6j9HZPPg6 = (
shiftstem,
shiftstem,
rightside,
shiftstem,
shiftstem,
shiftstem,
shiftstem
);
Gt9Q6fWZDO = (
shiftstem,
shiftstem,
rightside,
shiftdown,
shiftstem,
shiftstem,
shiftstem,
shiftstem,
shiftstem,
shiftstem,
rightside,
shiftstem,
shiftstem,
shiftstem,
shiftstem,
leftside,
shiftstem
);
MVFFesKOAa = (
shiftstem,
shiftstem,
rightside,
shiftstem,
shiftstem,
shiftstem,
shiftstem
);
UEnHFZRbCT = (
shiftstem
);
fKNhwGeBFr = (
shiftstem
);
gm4Ht9VOkM = (
shiftstem,
shiftstem,
rightside,
shiftdown,
shiftstem,
shiftstem,
shiftstem,
shiftstem,
shiftstem,
shiftstem,
rightside,
shiftstem,
shiftstem,
shiftstem,
shiftstem,
leftside,
shiftstem
);
iUuOc5ULWV = (
shiftstem,
shiftstem,
rightside,
shiftstem,
shiftstem,
shiftstem,
shiftstem
);
lqkGsbOAni = (
shiftstem,
shiftstem,
rightside,
shiftdown,
shiftstem,
shiftstem,
shiftstem,
shiftstem,
shiftstem,
shiftstem,
rightside,
shiftstem,
shiftstem,
shiftstem,
shiftstem,
leftside,
shiftstem
);
};
};
width = 144;
},
{
layerId = "628C7BDB-7DBE-4EE3-879C-693AF95326D4";
paths = (
{
closed = 1;
nodes = (
"785 0 LINE",
"785 312 LINE",
"849 312 LINE",
"849 397 LINE",
"785 397 LINE",
"785 650 LINE",
"446 650 LINE",
"446 397 LINE",
"373 397 LINE",
"373 467 LINE",
"425 750 LINE",
"86 750 LINE",
"34 465 LINE",
"34 312 LINE",
"446 312 LINE",
"446 0 LINE"
);
}
);
width = 864;
}
);
unicode = 0034;
},
{
glyphname = five;
lastChange = "2019-09-07 14:45:04 +0000";
layers = (
{
layerId = "41E2CF60-9A62-485C-A680-66BBCCBE3685";
paths = (
{
closed = 1;
nodes = (
"1495 0 LINE",
"1659 178 LINE",
"1659 450 LINE",
"528 450 LINE",
"528 588 LINE",
"1654 588 LINE",
"1654 750 LINE",
"88 750 LINE",
"88 297 LINE",
"1252 297 LINE",
"1252 254 LINE",
"1157 159 LINE",
"528 159 LINE",
"528 159 LINE",
"88 159 LINE",
"88 0 LINE"
);
}
);
width = 1711;
},
{
layerId = "C9BA7AB2-4C39-4898-B0E1-23BE521DA8C1";
paths = (
{
closed = 1;
nodes = (
"994 0 LINE",
"1029 110 LINE",
"1029 386 LINE",
"65 386 LINE",
"65 715 LINE",
"1024 715 LINE",
"1024 750 LINE",
"24 750 LINE",
"24 353 LINE",
"988 353 LINE",
"988 117 LINE",
"962 35 LINE",
"65 35 LINE",
"65 222 LINE",
"24 222 LINE",
"24 0 LINE"
);
}
);
width = 1045;
},
{
layerId = "1577B97C-DCC5-4AA4-842F-E9BB22E99E3C";
paths = (
{
closed = 1;
nodes = (
"117 0 LINE",
"147 108 LINE",
"147 381 LINE",
"53 381 LINE",
"53 725 LINE",
"142 725 LINE",
"142 750 LINE",
"22 750 LINE",
"22 356 LINE",
"116 356 LINE",
"116 108 LINE",
"92 25 LINE",
"53 25 LINE",
"53 225 LINE",
"22 225 LINE",
"22 0 LINE"
);
}
);
userData = {
com.schriftgestaltung.Glyphs.lastChange = "2019-04-28 05:25:33 +0000";
com.typemytype.robofont.pointLabels = {
67OQwBBnmN = (
leftside,
rightside,
leftside,
shiftstem,
crossbar,
rightside,
leftside,
shiftdown,
crossbar,
rightside,
leftside,
crossbar,
rightside,
leftside,
rightside,
leftside,
shiftdown,
crossbar,
rightside,
leftside,
crossbar,
rightside,
rightside,
leftside,
shiftdown,
crossbar,
rightside,
leftside,
crossbar,
rightside,
leftside
);
AlMtGpcmf6 = (
rightside,
leftside,
crossbar
);
GxHslptW0F = (
leftside,
rightside,
leftside,
shiftstem,
crossbar,
rightside,
leftside,
shiftdown,
crossbar,
rightside,
leftside,
crossbar,
rightside,
leftside,
rightside,
leftside,
shiftdown,
crossbar,
rightside,
leftside,
crossbar,
rightside,
rightside,
leftside,
shiftdown,
crossbar,
rightside,
leftside,
crossbar,
rightside,
leftside
);
PQcmPiIIfB = (
leftside,
rightside,
leftside,
shiftstem,
crossbar,
rightside,
leftside,
shiftdown,
crossbar,
rightside,
leftside,
crossbar,
rightside,
leftside,
rightside,
leftside,
shiftdown,
crossbar,
rightside,
leftside,
crossbar,
rightside,
rightside,
leftside,
shiftdown,
crossbar,
rightside,
leftside,
crossbar,
rightside,
leftside
);
SEc1uXjMAS = (
leftside,
rightside,
leftside,
shiftstem,
crossbar,
rightside,
leftside,
shiftdown,
crossbar,
rightside,
leftside,
crossbar,
rightside,
leftside,
rightside,
leftside,
shiftdown,
crossbar,
rightside,
leftside,
crossbar,
rightside,
rightside,
leftside,
shiftdown,
crossbar,
rightside,
leftside,
crossbar,
rightside,
leftside
);
SWxRhN59bN = (
rightside
);
Wam28MqnPG = (
leftside,
rightside,
leftside,
shiftstem,
crossbar,
rightside,
leftside,
shiftdown,
crossbar,
rightside,
leftside,
crossbar,
rightside,
leftside,
rightside,
leftside,
shiftdown,
crossbar,
rightside,
leftside,
crossbar,
rightside,
rightside,
leftside,
shiftdown,
crossbar,
rightside,
leftside,
crossbar,
rightside,
leftside
);
X2pSUpzeW3 = (
leftside,
rightside,
leftside,
shiftstem,
crossbar,
rightside,
leftside,
shiftdown,
crossbar,
rightside,
leftside,
crossbar,
rightside,
leftside,
rightside,
leftside,
shiftdown,
crossbar,
rightside,
leftside,
crossbar,
rightside,
rightside,
leftside,
shiftdown,
crossbar,
rightside,
leftside,
crossbar,
rightside,
leftside
);
c38TcsNPOL = (
rightside,
leftside,
shiftdown,
crossbar,
rightside,
leftside,
crossbar,
rightside
);
ejjvaR50qr = (
leftside,
rightside,
leftside,
shiftstem,
crossbar,
rightside,
leftside,
shiftdown,
crossbar,
rightside,
leftside,
crossbar,
rightside,
leftside,
rightside,
leftside,
shiftdown,
crossbar,
rightside,
leftside,
crossbar,
rightside,
rightside,
leftside,
shiftdown,
crossbar,
rightside,
leftside,
crossbar,
rightside,
leftside
);
kEx7Jk7fPR = (
rightside
);
pdTUrgsN3b = (
leftside,
rightside,
leftside,
shiftstem,
crossbar,
rightside,
leftside,
shiftdown,
crossbar,
rightside,
leftside,
crossbar,
rightside,
leftside,
rightside,
leftside,
shiftdown,
crossbar,
rightside,
leftside,
crossbar,
rightside,
rightside,
leftside,
shiftdown,
crossbar,
rightside,
leftside,
crossbar,
rightside,
leftside
);
prIgWVwwNU = (
rightside,
leftside,
shiftdown,
crossbar,
rightside,
leftside,
crossbar,
rightside
);
pwqGB8iowo = (
rightside,
leftside,
shiftdown,
crossbar,
rightside,
leftside,
crossbar,
rightside
);
zlgP441jBh = (
rightside
);
};
};
width = 159;
},
{
layerId = "628C7BDB-7DBE-4EE3-879C-693AF95326D4";
paths = (
{
closed = 1;
nodes = (
"685 0 LINE",
"778 162 LINE",
"778 459 LINE",
"370 459 LINE",
"370 645 LINE",
"761 645 LINE",
"761 750 LINE",
"31 750 LINE",
"31 334 LINE",
"441 334 LINE",
"441 160 LINE",
"412 100 LINE",
"370 100 LINE",
"370 201 LINE",
"31 201 LINE",
"31 0 LINE"
);
}
);
width = 809;
}
);
unicode = 0035;
},
{
glyphname = six;
lastChange = "2019-09-07 14:45:56 +0000";
layers = (
{
layerId = "41E2CF60-9A62-485C-A680-66BBCCBE3685";
paths = (
{
closed = 1;
nodes = (
"1668 0 LINE",
"1668 400 LINE",
"507 400 LINE",
"507 423 LINE",
"597 591 LINE",
"1179 591 LINE",
"1179 591 LINE",
"1649 591 LINE",
"1649 750 LINE",
"231 750 LINE",
"67 486 LINE",
"67 0 LINE"
);
},
{
closed = 1;
nodes = (
"507 291 LINE",
"1228 291 LINE",
"1228 159 LINE",
"507 159 LINE"
);
}
);
width = 1712;
},
{
layerId = "C9BA7AB2-4C39-4898-B0E1-23BE521DA8C1";
paths = (
{
closed = 1;
nodes = (
"1070 0 LINE",
"1070 367 LINE",
"112 367 LINE",
"112 558 LINE",
"224 718 LINE",
"1024 718 LINE",
"1024 540 LINE",
"1066 540 LINE",
"1066 750 LINE",
"203 750 LINE",
"71 562 LINE",
"71 0 LINE"
);
},
{
closed = 1;
nodes = (
"112 339 LINE",
"1029 339 LINE",
"1029 32 LINE",
"112 32 LINE"
);
}
);
width = 1141;
},
{
layerId = "1577B97C-DCC5-4AA4-842F-E9BB22E99E3C";
paths = (
{
closed = 1;
nodes = (
"135 0 LINE",
"135 365 LINE",
"47 365 LINE",
"47 649 LINE",
"83 728 LINE",
"103 728 LINE",
"103 538 LINE",
"134 538 LINE",
"134 750 LINE",
"63 750 LINE",
"16 650 LINE",
"16 0 LINE"
);
},
{
closed = 1;
nodes = (
"47 343 LINE",
"104 343 LINE",
"104 22 LINE",
"47 22 LINE"
);
}
);
userData = {
com.schriftgestaltung.Glyphs.lastChange = "2019-04-28 04:43:13 +0000";
com.typemytype.robofont.pointLabels = {
23o5fiSRnp = (
rightside,
rightside,
rightside,
rightside,
shiftdown,
shiftstem,
rightside,
rightside,
rightside,
rightside,
shiftstem,
rightside,
rightside,
rightside,
rightside,
shiftstem
);
2G5L37c87I = (
rightside,
rightside,
rightside,
rightside,
shiftstem
);
KnMArb0tv8 = (
leftside
);
Wuidbv6mUe = (
rightside,
rightside,
rightside,
rightside,
shiftstem
);
YOi5EAedMV = (
rightside,
rightside,
rightside,
rightside,
shiftdown,
shiftstem,
rightside,
rightside,
rightside,
rightside,
shiftstem,
rightside,
rightside,
rightside,
rightside,
shiftstem
);
cywJcF6qDi = (
rightside,
rightside,
rightside,
rightside,
shiftdown,
shiftstem,
rightside,
rightside,
rightside,
rightside,
shiftstem,
rightside,
rightside,
rightside,
rightside,
shiftstem
);
f7FTdpbe3L = (
rightside,
rightside,
rightside,
rightside,
shiftdown,
shiftstem,
rightside,
rightside,
rightside,
rightside,
shiftstem,
rightside,
rightside,
rightside,
rightside,
shiftstem
);
fFNkYYd4JZ = (
rightside,
rightside,
rightside,
rightside,
shiftdown,
shiftstem,
rightside,
rightside,
rightside,
rightside,
shiftstem,
rightside,
rightside,
rightside,
rightside,
shiftstem
);
jtYkxiUX6G = (
rightside,
rightside,
rightside,
rightside,
shiftstem
);
oGvEEuxnYv = (
rightside,
rightside,
rightside,
rightside,
shiftstem
);
qU5YY3GRgH = (
rightside,
rightside,
rightside,
rightside,
shiftdown,
shiftstem,
rightside,
rightside,
rightside,
rightside,
shiftstem,
rightside,
rightside,
rightside,
rightside,
shiftstem
);
s5ynRbZMSV = (
rightside,
rightside,
rightside,
rightside,
shiftdown,
shiftstem,
rightside,
rightside,
rightside,
rightside,
shiftstem,
rightside,
rightside,
rightside,
rightside,
shiftstem
);
uiw6aBUf4P = (
leftside
);
vffBcfDei6 = (
rightside,
rightside,
rightside,
rightside,
shiftstem
);
xR3pEHbMJx = (
leftside
);
};
};
width = 153;
},
{
layerId = "628C7BDB-7DBE-4EE3-879C-693AF95326D4";
paths = (
{
closed = 1;
nodes = (
"790 0 LINE",
"790 392 LINE",
"365 392 LINE",
"365 507 LINE",
"401 648 LINE",
"431 648 LINE",
"431 526 LINE",
"770 526 LINE",
"770 750 LINE",
"101 750 LINE",
"26 586 LINE",
"26 0 LINE"
);
},
{
closed = 1;
nodes = (
"365 306 LINE",
"441 306 LINE",
"441 102 LINE",
"365 102 LINE"
);
}
);
width = 821;
}
);
unicode = 0036;
},
{
glyphname = seven;
lastChange = "2019-09-07 14:46:14 +0000";
layers = (
{
layerId = "41E2CF60-9A62-485C-A680-66BBCCBE3685";
paths = (
{
closed = 1;
nodes = (
"915 0 LINE",
"1499 552 LINE",
"1499 750 LINE",
"62 750 LINE",
"62 423 LINE",
"491 423 LINE",
"491 588 LINE",
"1059 588 LINE",
"1059 554 LINE",
"522 0 LINE"
);
}
);
width = 1526;
},
{
layerId = "C9BA7AB2-4C39-4898-B0E1-23BE521DA8C1";
paths = (
{
closed = 1;
nodes = (
"325 0 LINE",
"998 599 LINE",
"998 750 LINE",
"7 750 LINE",
"7 484 LINE",
"45 484 LINE",
"45 715 LINE",
"957 715 LINE",
"957 608 LINE",
"270 0 LINE"
);
}
);
width = 1011;
},
{
layerId = "1577B97C-DCC5-4AA4-842F-E9BB22E99E3C";
paths = (
{
closed = 1;
nodes = (
"70 0 LINE",
"123 614 LINE",
"123 750 LINE",
"5 750 LINE",
"5 537 LINE",
"33 537 LINE",
"33 725 LINE",
"92 725 LINE",
"92 613 LINE",
"39 0 LINE"
);
}
);
userData = {
com.schriftgestaltung.Glyphs.lastChange = "2019-04-28 04:57:05 +0000";
com.typemytype.robofont.pointLabels = {
36ml4xRICt = (
leftside
);
IGCfImNcKU = (
rigtside,
rigtside,
rigtside,
shiftstem
);
PiPrv7Kcoy = (
rigtside,
rigtside,
rigtside,
shiftstem
);
PkvwNC9Tx1 = (
rigtside,
rigtside,
rigtside,
shiftstem
);
V0eBQmefRd = (
rigtside,
rigtside,
rigtside,
shiftstem,
shiftdown
);
aaDZsh5Mah = (
leftside
);
bfnwkh3o68 = (
rigtside,
rigtside,
rigtside,
shiftstem,
shiftdown
);
dmzWlEmzOe = (
rigtside,
rigtside,
rigtside,
shiftstem
);
tgqM27bPOm = (
rigtside,
rigtside,
rigtside,
shiftstem
);
};
};
width = 134;
},
{
layerId = "628C7BDB-7DBE-4EE3-879C-693AF95326D4";
paths = (
{
closed = 1;
nodes = (
"545 0 LINE",
"763 548 LINE",
"763 750 LINE",
"28 750 LINE",
"28 480 LINE",
"342 480 LINE",
"342 645 LINE",
"424 645 LINE",
"424 537 LINE",
"226 0 LINE"
);
}
);
width = 781;
}
);
unicode = 0037;
},
{
glyphname = eight;
lastChange = "2019-09-07 14:46:49 +0000";
layers = (
{
layerId = "41E2CF60-9A62-485C-A680-66BBCCBE3685";
paths = (
{
closed = 1;
nodes = (
"1559 0 LINE",
"1559 288 LINE",
"1269 366 LINE",
"1269 381 LINE",
"1539 427 LINE",
"1539 750 LINE",
"52 750 LINE",
"52 427 LINE",
"326 381 LINE",
"326 366 LINE",
"32 288 LINE",
"32 0 LINE"
);
},
{
closed = 1;
nodes = (
"471 295 LINE",
"573 328 LINE",
"1021 328 LINE",
"1119 294 LINE",
"1119 155 LINE",
"471 155 LINE"
);
},
{
closed = 1;
nodes = (
"472 454 LINE",
"472 595 LINE",
"1118 595 LINE",
"1118 454 LINE",
"1019 423 LINE",
"576 423 LINE"
);
}
);
width = 1591;
},
{
layerId = "C9BA7AB2-4C39-4898-B0E1-23BE521DA8C1";
paths = (
{
closed = 1;
nodes = (
"1043 0 LINE",
"1043 288 LINE",
"890 369 LINE",
"890 372 LINE",
"1042 447 LINE",
"1042 750 LINE",
"47 750 LINE",
"47 446 LINE",
"204 372 LINE",
"204 369 LINE",
"46 288 LINE",
"46 0 LINE"
);
},
{
closed = 1;
nodes = (
"87 276 LINE",
"235 356 LINE",
"857 356 LINE",
"1002 276 LINE",
"1002 32 LINE",
"87 32 LINE"
);
},
{
closed = 1;
nodes = (
"88 458 LINE",
"88 718 LINE",
"1001 718 LINE",
"1001 458 LINE",
"855 385 LINE",
"239 385 LINE"
);
}
);
width = 1094;
},
{
layerId = "1577B97C-DCC5-4AA4-842F-E9BB22E99E3C";
paths = (
{
closed = 1;
nodes = (
"133 0 LINE",
"133 313 LINE",
"91 370 LINE",
"91 372 LINE",
"132 422 LINE",
"132 750 LINE",
"14 750 LINE",
"14 422 LINE",
"55 372 LINE",
"55 370 LINE",
"13 313 LINE",
"13 0 LINE"
);
},
{
closed = 1;
nodes = (
"44 306 LINE",
"72 356 LINE",
"74 356 LINE",
"102 306 LINE",
"102 22 LINE",
"44 22 LINE"
);
},
{
closed = 1;
nodes = (
"45 431 LINE",
"45 728 LINE",
"101 728 LINE",
"101 431 LINE",
"74 387 LINE",
"72 387 LINE"
);
}
);
userData = {
com.schriftgestaltung.Glyphs.lastChange = "2019-04-28 05:46:24 +0000";
com.typemytype.robofont.pointLabels = {
2AoyMNBDus = (
crossbar,
crossbar,
crossbar,
crossbar,
leftside
);
3RUxnrTvXW = (
crossbar,
crossbar,
crossbar,
shiftdown,
crossbar,
crossbar,
crossbar,
shiftstem,
crossbar,
crossbar,
rightside,
crossbar,
crossbar,
rightside,
rightside,
crossbar,
crossbar,
rightside,
crossbar,
crossbar,
rightside,
crossbar,
crossbar,
crossbar,
crossbar,
rightside,
crossbar,
crossbar,
rightside,
rightside,
crossbar,
crossbar,
rightside,
crossbar,
crossbar,
rightside,
crossbar,
crossbar,
crossbar,
crossbar,
rightside,
crossbar,
crossbar,
rightside,
rightside,
crossbar,
crossbar,
rightside,
crossbar,
crossbar,
rightside,
crossbar,
crossbar,
crossbar,
crossbar,
rightside,
crossbar,
crossbar,
rightside,
rightside,
crossbar,
crossbar,
rightside,
crossbar,
crossbar,
rightside,
crossbar,
crossbar,
crossbar,
crossbar,
rightside,
crossbar,
crossbar,
rightside,
rightside,
crossbar,
crossbar,
rightside,
crossbar,
crossbar,
rightside,
crossbar,
crossbar,
crossbar,
crossbar,
rightside,
crossbar,
crossbar,
rightside,
rightside,
crossbar,
crossbar,
rightside,
crossbar,
crossbar,
rightside,
crossbar,
crossbar,
crossbar,
crossbar,
crossbar,
crossbar,
shiftstem,
crossbar,
crossbar,
rightside,
crossbar,
crossbar,
rightside,
rightside,
crossbar,
crossbar,
rightside,
crossbar,
crossbar,
rightside,
crossbar,
crossbar,
crossbar,
crossbar,
rightside,
crossbar,
crossbar,
rightside,
rightside,
crossbar,
crossbar,
rightside,
crossbar,
crossbar,
rightside,
crossbar,
crossbar,
crossbar,
crossbar,
rightside,
crossbar,
crossbar,
rightside,
rightside,
crossbar,
crossbar,
rightside,
crossbar,
crossbar,
rightside,
crossbar,
crossbar,
crossbar,
crossbar,
rightside,
crossbar,
crossbar,
rightside,
rightside,
crossbar,
crossbar,
rightside,
crossbar,
crossbar,
rightside,
crossbar,
crossbar,
crossbar,
crossbar,
rightside,
crossbar,
crossbar,
rightside,
rightside,
crossbar,
crossbar,
rightside,
crossbar,
crossbar,
rightside,
crossbar,
crossbar,
crossbar,
crossbar,
rightside,
crossbar,
crossbar,
rightside,
rightside,
crossbar,
crossbar,
rightside,
crossbar,
crossbar,
rightside,
crossbar,
crossbar,
crossbar,
crossbar,
crossbar,
crossbar,
crossbar,
crossbar,
shiftstem,
crossbar,
crossbar,
rightside,
crossbar,
crossbar,
rightside,
rightside,
crossbar,
crossbar,
rightside,
crossbar,
crossbar,
rightside,
crossbar,
crossbar,
crossbar,
crossbar,
rightside,
crossbar,
crossbar,
rightside,
rightside,
crossbar,
crossbar,
rightside,
crossbar,
crossbar,
rightside,
crossbar,
crossbar,
crossbar,
crossbar,
rightside,
crossbar,
crossbar,
rightside,
rightside,
crossbar,
crossbar,
rightside,
crossbar,
crossbar,
rightside,
crossbar,
crossbar,
crossbar,
crossbar,
rightside,
crossbar,
crossbar,
rightside,
rightside,
crossbar,
crossbar,
rightside,
crossbar,
crossbar,
rightside,
crossbar,
crossbar,
crossbar,
crossbar,
rightside,
crossbar,
crossbar,
rightside,
rightside,
crossbar,
crossbar,
rightside,
crossbar,
crossbar,
rightside,
crossbar,
crossbar,
crossbar,
crossbar,
rightside,
crossbar,
crossbar,
rightside,
rightside,
crossbar,
crossbar,
rightside,
crossbar,
crossbar,
rightside,
crossbar,
crossbar,
crossbar,
crossbar,
crossbar,
crossbar,
shiftstem,
crossbar,
crossbar,
rightside,
crossbar,
crossbar,
rightside,
rightside,
crossbar,
crossbar,
rightside,
crossbar,
crossbar,
rightside,
crossbar,
crossbar,
crossbar,
crossbar,
rightside,
crossbar,
crossbar,
rightside,
rightside,
crossbar,
crossbar,
rightside,
crossbar,
crossbar,
rightside,
crossbar,
crossbar,
crossbar,
crossbar,
rightside,
crossbar,
crossbar,
rightside,
rightside,
crossbar,
crossbar,
rightside,
crossbar,
crossbar,
rightside,
crossbar,
crossbar,
crossbar,
crossbar,
rightside,
crossbar,
crossbar,
rightside,
rightside,
crossbar,
crossbar,
rightside,
crossbar,
crossbar,
rightside,
crossbar,
crossbar,
crossbar,
crossbar,
rightside,
crossbar,
crossbar,
rightside,
rightside,
crossbar,
crossbar,
rightside,
crossbar,
crossbar,
rightside,
crossbar,
crossbar,
crossbar,
crossbar,
rightside,
crossbar,
crossbar,
rightside,
rightside,
crossbar,
crossbar,
rightside,
crossbar,
crossbar,
rightside,
crossbar,
crossbar
);
DmhYpjojFU = (
crossbar,
crossbar,
crossbar,
shiftdown,
crossbar,
crossbar,
crossbar,
shiftstem,
crossbar,
crossbar,
rightside,
crossbar,
crossbar,
rightside,
rightside,
crossbar,
crossbar,
rightside,
crossbar,
crossbar,
rightside,
crossbar,
crossbar,
crossbar,
crossbar,
rightside,
crossbar,
crossbar,
rightside,
rightside,
crossbar,
crossbar,
rightside,
crossbar,
crossbar,
rightside,
crossbar,
crossbar,
crossbar,
crossbar,
rightside,
crossbar,
crossbar,
rightside,
rightside,
crossbar,
crossbar,
rightside,
crossbar,
crossbar,
rightside,
crossbar,
crossbar,
crossbar,
crossbar,
rightside,
crossbar,
crossbar,
rightside,
rightside,
crossbar,
crossbar,
rightside,
crossbar,
crossbar,
rightside,
crossbar,
crossbar,
crossbar,
crossbar,
rightside,
crossbar,
crossbar,
rightside,
rightside,
crossbar,
crossbar,
rightside,
crossbar,
crossbar,
rightside,
crossbar,
crossbar,
crossbar,
crossbar,
rightside,
crossbar,
crossbar,
rightside,
rightside,
crossbar,
crossbar,
rightside,
crossbar,
crossbar,
rightside,
crossbar,
crossbar,
crossbar,
crossbar,
crossbar,
crossbar,
shiftstem,
crossbar,
crossbar,
rightside,
crossbar,
crossbar,
rightside,
rightside,
crossbar,
crossbar,
rightside,
crossbar,
crossbar,
rightside,
crossbar,
crossbar,
crossbar,
crossbar,
rightside,
crossbar,
crossbar,
rightside,
rightside,
crossbar,
crossbar,
rightside,
crossbar,
crossbar,
rightside,
crossbar,
crossbar,
crossbar,
crossbar,
rightside,
crossbar,
crossbar,
rightside,
rightside,
crossbar,
crossbar,
rightside,
crossbar,
crossbar,
rightside,
crossbar,
crossbar,
crossbar,
crossbar,
rightside,
crossbar,
crossbar,
rightside,
rightside,
crossbar,
crossbar,
rightside,
crossbar,
crossbar,
rightside,
crossbar,
crossbar,
crossbar,
crossbar,
rightside,
crossbar,
crossbar,
rightside,
rightside,
crossbar,
crossbar,
rightside,
crossbar,
crossbar,
rightside,
crossbar,
crossbar,
crossbar,
crossbar,
rightside,
crossbar,
crossbar,
rightside,
rightside,
crossbar,
crossbar,
rightside,
crossbar,
crossbar,
rightside,
crossbar,
crossbar,
crossbar,
crossbar,
crossbar,
crossbar,
crossbar,
crossbar,
shiftstem,
crossbar,
crossbar,
rightside,
crossbar,
crossbar,
rightside,
rightside,
crossbar,
crossbar,
rightside,
crossbar,
crossbar,
rightside,
crossbar,
crossbar,
crossbar,
crossbar,
rightside,
crossbar,
crossbar,
rightside,
rightside,
crossbar,
crossbar,
rightside,
crossbar,
crossbar,
rightside,
crossbar,
crossbar,
crossbar,
crossbar,
rightside,
crossbar,
crossbar,
rightside,
rightside,
crossbar,
crossbar,
rightside,
crossbar,
crossbar,
rightside,
crossbar,
crossbar,
crossbar,
crossbar,
rightside,
crossbar,
crossbar,
rightside,
rightside,
crossbar,
crossbar,
rightside,
crossbar,
crossbar,
rightside,
crossbar,
crossbar,
crossbar,
crossbar,
rightside,
crossbar,
crossbar,
rightside,
rightside,
crossbar,
crossbar,
rightside,
crossbar,
crossbar,
rightside,
crossbar,
crossbar,
crossbar,
crossbar,
rightside,
crossbar,
crossbar,
rightside,
rightside,
crossbar,
crossbar,
rightside,
crossbar,
crossbar,
rightside,
crossbar,
crossbar,
crossbar,
crossbar,
crossbar,
crossbar,
shiftstem,
crossbar,
crossbar,
rightside,
crossbar,
crossbar,
rightside,
rightside,
crossbar,
crossbar,
rightside,
crossbar,
crossbar,
rightside,
crossbar,
crossbar,
crossbar,
crossbar,
rightside,
crossbar,
crossbar,
rightside,
rightside,
crossbar,
crossbar,
rightside,
crossbar,
crossbar,
rightside,
crossbar,
crossbar,
crossbar,
crossbar,
rightside,
crossbar,
crossbar,
rightside,
rightside,
crossbar,
crossbar,
rightside,
crossbar,
crossbar,
rightside,
crossbar,
crossbar,
crossbar,
crossbar,
rightside,
crossbar,
crossbar,
rightside,
rightside,
crossbar,
crossbar,
rightside,
crossbar,
crossbar,
rightside,
crossbar,
crossbar,
crossbar,
crossbar,
rightside,
crossbar,
crossbar,
rightside,
rightside,
crossbar,
crossbar,
rightside,
crossbar,
crossbar,
rightside,
crossbar,
crossbar,
crossbar,
crossbar,
rightside,
crossbar,
crossbar,
rightside,
rightside,
crossbar,
crossbar,
rightside,
crossbar,
crossbar,
rightside,
crossbar,
crossbar
);
HtiNjuVoMT = (
crossbar,
crossbar,
crossbar,
crossbar,
shiftstem,
crossbar,
crossbar,
rightside,
crossbar,
crossbar,
rightside,
rightside,
crossbar,
crossbar,
rightside,
crossbar,
crossbar,
rightside,
crossbar,
crossbar,
crossbar,
crossbar,
rightside,
crossbar,
crossbar,
rightside,
rightside,
crossbar,
crossbar,
rightside,
crossbar,
crossbar,
rightside,
crossbar,
crossbar,
crossbar,
crossbar,
rightside,
crossbar,
crossbar,
rightside,
rightside,
crossbar,
crossbar,
rightside,
crossbar,
crossbar,
rightside,
crossbar,
crossbar,
crossbar,
crossbar,
rightside,
crossbar,
crossbar,
rightside,
rightside,
crossbar,
crossbar,
rightside,
crossbar,
crossbar,
rightside,
crossbar,
crossbar,
crossbar,
crossbar,
rightside,
crossbar,
crossbar,
rightside,
rightside,
crossbar,
crossbar,
rightside,
crossbar,
crossbar,
rightside,
crossbar,
crossbar,
crossbar,
crossbar,
rightside,
crossbar,
crossbar,
rightside,
rightside,
crossbar,
crossbar,
rightside,
crossbar,
crossbar,
rightside,
crossbar,
crossbar
);
Hxl70cp8II = (
crossbar,
crossbar,
crossbar,
crossbar,
shiftstem,
crossbar,
crossbar,
rightside,
crossbar,
crossbar,
rightside,
rightside,
crossbar,
crossbar,
rightside,
crossbar,
crossbar,
rightside,
crossbar,
crossbar,
crossbar,
crossbar,
rightside,
crossbar,
crossbar,
rightside,
rightside,
crossbar,
crossbar,
rightside,
crossbar,
crossbar,
rightside,
crossbar,
crossbar,
crossbar,
crossbar,
rightside,
crossbar,
crossbar,
rightside,
rightside,
crossbar,
crossbar,
rightside,
crossbar,
crossbar,
rightside,
crossbar,
crossbar,
crossbar,
crossbar,
rightside,
crossbar,
crossbar,
rightside,
rightside,
crossbar,
crossbar,
rightside,
crossbar,
crossbar,
rightside,
crossbar,
crossbar,
crossbar,
crossbar,
rightside,
crossbar,
crossbar,
rightside,
rightside,
crossbar,
crossbar,
rightside,
crossbar,
crossbar,
rightside,
crossbar,
crossbar,
crossbar,
crossbar,
rightside,
crossbar,
crossbar,
rightside,
rightside,
crossbar,
crossbar,
rightside,
crossbar,
crossbar,
rightside,
crossbar,
crossbar
);
JvPOtaXHlU = (
crossbar,
crossbar,
crossbar,
shiftdown,
crossbar,
crossbar,
crossbar,
shiftstem,
crossbar,
crossbar,
rightside,
crossbar,
crossbar,
rightside,
rightside,
crossbar,
crossbar,
rightside,
crossbar,
crossbar,
rightside,
crossbar,
crossbar,
crossbar,
crossbar,
rightside,
crossbar,
crossbar,
rightside,
rightside,
crossbar,
crossbar,
rightside,
crossbar,
crossbar,
rightside,
crossbar,
crossbar,
crossbar,
crossbar,
rightside,
crossbar,
crossbar,
rightside,
rightside,
crossbar,
crossbar,
rightside,
crossbar,
crossbar,
rightside,
crossbar,
crossbar,
crossbar,
crossbar,
rightside,
crossbar,
crossbar,
rightside,
rightside,
crossbar,
crossbar,
rightside,
crossbar,
crossbar,
rightside,
crossbar,
crossbar,
crossbar,
crossbar,
rightside,
crossbar,
crossbar,
rightside,
rightside,
crossbar,
crossbar,
rightside,
crossbar,
crossbar,
rightside,
crossbar,
crossbar,
crossbar,
crossbar,
rightside,
crossbar,
crossbar,
rightside,
rightside,
crossbar,
crossbar,
rightside,
crossbar,
crossbar,
rightside,
crossbar,
crossbar,
crossbar,
crossbar,
crossbar,
crossbar,
shiftstem,
crossbar,
crossbar,
rightside,
crossbar,
crossbar,
rightside,
rightside,
crossbar,
crossbar,
rightside,
crossbar,
crossbar,
rightside,
crossbar,
crossbar,
crossbar,
crossbar,
rightside,
crossbar,
crossbar,
rightside,
rightside,
crossbar,
crossbar,
rightside,
crossbar,
crossbar,
rightside,
crossbar,
crossbar,
crossbar,
crossbar,
rightside,
crossbar,
crossbar,
rightside,
rightside,
crossbar,
crossbar,
rightside,
crossbar,
crossbar,
rightside,
crossbar,
crossbar,
crossbar,
crossbar,
rightside,
crossbar,
crossbar,
rightside,
rightside,
crossbar,
crossbar,
rightside,
crossbar,
crossbar,
rightside,
crossbar,
crossbar,
crossbar,
crossbar,
rightside,
crossbar,
crossbar,
rightside,
rightside,
crossbar,
crossbar,
rightside,
crossbar,
crossbar,
rightside,
crossbar,
crossbar,
crossbar,
crossbar,
rightside,
crossbar,
crossbar,
rightside,
rightside,
crossbar,
crossbar,
rightside,
crossbar,
crossbar,
rightside,
crossbar,
crossbar,
crossbar,
crossbar,
crossbar,
crossbar,
crossbar,
crossbar,
shiftstem,
crossbar,
crossbar,
rightside,
crossbar,
crossbar,
rightside,
rightside,
crossbar,
crossbar,
rightside,
crossbar,
crossbar,
rightside,
crossbar,
crossbar,
crossbar,
crossbar,
rightside,
crossbar,
crossbar,
rightside,
rightside,
crossbar,
crossbar,
rightside,
crossbar,
crossbar,
rightside,
crossbar,
crossbar,
crossbar,
crossbar,
rightside,
crossbar,
crossbar,
rightside,
rightside,
crossbar,
crossbar,
rightside,
crossbar,
crossbar,
rightside,
crossbar,
crossbar,
crossbar,
crossbar,
rightside,
crossbar,
crossbar,
rightside,
rightside,
crossbar,
crossbar,
rightside,
crossbar,
crossbar,
rightside,
crossbar,
crossbar,
crossbar,
crossbar,
rightside,
crossbar,
crossbar,
rightside,
rightside,
crossbar,
crossbar,
rightside,
crossbar,
crossbar,
rightside,
crossbar,
crossbar,
crossbar,
crossbar,
rightside,
crossbar,
crossbar,
rightside,
rightside,
crossbar,
crossbar,
rightside,
crossbar,
crossbar,
rightside,
crossbar,
crossbar,
crossbar,
crossbar,
crossbar,
crossbar,
shiftstem,
crossbar,
crossbar,
rightside,
crossbar,
crossbar,
rightside,
rightside,
crossbar,
crossbar,
rightside,
crossbar,
crossbar,
rightside,
crossbar,
crossbar,
crossbar,
crossbar,
rightside,
crossbar,
crossbar,
rightside,
rightside,
crossbar,
crossbar,
rightside,
crossbar,
crossbar,
rightside,
crossbar,
crossbar,
crossbar,
crossbar,
rightside,
crossbar,
crossbar,
rightside,
rightside,
crossbar,
crossbar,
rightside,
crossbar,
crossbar,
rightside,
crossbar,
crossbar,
crossbar,
crossbar,
rightside,
crossbar,
crossbar,
rightside,
rightside,
crossbar,
crossbar,
rightside,
crossbar,
crossbar,
rightside,
crossbar,
crossbar,
crossbar,
crossbar,
rightside,
crossbar,
crossbar,
rightside,
rightside,
crossbar,
crossbar,
rightside,
crossbar,
crossbar,
rightside,
crossbar,
crossbar,
crossbar,
crossbar,
rightside,
crossbar,
crossbar,
rightside,
rightside,
crossbar,
crossbar,
rightside,
crossbar,
crossbar,
rightside,
crossbar,
crossbar
);
L4QRW2yg68 = (
crossbar,
crossbar,
crossbar,
shiftdown,
crossbar,
crossbar,
crossbar,
shiftstem,
crossbar,
crossbar,
rightside,
crossbar,
crossbar,
rightside,
rightside,
crossbar,
crossbar,
rightside,
crossbar,
crossbar,
rightside,
crossbar,
crossbar,
crossbar,
crossbar,
rightside,
crossbar,
crossbar,
rightside,
rightside,
crossbar,
crossbar,
rightside,
crossbar,
crossbar,
rightside,
crossbar,
crossbar,
crossbar,
crossbar,
rightside,
crossbar,
crossbar,
rightside,
rightside,
crossbar,
crossbar,
rightside,
crossbar,
crossbar,
rightside,
crossbar,
crossbar,
crossbar,
crossbar,
rightside,
crossbar,
crossbar,
rightside,
rightside,
crossbar,
crossbar,
rightside,
crossbar,
crossbar,
rightside,
crossbar,
crossbar,
crossbar,
crossbar,
rightside,
crossbar,
crossbar,
rightside,
rightside,
crossbar,
crossbar,
rightside,
crossbar,
crossbar,
rightside,
crossbar,
crossbar,
crossbar,
crossbar,
rightside,
crossbar,
crossbar,
rightside,
rightside,
crossbar,
crossbar,
rightside,
crossbar,
crossbar,
rightside,
crossbar,
crossbar,
crossbar,
crossbar,
crossbar,
crossbar,
shiftstem,
crossbar,
crossbar,
rightside,
crossbar,
crossbar,
rightside,
rightside,
crossbar,
crossbar,
rightside,
crossbar,
crossbar,
rightside,
crossbar,
crossbar,
crossbar,
crossbar,
rightside,
crossbar,
crossbar,
rightside,
rightside,
crossbar,
crossbar,
rightside,
crossbar,
crossbar,
rightside,
crossbar,
crossbar,
crossbar,
crossbar,
rightside,
crossbar,
crossbar,
rightside,
rightside,
crossbar,
crossbar,
rightside,
crossbar,
crossbar,
rightside,
crossbar,
crossbar,
crossbar,
crossbar,
rightside,
crossbar,
crossbar,
rightside,
rightside,
crossbar,
crossbar,
rightside,
crossbar,
crossbar,
rightside,
crossbar,
crossbar,
crossbar,
crossbar,
rightside,
crossbar,
crossbar,
rightside,
rightside,
crossbar,
crossbar,
rightside,
crossbar,
crossbar,
rightside,
crossbar,
crossbar,
crossbar,
crossbar,
rightside,
crossbar,
crossbar,
rightside,
rightside,
crossbar,
crossbar,
rightside,
crossbar,
crossbar,
rightside,
crossbar,
crossbar,
crossbar,
crossbar,
crossbar,
crossbar,
crossbar,
crossbar,
shiftstem,
crossbar,
crossbar,
rightside,
crossbar,
crossbar,
rightside,
rightside,
crossbar,
crossbar,
rightside,
crossbar,
crossbar,
rightside,
crossbar,
crossbar,
crossbar,
crossbar,
rightside,
crossbar,
crossbar,
rightside,
rightside,
crossbar,
crossbar,
rightside,
crossbar,
crossbar,
rightside,
crossbar,
crossbar,
crossbar,
crossbar,
rightside,
crossbar,
crossbar,
rightside,
rightside,
crossbar,
crossbar,
rightside,
crossbar,
crossbar,
rightside,
crossbar,
crossbar,
crossbar,
crossbar,
rightside,
crossbar,
crossbar,
rightside,
rightside,
crossbar,
crossbar,
rightside,
crossbar,
crossbar,
rightside,
crossbar,
crossbar,
crossbar,
crossbar,
rightside,
crossbar,
crossbar,
rightside,
rightside,
crossbar,
crossbar,
rightside,
crossbar,
crossbar,
rightside,
crossbar,
crossbar,
crossbar,
crossbar,
rightside,
crossbar,
crossbar,
rightside,
rightside,
crossbar,
crossbar,
rightside,
crossbar,
crossbar,
rightside,
crossbar,
crossbar,
crossbar,
crossbar,
crossbar,
crossbar,
shiftstem,
crossbar,
crossbar,
rightside,
crossbar,
crossbar,
rightside,
rightside,
crossbar,
crossbar,
rightside,
crossbar,
crossbar,
rightside,
crossbar,
crossbar,
crossbar,
crossbar,
rightside,
crossbar,
crossbar,
rightside,
rightside,
crossbar,
crossbar,
rightside,
crossbar,
crossbar,
rightside,
crossbar,
crossbar,
crossbar,
crossbar,
rightside,
crossbar,
crossbar,
rightside,
rightside,
crossbar,
crossbar,
rightside,
crossbar,
crossbar,
rightside,
crossbar,
crossbar,
crossbar,
crossbar,
rightside,
crossbar,
crossbar,
rightside,
rightside,
crossbar,
crossbar,
rightside,
crossbar,
crossbar,
rightside,
crossbar,
crossbar,
crossbar,
crossbar,
rightside,
crossbar,
crossbar,
rightside,
rightside,
crossbar,
crossbar,
rightside,
crossbar,
crossbar,
rightside,
crossbar,
crossbar,
crossbar,
crossbar,
rightside,
crossbar,
crossbar,
rightside,
rightside,
crossbar,
crossbar,
rightside,
crossbar,
crossbar,
rightside,
crossbar,
crossbar
);
N5AQTXpmui = (
crossbar,
crossbar,
crossbar,
crossbar,
shiftstem,
crossbar,
crossbar,
rightside,
crossbar,
crossbar,
rightside,
rightside,
crossbar,
crossbar,
rightside,
crossbar,
crossbar,
rightside,
crossbar,
crossbar,
crossbar,
crossbar,
rightside,
crossbar,
crossbar,
rightside,
rightside,
crossbar,
crossbar,
rightside,
crossbar,
crossbar,
rightside,
crossbar,
crossbar,
crossbar,
crossbar,
rightside,
crossbar,
crossbar,
rightside,
rightside,
crossbar,
crossbar,
rightside,
crossbar,
crossbar,
rightside,
crossbar,
crossbar,
crossbar,
crossbar,
rightside,
crossbar,
crossbar,
rightside,
rightside,
crossbar,
crossbar,
rightside,
crossbar,
crossbar,
rightside,
crossbar,
crossbar,
crossbar,
crossbar,
rightside,
crossbar,
crossbar,
rightside,
rightside,
crossbar,
crossbar,
rightside,
crossbar,
crossbar,
rightside,
crossbar,
crossbar,
crossbar,
crossbar,
rightside,
crossbar,
crossbar,
rightside,
rightside,
crossbar,
crossbar,
rightside,
crossbar,
crossbar,
rightside,
crossbar,
crossbar
);
SOkkUNzV8O = (
crossbar,
crossbar,
crossbar,
crossbar,
leftside
);
TCOXywMDjP = (
crossbar,
crossbar,
crossbar,
crossbar,
shiftstem,
crossbar,
crossbar,
rightside,
crossbar,
crossbar,
rightside,
rightside,
crossbar,
crossbar,
rightside,
crossbar,
crossbar,
rightside,
crossbar,
crossbar,
crossbar,
crossbar,
rightside,
crossbar,
crossbar,
rightside,
rightside,
crossbar,
crossbar,
rightside,
crossbar,
crossbar,
rightside,
crossbar,
crossbar,
crossbar,
crossbar,
rightside,
crossbar,
crossbar,
rightside,
rightside,
crossbar,
crossbar,
rightside,
crossbar,
crossbar,
rightside,
crossbar,
crossbar,
crossbar,
crossbar,
rightside,
crossbar,
crossbar,
rightside,
rightside,
crossbar,
crossbar,
rightside,
crossbar,
crossbar,
rightside,
crossbar,
crossbar,
crossbar,
crossbar,
rightside,
crossbar,
crossbar,
rightside,
rightside,
crossbar,
crossbar,
rightside,
crossbar,
crossbar,
rightside,
crossbar,
crossbar,
crossbar,
crossbar,
rightside,
crossbar,
crossbar,
rightside,
rightside,
crossbar,
crossbar,
rightside,
crossbar,
crossbar,
rightside,
crossbar,
crossbar
);
ZsCacltAHz = (
crossbar,
crossbar,
crossbar,
crossbar,
shiftstem,
crossbar,
crossbar,
rightside,
crossbar,
crossbar,
rightside,
rightside,
crossbar,
crossbar,
rightside,
crossbar,
crossbar,
rightside,
crossbar,
crossbar,
crossbar,
crossbar,
rightside,
crossbar,
crossbar,
rightside,
rightside,
crossbar,
crossbar,
rightside,
crossbar,
crossbar,
rightside,
crossbar,
crossbar,
crossbar,
crossbar,
rightside,
crossbar,
crossbar,
rightside,
rightside,
crossbar,
crossbar,
rightside,
crossbar,
crossbar,
rightside,
crossbar,
crossbar,
crossbar,
crossbar,
rightside,
crossbar,
crossbar,
rightside,
rightside,
crossbar,
crossbar,
rightside,
crossbar,
crossbar,
rightside,
crossbar,
crossbar,
crossbar,
crossbar,
rightside,
crossbar,
crossbar,
rightside,
rightside,
crossbar,
crossbar,
rightside,
crossbar,
crossbar,
rightside,
crossbar,
crossbar,
crossbar,
crossbar,
rightside,
crossbar,
crossbar,
rightside,
rightside,
crossbar,
crossbar,
rightside,
crossbar,
crossbar,
rightside,
crossbar,
crossbar
);
aujrsODbNh = (
crossbar,
crossbar,
crossbar,
crossbar,
shiftstem,
crossbar,
crossbar,
rightside,
crossbar,
crossbar,
rightside,
rightside,
crossbar,
crossbar,
rightside,
crossbar,
crossbar,
rightside,
crossbar,
crossbar,
crossbar,
crossbar,
rightside,
crossbar,
crossbar,
rightside,
rightside,
crossbar,
crossbar,
rightside,
crossbar,
crossbar,
rightside,
crossbar,
crossbar,
crossbar,
crossbar,
rightside,
crossbar,
crossbar,
rightside,
rightside,
crossbar,
crossbar,
rightside,
crossbar,
crossbar,
rightside,
crossbar,
crossbar,
crossbar,
crossbar,
rightside,
crossbar,
crossbar,
rightside,
rightside,
crossbar,
crossbar,
rightside,
crossbar,
crossbar,
rightside,
crossbar,
crossbar,
crossbar,
crossbar,
rightside,
crossbar,
crossbar,
rightside,
rightside,
crossbar,
crossbar,
rightside,
crossbar,
crossbar,
rightside,
crossbar,
crossbar,
crossbar,
crossbar,
rightside,
crossbar,
crossbar,
rightside,
rightside,
crossbar,
crossbar,
rightside,
crossbar,
crossbar,
rightside,
crossbar,
crossbar
);
dihu6eADUx = (
crossbar,
crossbar,
crossbar,
crossbar,
shiftstem,
crossbar,
crossbar,
rightside,
crossbar,
crossbar,
rightside,
rightside,
crossbar,
crossbar,
rightside,
crossbar,
crossbar,
rightside,
crossbar,
crossbar,
crossbar,
crossbar,
rightside,
crossbar,
crossbar,
rightside,
rightside,
crossbar,
crossbar,
rightside,
crossbar,
crossbar,
rightside,
crossbar,
crossbar,
crossbar,
crossbar,
rightside,
crossbar,
crossbar,
rightside,
rightside,
crossbar,
crossbar,
rightside,
crossbar,
crossbar,
rightside,
crossbar,
crossbar,
crossbar,
crossbar,
rightside,
crossbar,
crossbar,
rightside,
rightside,
crossbar,
crossbar,
rightside,
crossbar,
crossbar,
rightside,
crossbar,
crossbar,
crossbar,
crossbar,
rightside,
crossbar,
crossbar,
rightside,
rightside,
crossbar,
crossbar,
rightside,
crossbar,
crossbar,
rightside,
crossbar,
crossbar,
crossbar,
crossbar,
rightside,
crossbar,
crossbar,
rightside,
rightside,
crossbar,
crossbar,
rightside,
crossbar,
crossbar,
rightside,
crossbar,
crossbar
);
mdbzbOpU9s = (
crossbar,
crossbar,
crossbar,
crossbar,
shiftstem,
crossbar,
crossbar,
rightside,
crossbar,
crossbar,
rightside,
rightside,
crossbar,
crossbar,
rightside,
crossbar,
crossbar,
rightside,
crossbar,
crossbar,
crossbar,
crossbar,
rightside,
crossbar,
crossbar,
rightside,
rightside,
crossbar,
crossbar,
rightside,
crossbar,
crossbar,
rightside,
crossbar,
crossbar,
crossbar,
crossbar,
rightside,
crossbar,
crossbar,
rightside,
rightside,
crossbar,
crossbar,
rightside,
crossbar,
crossbar,
rightside,
crossbar,
crossbar,
crossbar,
crossbar,
rightside,
crossbar,
crossbar,
rightside,
rightside,
crossbar,
crossbar,
rightside,
crossbar,
crossbar,
rightside,
crossbar,
crossbar,
crossbar,
crossbar,
rightside,
crossbar,
crossbar,
rightside,
rightside,
crossbar,
crossbar,
rightside,
crossbar,
crossbar,
rightside,
crossbar,
crossbar,
crossbar,
crossbar,
rightside,
crossbar,
crossbar,
rightside,
rightside,
crossbar,
crossbar,
rightside,
crossbar,
crossbar,
rightside,
crossbar,
crossbar
);
mzk5RCOTSG = (
crossbar,
crossbar,
crossbar,
shiftdown,
crossbar,
crossbar,
crossbar,
shiftstem,
crossbar,
crossbar,
rightside,
crossbar,
crossbar,
rightside,
rightside,
crossbar,
crossbar,
rightside,
crossbar,
crossbar,
rightside,
crossbar,
crossbar,
crossbar,
crossbar,
rightside,
crossbar,
crossbar,
rightside,
rightside,
crossbar,
crossbar,
rightside,
crossbar,
crossbar,
rightside,
crossbar,
crossbar,
crossbar,
crossbar,
rightside,
crossbar,
crossbar,
rightside,
rightside,
crossbar,
crossbar,
rightside,
crossbar,
crossbar,
rightside,
crossbar,
crossbar,
crossbar,
crossbar,
rightside,
crossbar,
crossbar,
rightside,
rightside,
crossbar,
crossbar,
rightside,
crossbar,
crossbar,
rightside,
crossbar,
crossbar,
crossbar,
crossbar,
rightside,
crossbar,
crossbar,
rightside,
rightside,
crossbar,
crossbar,
rightside,
crossbar,
crossbar,
rightside,
crossbar,
crossbar,
crossbar,
crossbar,
rightside,
crossbar,
crossbar,
rightside,
rightside,
crossbar,
crossbar,
rightside,
crossbar,
crossbar,
rightside,
crossbar,
crossbar,
crossbar,
crossbar,
crossbar,
crossbar,
shiftstem,
crossbar,
crossbar,
rightside,
crossbar,
crossbar,
rightside,
rightside,
crossbar,
crossbar,
rightside,
crossbar,
crossbar,
rightside,
crossbar,
crossbar,
crossbar,
crossbar,
rightside,
crossbar,
crossbar,
rightside,
rightside,
crossbar,
crossbar,
rightside,
crossbar,
crossbar,
rightside,
crossbar,
crossbar,
crossbar,
crossbar,
rightside,
crossbar,
crossbar,
rightside,
rightside,
crossbar,
crossbar,
rightside,
crossbar,
crossbar,
rightside,
crossbar,
crossbar,
crossbar,
crossbar,
rightside,
crossbar,
crossbar,
rightside,
rightside,
crossbar,
crossbar,
rightside,
crossbar,
crossbar,
rightside,
crossbar,
crossbar,
crossbar,
crossbar,
rightside,
crossbar,
crossbar,
rightside,
rightside,
crossbar,
crossbar,
rightside,
crossbar,
crossbar,
rightside,
crossbar,
crossbar,
crossbar,
crossbar,
rightside,
crossbar,
crossbar,
rightside,
rightside,
crossbar,
crossbar,
rightside,
crossbar,
crossbar,
rightside,
crossbar,
crossbar,
crossbar,
crossbar,
crossbar,
crossbar,
crossbar,
crossbar,
shiftstem,
crossbar,
crossbar,
rightside,
crossbar,
crossbar,
rightside,
rightside,
crossbar,
crossbar,
rightside,
crossbar,
crossbar,
rightside,
crossbar,
crossbar,
crossbar,
crossbar,
rightside,
crossbar,
crossbar,
rightside,
rightside,
crossbar,
crossbar,
rightside,
crossbar,
crossbar,
rightside,
crossbar,
crossbar,
crossbar,
crossbar,
rightside,
crossbar,
crossbar,
rightside,
rightside,
crossbar,
crossbar,
rightside,
crossbar,
crossbar,
rightside,
crossbar,
crossbar,
crossbar,
crossbar,
rightside,
crossbar,
crossbar,
rightside,
rightside,
crossbar,
crossbar,
rightside,
crossbar,
crossbar,
rightside,
crossbar,
crossbar,
crossbar,
crossbar,
rightside,
crossbar,
crossbar,
rightside,
rightside,
crossbar,
crossbar,
rightside,
crossbar,
crossbar,
rightside,
crossbar,
crossbar,
crossbar,
crossbar,
rightside,
crossbar,
crossbar,
rightside,
rightside,
crossbar,
crossbar,
rightside,
crossbar,
crossbar,
rightside,
crossbar,
crossbar,
crossbar,
crossbar,
crossbar,
crossbar,
shiftstem,
crossbar,
crossbar,
rightside,
crossbar,
crossbar,
rightside,
rightside,
crossbar,
crossbar,
rightside,
crossbar,
crossbar,
rightside,
crossbar,
crossbar,
crossbar,
crossbar,
rightside,
crossbar,
crossbar,
rightside,
rightside,
crossbar,
crossbar,
rightside,
crossbar,
crossbar,
rightside,
crossbar,
crossbar,
crossbar,
crossbar,
rightside,
crossbar,
crossbar,
rightside,
rightside,
crossbar,
crossbar,
rightside,
crossbar,
crossbar,
rightside,
crossbar,
crossbar,
crossbar,
crossbar,
rightside,
crossbar,
crossbar,
rightside,
rightside,
crossbar,
crossbar,
rightside,
crossbar,
crossbar,
rightside,
crossbar,
crossbar,
crossbar,
crossbar,
rightside,
crossbar,
crossbar,
rightside,
rightside,
crossbar,
crossbar,
rightside,
crossbar,
crossbar,
rightside,
crossbar,
crossbar,
crossbar,
crossbar,
rightside,
crossbar,
crossbar,
rightside,
rightside,
crossbar,
crossbar,
rightside,
crossbar,
crossbar,
rightside,
crossbar,
crossbar
);
oo2HOwJkzJ = (
crossbar,
crossbar,
crossbar,
crossbar,
leftside
);
qiqbLZf02H = (
crossbar,
crossbar,
crossbar,
crossbar,
leftside
);
sLI75Ua05e = (
crossbar,
crossbar,
crossbar,
crossbar,
leftside
);
vajhJXw5HW = (
crossbar,
crossbar,
crossbar,
shiftdown,
crossbar,
crossbar,
crossbar,
shiftstem,
crossbar,
crossbar,
rightside,
crossbar,
crossbar,
rightside,
rightside,
crossbar,
crossbar,
rightside,
crossbar,
crossbar,
rightside,
crossbar,
crossbar,
crossbar,
crossbar,
rightside,
crossbar,
crossbar,
rightside,
rightside,
crossbar,
crossbar,
rightside,
crossbar,
crossbar,
rightside,
crossbar,
crossbar,
crossbar,
crossbar,
rightside,
crossbar,
crossbar,
rightside,
rightside,
crossbar,
crossbar,
rightside,
crossbar,
crossbar,
rightside,
crossbar,
crossbar,
crossbar,
crossbar,
rightside,
crossbar,
crossbar,
rightside,
rightside,
crossbar,
crossbar,
rightside,
crossbar,
crossbar,
rightside,
crossbar,
crossbar,
crossbar,
crossbar,
rightside,
crossbar,
crossbar,
rightside,
rightside,
crossbar,
crossbar,
rightside,
crossbar,
crossbar,
rightside,
crossbar,
crossbar,
crossbar,
crossbar,
rightside,
crossbar,
crossbar,
rightside,
rightside,
crossbar,
crossbar,
rightside,
crossbar,
crossbar,
rightside,
crossbar,
crossbar,
crossbar,
crossbar,
crossbar,
crossbar,
shiftstem,
crossbar,
crossbar,
rightside,
crossbar,
crossbar,
rightside,
rightside,
crossbar,
crossbar,
rightside,
crossbar,
crossbar,
rightside,
crossbar,
crossbar,
crossbar,
crossbar,
rightside,
crossbar,
crossbar,
rightside,
rightside,
crossbar,
crossbar,
rightside,
crossbar,
crossbar,
rightside,
crossbar,
crossbar,
crossbar,
crossbar,
rightside,
crossbar,
crossbar,
rightside,
rightside,
crossbar,
crossbar,
rightside,
crossbar,
crossbar,
rightside,
crossbar,
crossbar,
crossbar,
crossbar,
rightside,
crossbar,
crossbar,
rightside,
rightside,
crossbar,
crossbar,
rightside,
crossbar,
crossbar,
rightside,
crossbar,
crossbar,
crossbar,
crossbar,
rightside,
crossbar,
crossbar,
rightside,
rightside,
crossbar,
crossbar,
rightside,
crossbar,
crossbar,
rightside,
crossbar,
crossbar,
crossbar,
crossbar,
rightside,
crossbar,
crossbar,
rightside,
rightside,
crossbar,
crossbar,
rightside,
crossbar,
crossbar,
rightside,
crossbar,
crossbar,
crossbar,
crossbar,
crossbar,
crossbar,
crossbar,
crossbar,
shiftstem,
crossbar,
crossbar,
rightside,
crossbar,
crossbar,
rightside,
rightside,
crossbar,
crossbar,
rightside,
crossbar,
crossbar,
rightside,
crossbar,
crossbar,
crossbar,
crossbar,
rightside,
crossbar,
crossbar,
rightside,
rightside,
crossbar,
crossbar,
rightside,
crossbar,
crossbar,
rightside,
crossbar,
crossbar,
crossbar,
crossbar,
rightside,
crossbar,
crossbar,
rightside,
rightside,
crossbar,
crossbar,
rightside,
crossbar,
crossbar,
rightside,
crossbar,
crossbar,
crossbar,
crossbar,
rightside,
crossbar,
crossbar,
rightside,
rightside,
crossbar,
crossbar,
rightside,
crossbar,
crossbar,
rightside,
crossbar,
crossbar,
crossbar,
crossbar,
rightside,
crossbar,
crossbar,
rightside,
rightside,
crossbar,
crossbar,
rightside,
crossbar,
crossbar,
rightside,
crossbar,
crossbar,
crossbar,
crossbar,
rightside,
crossbar,
crossbar,
rightside,
rightside,
crossbar,
crossbar,
rightside,
crossbar,
crossbar,
rightside,
crossbar,
crossbar,
crossbar,
crossbar,
crossbar,
crossbar,
shiftstem,
crossbar,
crossbar,
rightside,
crossbar,
crossbar,
rightside,
rightside,
crossbar,
crossbar,
rightside,
crossbar,
crossbar,
rightside,
crossbar,
crossbar,
crossbar,
crossbar,
rightside,
crossbar,
crossbar,
rightside,
rightside,
crossbar,
crossbar,
rightside,
crossbar,
crossbar,
rightside,
crossbar,
crossbar,
crossbar,
crossbar,
rightside,
crossbar,
crossbar,
rightside,
rightside,
crossbar,
crossbar,
rightside,
crossbar,
crossbar,
rightside,
crossbar,
crossbar,
crossbar,
crossbar,
rightside,
crossbar,
crossbar,
rightside,
rightside,
crossbar,
crossbar,
rightside,
crossbar,
crossbar,
rightside,
crossbar,
crossbar,
crossbar,
crossbar,
rightside,
crossbar,
crossbar,
rightside,
rightside,
crossbar,
crossbar,
rightside,
crossbar,
crossbar,
rightside,
crossbar,
crossbar,
crossbar,
crossbar,
rightside,
crossbar,
crossbar,
rightside,
rightside,
crossbar,
crossbar,
rightside,
crossbar,
crossbar,
rightside,
crossbar,
crossbar
);
yfThTK6gCq = (
crossbar,
crossbar,
crossbar,
shiftdown,
crossbar,
crossbar,
crossbar,
shiftstem,
crossbar,
crossbar,
rightside,
crossbar,
crossbar,
rightside,
rightside,
crossbar,
crossbar,
rightside,
crossbar,
crossbar,
rightside,
crossbar,
crossbar,
crossbar,
crossbar,
rightside,
crossbar,
crossbar,
rightside,
rightside,
crossbar,
crossbar,
rightside,
crossbar,
crossbar,
rightside,
crossbar,
crossbar,
crossbar,
crossbar,
rightside,
crossbar,
crossbar,
rightside,
rightside,
crossbar,
crossbar,
rightside,
crossbar,
crossbar,
rightside,
crossbar,
crossbar,
crossbar,
crossbar,
rightside,
crossbar,
crossbar,
rightside,
rightside,
crossbar,
crossbar,
rightside,
crossbar,
crossbar,
rightside,
crossbar,
crossbar,
crossbar,
crossbar,
rightside,
crossbar,
crossbar,
rightside,
rightside,
crossbar,
crossbar,
rightside,
crossbar,
crossbar,
rightside,
crossbar,
crossbar,
crossbar,
crossbar,
rightside,
crossbar,
crossbar,
rightside,
rightside,
crossbar,
crossbar,
rightside,
crossbar,
crossbar,
rightside,
crossbar,
crossbar,
crossbar,
crossbar,
crossbar,
crossbar,
shiftstem,
crossbar,
crossbar,
rightside,
crossbar,
crossbar,
rightside,
rightside,
crossbar,
crossbar,
rightside,
crossbar,
crossbar,
rightside,
crossbar,
crossbar,
crossbar,
crossbar,
rightside,
crossbar,
crossbar,
rightside,
rightside,
crossbar,
crossbar,
rightside,
crossbar,
crossbar,
rightside,
crossbar,
crossbar,
crossbar,
crossbar,
rightside,
crossbar,
crossbar,
rightside,
rightside,
crossbar,
crossbar,
rightside,
crossbar,
crossbar,
rightside,
crossbar,
crossbar,
crossbar,
crossbar,
rightside,
crossbar,
crossbar,
rightside,
rightside,
crossbar,
crossbar,
rightside,
crossbar,
crossbar,
rightside,
crossbar,
crossbar,
crossbar,
crossbar,
rightside,
crossbar,
crossbar,
rightside,
rightside,
crossbar,
crossbar,
rightside,
crossbar,
crossbar,
rightside,
crossbar,
crossbar,
crossbar,
crossbar,
rightside,
crossbar,
crossbar,
rightside,
rightside,
crossbar,
crossbar,
rightside,
crossbar,
crossbar,
rightside,
crossbar,
crossbar,
crossbar,
crossbar,
crossbar,
crossbar,
crossbar,
crossbar,
shiftstem,
crossbar,
crossbar,
rightside,
crossbar,
crossbar,
rightside,
rightside,
crossbar,
crossbar,
rightside,
crossbar,
crossbar,
rightside,
crossbar,
crossbar,
crossbar,
crossbar,
rightside,
crossbar,
crossbar,
rightside,
rightside,
crossbar,
crossbar,
rightside,
crossbar,
crossbar,
rightside,
crossbar,
crossbar,
crossbar,
crossbar,
rightside,
crossbar,
crossbar,
rightside,
rightside,
crossbar,
crossbar,
rightside,
crossbar,
crossbar,
rightside,
crossbar,
crossbar,
crossbar,
crossbar,
rightside,
crossbar,
crossbar,
rightside,
rightside,
crossbar,
crossbar,
rightside,
crossbar,
crossbar,
rightside,
crossbar,
crossbar,
crossbar,
crossbar,
rightside,
crossbar,
crossbar,
rightside,
rightside,
crossbar,
crossbar,
rightside,
crossbar,
crossbar,
rightside,
crossbar,
crossbar,
crossbar,
crossbar,
rightside,
crossbar,
crossbar,
rightside,
rightside,
crossbar,
crossbar,
rightside,
crossbar,
crossbar,
rightside,
crossbar,
crossbar,
crossbar,
crossbar,
crossbar,
crossbar,
shiftstem,
crossbar,
crossbar,
rightside,
crossbar,
crossbar,
rightside,
rightside,
crossbar,
crossbar,
rightside,
crossbar,
crossbar,
rightside,
crossbar,
crossbar,
crossbar,
crossbar,
rightside,
crossbar,
crossbar,
rightside,
rightside,
crossbar,
crossbar,
rightside,
crossbar,
crossbar,
rightside,
crossbar,
crossbar,
crossbar,
crossbar,
rightside,
crossbar,
crossbar,
rightside,
rightside,
crossbar,
crossbar,
rightside,
crossbar,
crossbar,
rightside,
crossbar,
crossbar,
crossbar,
crossbar,
rightside,
crossbar,
crossbar,
rightside,
rightside,
crossbar,
crossbar,
rightside,
crossbar,
crossbar,
rightside,
crossbar,
crossbar,
crossbar,
crossbar,
rightside,
crossbar,
crossbar,
rightside,
rightside,
crossbar,
crossbar,
rightside,
crossbar,
crossbar,
rightside,
crossbar,
crossbar,
crossbar,
crossbar,
rightside,
crossbar,
crossbar,
rightside,
rightside,
crossbar,
crossbar,
rightside,
crossbar,
crossbar,
rightside,
crossbar,
crossbar
);
z5onK1VUCe = (
crossbar,
crossbar,
crossbar,
crossbar,
leftside
);
zMJTtBUO7o = (
crossbar,
crossbar,
crossbar,
shiftdown,
crossbar,
crossbar,
crossbar,
shiftstem,
crossbar,
crossbar,
rightside,
crossbar,
crossbar,
rightside,
rightside,
crossbar,
crossbar,
rightside,
crossbar,
crossbar,
rightside,
crossbar,
crossbar,
crossbar,
crossbar,
rightside,
crossbar,
crossbar,
rightside,
rightside,
crossbar,
crossbar,
rightside,
crossbar,
crossbar,
rightside,
crossbar,
crossbar,
crossbar,
crossbar,
rightside,
crossbar,
crossbar,
rightside,
rightside,
crossbar,
crossbar,
rightside,
crossbar,
crossbar,
rightside,
crossbar,
crossbar,
crossbar,
crossbar,
rightside,
crossbar,
crossbar,
rightside,
rightside,
crossbar,
crossbar,
rightside,
crossbar,
crossbar,
rightside,
crossbar,
crossbar,
crossbar,
crossbar,
rightside,
crossbar,
crossbar,
rightside,
rightside,
crossbar,
crossbar,
rightside,
crossbar,
crossbar,
rightside,
crossbar,
crossbar,
crossbar,
crossbar,
rightside,
crossbar,
crossbar,
rightside,
rightside,
crossbar,
crossbar,
rightside,
crossbar,
crossbar,
rightside,
crossbar,
crossbar,
crossbar,
crossbar,
crossbar,
crossbar,
shiftstem,
crossbar,
crossbar,
rightside,
crossbar,
crossbar,
rightside,
rightside,
crossbar,
crossbar,
rightside,
crossbar,
crossbar,
rightside,
crossbar,
crossbar,
crossbar,
crossbar,
rightside,
crossbar,
crossbar,
rightside,
rightside,
crossbar,
crossbar,
rightside,
crossbar,
crossbar,
rightside,
crossbar,
crossbar,
crossbar,
crossbar,
rightside,
crossbar,
crossbar,
rightside,
rightside,
crossbar,
crossbar,
rightside,
crossbar,
crossbar,
rightside,
crossbar,
crossbar,
crossbar,
crossbar,
rightside,
crossbar,
crossbar,
rightside,
rightside,
crossbar,
crossbar,
rightside,
crossbar,
crossbar,
rightside,
crossbar,
crossbar,
crossbar,
crossbar,
rightside,
crossbar,
crossbar,
rightside,
rightside,
crossbar,
crossbar,
rightside,
crossbar,
crossbar,
rightside,
crossbar,
crossbar,
crossbar,
crossbar,
rightside,
crossbar,
crossbar,
rightside,
rightside,
crossbar,
crossbar,
rightside,
crossbar,
crossbar,
rightside,
crossbar,
crossbar,
crossbar,
crossbar,
crossbar,
crossbar,
crossbar,
crossbar,
shiftstem,
crossbar,
crossbar,
rightside,
crossbar,
crossbar,
rightside,
rightside,
crossbar,
crossbar,
rightside,
crossbar,
crossbar,
rightside,
crossbar,
crossbar,
crossbar,
crossbar,
rightside,
crossbar,
crossbar,
rightside,
rightside,
crossbar,
crossbar,
rightside,
crossbar,
crossbar,
rightside,
crossbar,
crossbar,
crossbar,
crossbar,
rightside,
crossbar,
crossbar,
rightside,
rightside,
crossbar,
crossbar,
rightside,
crossbar,
crossbar,
rightside,
crossbar,
crossbar,
crossbar,
crossbar,
rightside,
crossbar,
crossbar,
rightside,
rightside,
crossbar,
crossbar,
rightside,
crossbar,
crossbar,
rightside,
crossbar,
crossbar,
crossbar,
crossbar,
rightside,
crossbar,
crossbar,
rightside,
rightside,
crossbar,
crossbar,
rightside,
crossbar,
crossbar,
rightside,
crossbar,
crossbar,
crossbar,
crossbar,
rightside,
crossbar,
crossbar,
rightside,
rightside,
crossbar,
crossbar,
rightside,
crossbar,
crossbar,
rightside,
crossbar,
crossbar,
crossbar,
crossbar,
crossbar,
crossbar,
shiftstem,
crossbar,
crossbar,
rightside,
crossbar,
crossbar,
rightside,
rightside,
crossbar,
crossbar,
rightside,
crossbar,
crossbar,
rightside,
crossbar,
crossbar,
crossbar,
crossbar,
rightside,
crossbar,
crossbar,
rightside,
rightside,
crossbar,
crossbar,
rightside,
crossbar,
crossbar,
rightside,
crossbar,
crossbar,
crossbar,
crossbar,
rightside,
crossbar,
crossbar,
rightside,
rightside,
crossbar,
crossbar,
rightside,
crossbar,
crossbar,
rightside,
crossbar,
crossbar,
crossbar,
crossbar,
rightside,
crossbar,
crossbar,
rightside,
rightside,
crossbar,
crossbar,
rightside,
crossbar,
crossbar,
rightside,
crossbar,
crossbar,
crossbar,
crossbar,
rightside,
crossbar,
crossbar,
rightside,
rightside,
crossbar,
crossbar,
rightside,
crossbar,
crossbar,
rightside,
crossbar,
crossbar,
crossbar,
crossbar,
rightside,
crossbar,
crossbar,
rightside,
rightside,
crossbar,
crossbar,
rightside,
crossbar,
crossbar,
rightside,
crossbar,
crossbar
);
};
};
width = 146;
},
{
layerId = "628C7BDB-7DBE-4EE3-879C-693AF95326D4";
paths = (
{
closed = 1;
nodes = (
"838 0 LINE",
"838 300 LINE",
"645 365 LINE",
"645 379 LINE",
"836 435 LINE",
"836 750 LINE",
"77 750 LINE",
"77 435 LINE",
"268 379 LINE",
"268 365 LINE",
"76 300 LINE",
"76 0 LINE"
);
},
{
closed = 1;
nodes = (
"415 318 LINE",
"441 327 LINE",
"472 327 LINE",
"499 318 LINE",
"499 102 LINE",
"415 102 LINE"
);
},
{
closed = 1;
nodes = (
"416 422 LINE",
"416 648 LINE",
"498 648 LINE",
"498 422 LINE",
"472 416 LINE",
"441 416 LINE"
);
}
);
width = 915;
}
);
unicode = 0038;
},
{
glyphname = nine;
lastChange = "2019-09-07 14:47:02 +0000";
layers = (
{
layerId = "41E2CF60-9A62-485C-A680-66BBCCBE3685";
paths = (
{
closed = 1;
nodes = (
"1723 1 LINE",
"1723 492 LINE",
"1426 751 LINE",
"92 751 LINE",
"92 284 LINE",
"1283 284 LINE",
"1283 160 LINE",
"511 160 LINE",
"511 160 LINE",
"71 160 LINE",
"71 1 LINE"
);
},
{
closed = 1;
nodes = (
"532 601 LINE",
"1093 601 LINE",
"1283 455 LINE",
"1283 405 LINE",
"532 405 LINE"
);
}
);
width = 1782;
},
{
layerId = "C9BA7AB2-4C39-4898-B0E1-23BE521DA8C1";
paths = (
{
closed = 1;
nodes = (
"1047 1 LINE",
"1047 561 LINE",
"910 751 LINE",
"48 751 LINE",
"48 348 LINE",
"1006 348 LINE",
"1006 33 LINE",
"89 33 LINE",
"89 174 LINE",
"48 174 LINE",
"48 1 LINE"
);
},
{
closed = 1;
nodes = (
"89 720 LINE",
"887 720 LINE",
"1006 555 LINE",
"1006 377 LINE",
"89 377 LINE"
);
}
);
width = 1094;
},
{
layerId = "1577B97C-DCC5-4AA4-842F-E9BB22E99E3C";
paths = (
{
closed = 1;
nodes = (
"131 1 LINE",
"131 647 LINE",
"91 751 LINE",
"12 751 LINE",
"12 353 LINE",
"100 353 LINE",
"100 23 LINE",
"45 23 LINE",
"45 173 LINE",
"14 173 LINE",
"14 1 LINE"
);
},
{
closed = 1;
nodes = (
"43 729 LINE",
"69 729 LINE",
"100 644 LINE",
"100 375 LINE",
"43 375 LINE"
);
}
);
userData = {
com.schriftgestaltung.Glyphs.lastChange = "2019-04-28 12:47:08 +0000";
com.typemytype.robofont.pointLabels = {
0HVokMUxPb = (
shiftstem,
shiftstem,
shiftstem,
rightside
);
4FSbMLrBJP = (
leftside,
shiftstem,
shiftstem,
shiftdown,
crossbar,
leftside,
shiftstem,
shiftstem,
crossbar,
shiftstem,
shiftstem,
shiftstem
);
Efn3lsXAoF = (
leftside,
shiftstem,
shiftstem,
shiftdown,
crossbar,
leftside,
shiftstem,
shiftstem,
crossbar,
shiftstem,
shiftstem,
shiftstem
);
LvU2AmyUE0 = (
leftside,
shiftstem,
shiftstem,
crossbar
);
OKodaRrQl8 = (
leftside
);
PcPYqqLabx = (
leftside,
shiftstem,
shiftstem,
shiftdown,
crossbar,
leftside,
shiftstem,
shiftstem,
crossbar,
shiftstem,
shiftstem,
shiftstem
);
g9DsZWloLo = (
leftside,
shiftstem,
shiftstem,
shiftdown,
crossbar,
leftside,
shiftstem,
shiftstem,
crossbar,
shiftstem,
shiftstem,
shiftstem
);
gZm1KXdRtO = (
leftside
);
hBSp7vYn7O = (
leftside
);
qaNXKUJRJ3 = (
shiftstem,
shiftstem,
shiftstem,
rightside
);
rPdlNe4x1f = (
leftside,
shiftstem,
shiftstem,
shiftdown,
crossbar,
leftside,
shiftstem,
shiftstem,
crossbar,
shiftstem,
shiftstem,
shiftstem
);
tOqkU2FEvP = (
leftside,
shiftstem,
shiftstem,
shiftdown,
crossbar,
leftside,
shiftstem,
shiftstem,
crossbar,
shiftstem,
shiftstem,
shiftstem
);
uave3PqONG = (
shiftstem,
shiftstem,
shiftstem,
rightside
);
vpYJQsgdHx = (
leftside,
shiftstem,
shiftstem,
shiftdown,
crossbar,
leftside,
shiftstem,
shiftstem,
crossbar,
shiftstem,
shiftstem,
shiftstem
);
zyRJvufdth = (
leftside,
shiftstem,
shiftstem,
crossbar
);
};
};
width = 151;
},
{
layerId = "628C7BDB-7DBE-4EE3-879C-693AF95326D4";
paths = (
{
closed = 1;
nodes = (
"789 1 LINE",
"789 536 LINE",
"706 752 LINE",
"28 751 LINE",
"28 327 LINE",
"451 327 LINE",
"451 103 LINE",
"369 103 LINE",
"369 201 LINE",
"30 201 LINE",
"30 1 LINE"
);
},
{
closed = 1;
nodes = (
"367 649 LINE",
"414 649 LINE",
"451 508 LINE",
"451 395 LINE",
"367 395 LINE"
);
}
);
width = 815;
}
);
unicode = 0039;
},
